<svg width="200" height="157" viewBox="0 0 200 157" fill="none" xmlns="http://www.w3.org/2000/svg">
<g clip-path="url(#clip0_1_42276)">
<path d="M114.924 117.918C114.856 118.004 114.799 118.043 114.807 118.069C115.454 120.92 114.05 123.04 112.446 125.163C111.985 125.773 111.9 126.767 111.871 127.591C111.822 129.059 112.154 130.564 111.959 132.001C111.299 136.891 108.244 139.814 103.719 141.22C102.011 141.752 100.157 141.958 98.3597 142.029C95.6814 142.13 92.9927 141.969 90.3091 141.943C89.5316 141.935 88.7489 141.963 87.9766 142.055C85.8496 142.305 84.9031 143.02 84.5806 145.171C84.266 147.255 84.1828 149.399 84.2322 151.509C84.292 154.004 83.3871 155.337 80.9142 155.546C77.6846 155.817 74.4446 156.104 71.2072 156.12C64.3709 156.148 57.5373 155.932 50.7011 155.958C45.0766 155.981 39.4495 156.346 33.8276 156.299C30.3353 156.271 26.8379 155.84 23.3639 155.428C20.995 155.147 20.0121 153.423 20.5347 151.104C21.2498 147.933 22.0065 144.764 22.5526 141.562C24.0816 132.567 21.6633 124.579 16.2728 117.347C10.1178 109.09 4.99522 100.277 2.18947 90.2626C0.249632 83.3358 -0.426451 76.2838 0.257433 69.1196C0.876309 62.6179 2.51451 56.3483 5.6531 50.6316C10.6067 41.6079 17.4976 34.4516 26.8197 29.8172C34.3736 26.0643 42.2708 23.4615 50.6777 22.5957C56.6428 21.9828 62.6547 21.9359 68.5574 22.906C77.2009 24.33 85.6702 26.3929 93.2111 31.2725C102.432 37.2369 107.968 45.7546 110.722 56.1944C111.853 60.4793 112.365 64.9338 111.92 69.37C111.484 73.7384 112.334 77.6217 115.007 81.1216C117.347 84.186 119.638 87.2869 121.906 90.406C122.642 91.4179 123.336 92.4846 123.869 93.6139C125.504 97.0747 124.079 100.65 120.501 102.038C118.931 102.645 117.269 103.01 115.665 103.532C114.193 104.012 114.053 104.351 114.612 105.827C114.887 106.557 115.22 107.267 115.509 107.992C116.266 109.885 116.24 111.739 115.064 113.455C114.596 114.139 114.747 114.556 115.452 114.689C117.646 115.106 119.851 115.471 122.059 115.797C122.946 115.928 123.162 115.213 123.429 114.533C125.148 110.18 129.917 108.198 134.234 110.008C137.336 111.309 138.99 114.217 138.657 117.787C138.358 121.006 136.111 123.47 132.863 124.14C128.861 124.967 125.702 123.465 123.739 119.879C123.513 119.467 122.972 119.052 122.519 118.974C120.148 118.559 117.756 118.254 115.371 117.915C115.21 117.892 115.041 117.912 114.916 117.912L114.924 117.918ZM107.463 89.8401C107.349 89.8244 107.232 89.8062 107.118 89.7905C106.949 86.0742 107.042 82.3604 105.955 78.7014C104.429 73.5558 102.32 68.778 98.586 64.8477C96.9738 63.1525 95.2887 61.5251 93.6376 59.8665C91.4091 57.6236 88.7515 56.004 85.9692 54.5801C81.1768 52.126 75.9398 51.3879 70.7001 50.7229C62.5715 49.6927 54.6743 51.101 46.7954 52.9709C42.5569 53.9776 39.0516 56.0666 35.9858 59.0762C35.0939 59.9525 34.1058 60.7584 33.0657 61.4495C30.1325 63.3925 28.1563 66.0813 26.9211 69.3126C26.024 71.6572 25.3999 74.1035 24.5288 76.4585C23.0596 80.4305 21.5021 84.3711 19.9601 88.317C19.1098 90.4895 17.8642 92.5707 17.3987 94.8187C15.8958 102.079 16.9203 108.938 21.2134 115.19C22.7528 117.43 23.9334 119.915 25.3349 122.252C26.3985 124.023 27.436 125.828 28.6997 127.453C30.559 129.847 32.6106 132.092 34.5791 134.4C36.5631 136.727 38.711 138.865 41.5557 140.117C43.5268 140.985 45.5238 141.807 47.5547 142.519C50.285 143.476 53.0023 144.657 55.8289 145.127C63.2918 146.373 70.7443 145.951 78.111 144.136C79.0836 143.896 79.679 143.445 80.0197 142.448C81.0676 139.384 83.2597 137.566 86.4347 137.068C87.9662 136.828 89.5446 136.909 91.084 136.713C91.7549 136.627 92.5558 136.377 93.0083 135.915C98.9526 129.883 102.715 122.685 104.205 114.326C104.671 111.724 105.079 109.105 105.417 106.482C106.132 100.94 106.787 95.3899 107.466 89.8427L107.463 89.8401ZM7.79056 90.0487C7.93618 90.067 8.0818 90.0826 8.22482 90.1009C8.74748 89.0264 9.26494 87.9467 9.79281 86.8748C11.054 84.3138 12.6714 81.8622 13.5009 79.1656C14.7022 75.251 15.3991 71.1747 16.1922 67.1428C16.9489 63.2908 18.3479 59.7908 20.7922 56.6691C23.3717 53.3778 26.9159 51.3436 30.2131 48.9833C34.6363 45.8146 39.4963 43.9056 44.9934 43.5509C47.4272 43.3944 49.8221 42.6511 52.2352 42.1765C56.1383 41.4097 60.0128 40.39 63.9497 39.9571C67.1039 39.6128 70.3439 39.871 73.5345 40.0588C79.6426 40.4239 85.4751 41.7409 90.8214 44.9801C95.762 47.974 100.084 51.6513 103.969 55.8919C104.359 56.317 104.798 56.7004 105.368 57.2507C105.412 56.8021 105.469 56.63 105.438 56.4761C105.352 56.051 105.232 55.6337 105.118 55.2164C104.091 51.5157 101.998 48.36 99.9173 45.2148C99.3036 44.2837 98.4143 43.3996 97.447 42.8702C95.4448 41.7696 93.3541 40.7812 91.2088 39.9962C82.7942 36.9083 73.9817 36.1937 65.138 36.1677C55.5455 36.1364 46.0543 37.4612 36.6827 39.4616C28.9988 41.102 22.7034 45.1965 17.7706 51.2784C13.9507 55.9884 12.2059 61.7077 10.5053 67.4166C9.32995 71.3599 8.29762 75.3579 6.89085 79.2177C5.48148 83.0854 6.83884 86.5071 7.78536 90.0461L7.79056 90.0487ZM106.613 71.7719L107.001 71.7146C107.001 70.1237 106.876 68.5224 107.029 66.9445C107.287 64.2557 106.351 62.258 104.335 60.4507C100.827 57.3054 97.6316 53.8081 94.09 50.702C90.4678 47.5255 86.1824 45.4156 81.5383 44.1168C76.2622 42.6407 70.8275 42.5103 65.4345 42.7841C61.794 42.9693 58.19 43.8769 54.5729 44.4819C51.1665 45.0505 47.7783 45.7364 44.3563 46.198C40.3206 46.7431 36.4331 47.635 33.0423 50.0343C30.923 51.5365 28.7985 53.0361 26.7339 54.6088C23.2989 57.2246 20.7246 60.4767 19.7026 64.7695C19.1514 67.0802 18.7171 69.4195 18.2178 71.7459C17.7368 73.9887 17.5236 76.3359 16.6941 78.4406C15.3653 81.8127 13.5867 85.0049 12.0759 88.3092C11.1788 90.273 9.77461 92.2994 9.76161 94.305C9.7408 97.2703 11.8809 99.6983 13.3995 102.265C13.6283 101.675 13.5685 101.13 13.6387 100.606C13.9195 98.556 13.9845 96.4305 14.606 94.4849C15.6305 91.2797 17.1205 88.2283 18.236 85.0492C19.7962 80.6078 21.1198 76.0829 22.68 71.6389C24.2402 67.1949 26.1956 62.9726 30.0909 59.9786C32.4572 58.1582 34.7117 56.1944 37.065 54.3584C38.0479 53.5916 39.1114 52.9005 40.214 52.3189C44.2523 50.183 48.7274 49.4554 53.1246 48.5843C61.0685 47.0065 69.0593 47.0821 76.9877 48.7043C79.809 49.2806 82.6226 50.1126 85.2931 51.1923C90.0387 53.1092 94.0614 56.1449 97.6186 59.8534C100.924 63.3012 104.333 66.6368 106.2 71.1695C106.291 71.3912 106.475 71.5763 106.616 71.7772L106.613 71.7719ZM5.57509 72.6326C5.6583 72.6456 5.74411 72.6587 5.82732 72.6717C5.93913 72.4578 6.08215 72.2518 6.15236 72.0249C6.91945 69.5395 7.74376 67.0697 8.41464 64.5582C9.44177 60.7245 10.8511 57.0368 12.8248 53.6177C18.0046 44.6488 25.7874 38.9921 35.7882 36.744C42.0212 35.3435 48.3972 34.4412 54.7576 33.7683C66.4642 32.5295 78.1032 32.9964 89.5186 36.2485C89.8489 36.3424 90.1973 36.3633 90.538 36.4206C90.2883 35.899 89.9607 35.6356 89.6175 35.3905C85.9874 32.7955 81.7463 31.6611 77.5884 30.3127C74.4472 29.293 71.28 28.9905 67.988 29.2408C63.674 29.5695 59.3393 29.6216 55.0176 29.8876C50.7401 30.1484 46.4573 30.4066 42.2058 30.8995C39.5977 31.2021 36.9506 31.6793 34.4725 32.5295C18.2907 38.0793 6.4878 53.8811 5.57249 71.0261C5.54388 71.5607 5.56989 72.1005 5.56989 72.6352L5.57509 72.6326ZM28.3721 131.685C28.1953 132.16 28.1147 132.277 28.1147 132.397C28.0549 135.389 27.9664 138.383 27.9847 141.374C27.9873 141.823 28.3955 142.428 28.7908 142.688C32.1816 144.918 35.9156 146.379 39.8161 147.411C41.9458 147.975 44.1014 148.442 46.2467 148.955C48.847 149.579 51.4317 150.645 54.0529 150.747C61.8772 151.05 69.7146 150.974 77.5468 151.039C77.8042 151.039 78.1058 151.05 78.3061 150.924C78.5661 150.763 78.9093 150.481 78.9301 150.228C79.0029 149.294 78.9587 148.35 78.9587 147.354C78.4751 147.354 78.1682 147.294 77.89 147.362C71.9769 148.848 65.9415 148.637 59.9296 148.622C58.346 148.619 56.7182 148.371 55.1918 147.949C52.0246 147.075 48.912 146.014 45.7786 145.02C39.6289 143.072 34.4282 139.762 30.6318 134.418C29.9947 133.521 29.2302 132.715 28.3695 131.677L28.3721 131.685ZM96.6383 136.698C99.093 136.891 101.233 136.849 103.329 135.978C105.755 134.971 107.149 132.966 107.073 130.321C107.05 129.5 106.993 128.668 106.829 127.867C106.366 125.616 107.146 123.794 108.615 122.158C110.729 119.803 110.722 119.79 108.119 118.064C106.715 117.133 106.592 117.151 106.148 118.773C104.463 124.923 101.54 130.415 97.5302 135.347C97.2442 135.699 97.0284 136.103 96.6383 136.698ZM110.147 83.3723C110.589 91.6918 109.395 99.8104 108.241 107.937C108.077 109.092 108.02 110.263 107.929 111.429C107.921 111.539 108.025 111.656 108.147 111.925C108.693 111.685 109.247 111.494 109.752 111.21C111.226 110.375 111.281 110.125 110.659 108.513C110.316 107.627 110.004 106.719 109.77 105.798C109.018 102.836 109.806 100.958 112.524 99.5679C113.535 99.0515 113.928 98.3552 113.876 97.3094C113.754 94.8448 113.405 92.3698 113.533 89.9209C113.683 87.0287 111.517 85.4952 110.144 83.3723H110.147ZM40.9863 151.12C41.0019 150.99 41.0175 150.862 41.0331 150.731C40.7626 150.63 40.4948 150.52 40.2192 150.432C37.7905 149.652 35.328 148.968 32.9461 148.063C31.4223 147.484 29.9973 146.619 28.5723 145.808C27.722 145.322 27.3138 145.5 27.1187 146.433C26.9133 147.409 26.6819 148.382 26.4297 149.347C26.1956 150.241 26.5259 150.653 27.4308 150.705C30.6682 150.893 33.9056 151.136 37.1456 151.277C38.4223 151.331 39.7069 151.177 40.9889 151.117L40.9863 151.12ZM116.695 97.7058C118.322 97.7188 119.584 96.8738 119.318 95.9115C118.897 94.378 117.904 93.1627 116.695 91.8456V97.7058ZM129.306 113.025C130.058 115.646 130.666 117.839 131.332 120.017C131.407 120.265 131.782 120.419 132.018 120.617C132.172 120.301 132.523 119.923 132.445 119.678C131.823 117.706 131.147 115.75 130.419 113.815C130.315 113.536 129.844 113.395 129.304 113.025H129.306ZM127.478 114.626C126.89 116.366 128.23 120.022 129.491 120.309C129.166 118.325 128.789 116.455 127.478 114.626ZM132.577 113.601C133.142 115.419 133.672 117.13 134.239 118.961C135.331 117.633 134.213 114.105 132.577 113.601Z" fill="#E37422"/>
<path d="M157.02 60.049C153.502 59.6552 149.986 59.2223 146.46 58.9041C145.834 58.8467 144.97 59.0788 144.544 59.5066C139.97 64.0966 134.616 67.4375 128.581 69.7142C127.775 70.0194 126.935 70.2619 126.092 70.4419C125.021 70.6714 123.975 70.5723 123.331 69.5317C122.704 68.5224 122.772 67.4661 123.377 66.4516C124.043 65.3354 124.701 64.2114 125.387 63.1082C127.184 60.2238 128.131 57.0446 128.695 53.722C128.861 52.7388 128.425 52.2407 127.647 51.7348C123.318 48.9207 119.472 45.5799 116.853 41.042C112.092 32.7903 112.883 23.3703 119.004 15.4681C123.791 9.28712 130.216 5.41686 137.505 3.06185C151.167 -1.35087 164.8 -1.00922 178.2 4.21979C184.495 6.67652 190.026 10.3016 194.163 15.8462C201.273 25.3732 200.742 37.2004 192.738 46.005C187.09 52.2198 179.95 55.8241 171.957 57.8896C167.076 59.1519 162.099 59.77 157.02 60.0516V60.049ZM129.041 64.6156C129.35 64.6521 129.483 64.7069 129.587 64.673C129.915 64.5661 130.245 64.4513 130.552 64.2948C134.949 62.0728 139.024 59.3892 142.386 55.7406C143.504 54.5279 144.822 54.1211 146.372 54.4705C154.269 56.2518 162.125 55.7484 169.926 53.9307C176.965 52.2903 183.351 49.2389 188.547 44.1194C197.167 35.6278 197.076 24.1214 188.482 15.6089C184.022 11.1909 178.556 8.50733 172.677 6.7026C162.055 3.44001 151.339 3.41393 140.683 6.55394C133.807 8.58035 127.626 11.8638 122.852 17.4267C117.072 24.1605 116.411 32.7773 121.144 39.9336C123.364 43.2927 126.324 45.872 129.694 47.974C131.68 49.2128 132.528 50.908 132.385 53.203C132.169 56.6769 131.199 59.9369 129.691 63.0534C129.457 63.5359 129.275 64.0471 129.038 64.6156H129.041Z" fill="#E37422"/>
<path d="M65.3148 139.932C60.0024 140.198 54.8979 138.61 49.6921 137.204C42.4242 135.24 37.9673 130.1 33.9628 124.352C29.186 117.498 26.2892 109.812 24.5704 101.662C23.6291 97.1948 23.7383 92.7743 25.3141 88.4476C27.2539 83.1195 28.9935 77.7027 31.2376 72.505C33.5857 67.0725 37.6448 63.1657 43.1497 60.7403C50.623 57.4438 58.3694 55.6261 66.5448 55.5739C73.225 55.5296 79.3436 57.3995 85.0357 60.7847C85.99 61.3532 86.8247 62.146 87.649 62.9076C90.1609 65.2287 92.8522 67.3985 95.0963 69.9596C101.223 76.9516 103.103 85.0285 100.604 94.0704C99.1476 99.3464 98.3753 104.729 97.7928 110.183C96.4693 122.586 90.0439 131.618 79.0601 137.465C74.7644 139.752 70.2164 140.347 65.3148 139.935V139.932ZM65.5853 137.175C68.8721 137.141 72.2265 137.41 75.3183 136.025C87.5034 130.574 94.3422 121.379 95.0677 107.781C95.2497 104.39 96.0688 101.026 96.7033 97.6721C97.2078 94.9937 98.0555 92.37 98.4299 89.6786C99.1398 84.5721 98.0607 79.7578 95.4577 75.3086C92.5792 70.3873 87.935 67.1612 83.6913 63.6926C78.3528 59.3268 71.657 58.6826 64.9846 58.8026C58.7074 58.9147 52.6877 60.3256 46.7329 62.3781C39.6497 64.8192 35.0237 69.5266 32.3558 76.3648C31.0504 79.7108 29.8803 83.109 28.6373 86.4786C27.0563 90.7661 26.0968 95.1475 26.9003 99.7324C27.2513 101.735 27.813 103.702 28.3357 105.671C30.8424 115.143 35.5126 123.392 42.4034 130.345C43.2745 131.224 44.2808 132.079 45.386 132.59C51.7854 135.55 58.4864 137.269 65.5853 137.178V137.175Z" fill="#E37422"/>
<path d="M164.036 24.9952C164.036 26.6434 164.067 28.2917 164.031 29.9373C163.929 34.556 160.622 37.8734 156.152 37.8682C151.739 37.863 148.275 34.483 148.177 29.9634C148.099 26.4087 148.093 22.8514 148.171 19.2967C148.27 14.7405 151.593 11.3267 155.868 11.2432C160.133 11.1624 163.794 14.571 164.078 19.0124C164.202 20.9997 164.098 23 164.098 24.9952C164.078 24.9952 164.057 24.9952 164.039 24.9952H164.036ZM156.186 27.7388V27.7909C157.787 27.7909 159.392 27.8327 160.988 27.7544C161.313 27.7388 161.615 27.2641 161.927 27.0033C161.628 26.7243 161.373 26.32 161.02 26.2001C160.591 26.0514 160.047 26.2418 159.615 26.0983C159.272 25.9836 159.028 25.582 158.739 25.3081C159.012 25.0238 159.238 24.5909 159.569 24.4866C160.089 24.3223 160.689 24.424 161.235 24.3171C161.464 24.2727 161.641 23.978 161.844 23.7981C161.636 23.626 161.451 23.3547 161.217 23.3C160.801 23.2061 160.318 23.3495 159.935 23.2035C159.47 23.0261 159.082 22.648 158.661 22.3585C159.069 22.0638 159.444 21.67 159.899 21.5057C160.325 21.3518 160.848 21.49 161.311 21.4066C161.511 21.3701 161.849 21.0519 161.821 20.9632C161.743 20.7259 161.527 20.4155 161.313 20.366C160.77 20.2408 160.169 20.3347 159.649 20.1626C159.322 20.053 159.098 19.6253 158.83 19.341C159.127 19.0802 159.392 18.7673 159.727 18.5769C159.927 18.4621 160.234 18.5378 160.494 18.5273C161.74 18.4726 161.958 18.1727 161.43 17.0043C160.489 14.9101 158.906 13.6087 156.573 13.4C154.23 13.1888 152.452 14.2033 151.206 16.1436C150.135 17.8128 150.369 18.204 152.29 18.5847C152.722 18.6708 153.065 19.2002 153.45 19.5236C153.057 19.7844 152.68 20.0765 152.267 20.2956C152.093 20.3868 151.822 20.2799 151.63 20.3503C151.237 20.4964 150.865 20.7024 150.486 20.8824C150.873 21.0545 151.255 21.2397 151.648 21.3961C151.76 21.4405 151.937 21.3596 152.03 21.4196C152.519 21.7326 152.99 22.069 153.466 22.4002C152.998 22.6819 152.553 23.0105 152.059 23.2269C151.554 23.4486 151.001 23.5582 150.468 23.7199C151.014 23.905 151.586 24.038 152.101 24.2884C152.579 24.5205 152.998 24.8778 153.442 25.1803C153.003 25.4959 152.579 25.8401 152.114 26.1114C151.955 26.2053 151.69 26.1192 151.474 26.1166C150.902 26.1088 150.171 26.0618 150.366 26.9016C150.447 27.2511 151.102 27.6736 151.518 27.6996C153.07 27.7935 154.633 27.7362 156.191 27.7362L156.186 27.7388ZM156.144 29.9321C156.144 29.906 156.144 29.8799 156.144 29.8538C154.589 29.8538 153.031 29.8851 151.476 29.8434C150.585 29.8199 150.348 30.1772 150.473 31.0248C150.855 33.625 153.434 35.787 156.183 35.7583C158.958 35.7296 161.389 33.6511 161.756 31.0509C161.867 30.2503 161.61 29.919 160.809 29.9269C159.254 29.9451 157.696 29.9321 156.141 29.9321H156.144Z" fill="#E37422"/>
<path d="M156.209 48.3391C154.563 48.3391 152.92 48.3496 151.274 48.3339C150.439 48.3261 149.62 48.1357 149.63 47.1003C149.641 46.0858 150.447 45.8772 151.284 45.8485C152.192 45.8172 153.115 45.8928 154.004 45.7494C154.355 45.692 154.685 45.2069 154.924 44.8496C155.044 44.6723 154.909 44.3385 154.948 44.0829C155.127 42.8728 154.667 42.3147 153.411 42.0773C149.581 41.3523 146.866 39.0651 145.067 35.6512C143.663 32.9833 143.504 30.0754 143.66 27.1518C143.681 26.7371 144.362 26.3564 144.736 25.96C145.137 26.3433 145.818 26.6798 145.888 27.1179C146.115 28.5262 146.055 29.9763 146.216 31.3976C146.692 35.6069 149.604 38.8173 153.793 39.8319C157.891 40.8255 162.276 39.1512 164.494 35.6878C165.791 33.6614 166.265 31.3741 166.363 28.9957C166.392 28.3463 166.28 27.6499 166.48 27.0579C166.629 26.6198 167.229 25.986 167.533 26.033C167.983 26.1034 168.672 26.6745 168.709 27.0814C169.356 34.3446 165.685 40.7759 158.744 42.1582C157.595 42.3877 156.812 44.6227 157.598 45.5329C157.78 45.7442 158.206 45.8042 158.529 45.825C159.522 45.885 160.552 45.752 161.501 45.9789C162.021 46.1041 162.692 46.7509 162.785 47.2568C162.944 48.1148 162.177 48.373 161.402 48.373C159.67 48.373 157.938 48.373 156.206 48.373C156.206 48.3626 156.206 48.3522 156.206 48.3417L156.209 48.3391Z" fill="#E37422"/>
<path d="M67.4939 62.7327C70.9575 62.2293 74.6682 63.9819 78.059 66.4282C81.494 68.9058 84.8016 71.5659 88.0676 74.2652C90.9592 76.6567 91.9733 80.0888 92.2984 83.6174C92.6156 87.0626 92.5324 90.5338 91.6847 93.9738C91.279 95.6246 91.3284 97.4293 91.4247 99.1506C91.7133 104.218 90.3897 108.842 87.8882 113.184C86.7389 115.177 85.5583 117.148 84.4272 119.149C82.2689 122.967 79.1277 125.695 75.079 127.239C69.2829 129.45 63.3074 130.892 57.051 129.862C52.4198 129.101 48.0981 127.426 44.6033 124.174C42.2032 121.942 39.8915 119.587 37.7696 117.091C36.0664 115.088 35.2785 112.548 34.7195 109.974C34.241 107.77 33.7027 105.577 33.2451 103.368C32.9824 102.095 32.6184 100.794 32.6574 99.5157C32.8602 92.9645 33.0266 86.3715 35.6712 80.2218C37.6838 75.5431 40.981 71.9675 45.5628 69.6256C47.604 68.5824 49.5907 67.4349 51.5851 66.3056C56.2423 63.6637 61.3259 62.8683 67.4965 62.7274L67.4939 62.7327ZM64.2981 65.8675C61.8642 65.8257 58.6684 66.2795 55.7301 67.607C52.386 69.117 49.2214 71.0287 45.9216 72.6404C41.5791 74.7607 38.8332 78.3832 37.4836 82.7516C35.2031 90.1374 34.046 97.7162 36.3161 105.412C37.0389 107.861 37.3172 110.482 38.3105 112.803C40.3075 117.474 44.2236 120.507 48.2203 123.379C51.7646 125.927 55.73 127.166 60.0908 127.301C64.5295 127.439 68.7681 126.532 72.9676 125.225C76.686 124.067 79.5724 121.835 81.6371 118.567C82.9554 116.481 84.1074 114.293 85.3503 112.157C87.9792 107.637 89.1936 102.825 88.5435 97.5728C88.4083 96.4748 88.6241 95.3273 88.7047 94.2059C88.944 90.9302 89.4068 87.6546 89.3834 84.3842C89.3574 80.9182 87.9168 77.9138 85.2229 75.6187C84.2348 74.7764 83.2519 73.9209 82.2065 73.1516C79.5594 71.2034 76.9669 69.1561 74.1819 67.4218C71.4334 65.711 68.2428 65.7371 64.2981 65.8675Z" fill="#E37422"/>
<path d="M85.2151 94.4328C84.8666 97.0068 84.6014 99.5966 84.1515 102.152C83.5821 105.381 82.1051 108.2 79.9286 110.652C77.7443 113.114 75.7031 115.724 73.3498 118.009C71.9638 119.352 70.2086 120.526 68.404 121.175C64.9612 122.416 61.3727 123.616 57.6439 122.377C54.3363 121.279 51.4057 119.462 48.5687 117.42C42.8012 113.265 40.2919 107.413 39.309 100.629C38.4847 94.9413 39.114 89.3785 40.5234 83.873C41.4881 80.1045 43.9818 77.4652 47.2816 75.6891C51.6579 73.3315 56.0967 71.0104 60.9931 69.9333C64.4541 69.1692 67.9307 69.456 71.0199 71.3781C73.9505 73.2011 76.7978 75.1675 79.5906 77.1939C81.9725 78.9256 83.01 81.5467 83.9045 84.2668C84.9966 87.5868 85.2333 90.9641 85.2177 94.4328H85.2151ZM41.2982 94.6284C41.1604 94.6466 41.02 94.6623 40.8822 94.6805C41.3711 97.6171 41.6753 100.603 42.393 103.482C43.3551 107.34 44.8997 110.915 48.0019 113.698C50.493 115.93 53.2649 117.62 56.2215 119.091C58.1119 120.033 60.0882 120.377 62.145 120.041C63.7182 119.785 65.2498 119.292 66.8152 118.99C68.7212 118.619 70.3074 117.719 71.5764 116.272C73.8881 113.633 76.2232 111.012 78.4438 108.294C79.7258 106.724 80.9115 105.045 81.2054 102.924C81.6552 99.667 82.3287 96.4279 82.5601 93.1548C82.8072 89.6601 82.1623 86.2019 80.6411 83.0306C79.9312 81.5493 78.9015 80.0992 77.6793 79.0221C75.9371 77.486 73.8465 76.3516 71.9716 74.9563C68.0425 72.0327 63.7078 71.845 59.3887 73.501C55.3686 75.0424 51.5331 77.074 47.6508 78.9622C45.62 79.948 44.3068 81.6354 43.4331 83.7191C41.9691 87.2112 41.2332 90.8337 41.3034 94.6284H41.2982Z" fill="#E37422"/>
<path d="M78.9873 94.1016C78.7377 96.5061 78.7715 98.9837 78.1708 101.297C77.2295 104.917 74.4575 107.251 71.5738 109.416C69.2049 111.194 66.784 112.96 63.8716 113.594C62.2074 113.956 60.2364 114.087 58.6892 113.531C56.0291 112.574 53.5276 111.103 51.0729 109.653C47.7159 107.666 45.6044 104.677 45.2351 100.744C44.9309 97.5154 44.6761 94.2372 44.8945 91.0163C45.2975 85.0988 48.8782 81.2729 53.993 78.8266C56.3203 77.713 58.801 76.9045 61.2583 76.096C62.08 75.8248 63.1097 75.7465 63.9262 75.9839C68.9371 77.4339 73.3316 79.9245 76.6184 84.1025C77.8588 85.6804 78.4906 87.5216 78.5713 89.5219C78.6311 91.0372 78.5843 92.5603 78.5843 94.0781C78.7195 94.0859 78.8547 94.0938 78.9873 94.1016ZM76.0385 94.5319H76.0567C76.0567 93.3166 76.0645 92.1012 76.0567 90.8859C76.0359 87.8294 74.9412 85.2448 72.4007 83.5053C70.2034 82.0005 67.8657 80.7017 65.5801 79.3273C63.843 78.2841 61.9942 78.3415 60.2078 79.0535C58.0417 79.9167 55.9433 80.9495 53.8162 81.9092C49.9807 83.6409 47.8667 86.6949 47.188 90.7738C46.5483 94.618 47.3362 98.3865 48.0903 102.121C48.5193 104.244 49.8325 105.895 51.6917 107.016C53.5406 108.13 55.4518 109.137 57.3188 110.222C59.927 111.737 62.5637 111.862 65.1978 110.368C66.8126 109.45 68.4066 108.482 69.9408 107.434C73.9947 104.654 76.7484 101.151 76.0489 95.8333C75.9917 95.4056 76.0411 94.9674 76.0411 94.5319H76.0385Z" fill="#E37422"/>
<path d="M73.1496 94.0311C72.8115 96.2297 72.7595 98.5221 72.0678 100.601C71.1811 103.263 68.8721 104.706 66.3133 105.655C65.5853 105.926 64.826 106.117 64.0823 106.346C60.2936 107.514 57.038 106.526 54.4533 103.636C53.0803 102.103 51.8972 100.348 50.9012 98.543C49.5257 96.0471 49.9313 93.3087 50.4748 90.6616C50.7244 89.4515 51.1951 88.2518 51.7619 87.1487C53.2233 84.3112 55.9147 83.4218 58.8088 82.9263C59.3185 82.8376 59.8385 82.7724 60.3352 82.6342C62.3218 82.0787 64.2279 82.3995 65.9935 83.3306C67.3639 84.053 68.6822 84.9162 69.9096 85.8629C71.6414 87.1982 72.4917 89.0681 72.6399 91.2484C72.7023 92.156 72.7283 93.0662 72.7725 93.9764C72.8973 93.9946 73.0248 94.0129 73.1496 94.0311ZM52.1832 93.9842C52.3106 94.0103 52.4354 94.039 52.5628 94.065C52.1936 96.4044 53.3949 98.1752 54.6327 99.9252C57.5269 104.015 59.8983 104.867 64.6673 103.417C67.2313 102.638 69.6287 101.5 70.063 98.4517C70.284 96.8921 70.18 95.2804 70.1332 93.6921C69.9876 88.51 70.4036 89.2585 65.3876 85.9985C64.6257 85.503 63.687 85.117 62.7925 85.0257C60.2728 84.7676 57.9247 85.6621 55.6234 86.5253C54.9655 86.7731 54.2348 87.4355 53.993 88.0797C53.2675 90.0018 52.7683 92.0099 52.1806 93.9868L52.1832 93.9842Z" fill="#E37422"/>
<path d="M67.7695 95.0015C67.8501 97.7581 66.4823 99.7324 63.7468 100.718C61.6717 101.467 59.0688 100.455 57.532 98.6135C54.4481 94.9232 56.4997 90.7035 58.8634 88.8049C61.9032 86.3638 66.4225 88.0486 67.343 91.9136C67.5823 92.9203 67.6317 93.9713 67.7695 95.0015ZM66.1495 95.2727C66.1469 92.0544 64.6439 89.5377 62.6001 89.6525C60.5172 89.7672 58.3043 91.2251 58.2653 94.5659C58.2367 97.0227 60.0205 98.9369 62.2828 98.95C64.5035 98.963 66.1521 97.3956 66.1495 95.2727Z" fill="#E37422"/>
<path d="M59.7996 94.404C59.7892 92.6044 60.8891 91.363 62.4675 91.3917C63.9601 91.4178 65.0782 92.7009 65.0808 94.3831C65.0808 95.927 63.8015 97.3197 62.3739 97.3223C60.7669 97.3249 59.81 96.2426 59.7996 94.404ZM62.3895 92.7974C61.9968 93.5746 61.586 94.0154 61.638 94.3935C61.6874 94.7639 62.2075 95.0716 62.5221 95.408C62.7795 95.009 63.193 94.6256 63.2398 94.2031C63.2762 93.8797 62.8419 93.5068 62.3921 92.7974H62.3895Z" fill="#E37422"/>
</g>
<defs>
<clipPath id="clip0_1_42276">
<rect width="199.14" height="156.302" fill="white"/>
</clipPath>
</defs>
</svg>
