<svg width="255" height="312" viewBox="0 0 255 312" fill="none" xmlns="http://www.w3.org/2000/svg">
<path d="M18.52 256.68C17.305 256.705 16.1822 256.435 15.1513 255.87C14.1266 255.306 13.4393 254.404 13.0896 253.164C13.0712 253.072 13.062 253.026 13.062 253.026C13.062 252.689 13.3749 252.52 14.0008 252.52C14.5408 252.52 14.8476 252.667 14.9212 252.962C15.3998 254.76 16.6055 255.659 18.5384 255.659C19.3238 255.659 20.1061 255.426 20.8854 254.959C21.6647 254.487 22.0543 253.803 22.0543 252.907C22.0543 252.287 21.6678 251.799 20.8946 251.443C20.3178 251.173 19.5846 250.992 18.6949 250.9C18.1119 250.839 17.5137 250.747 16.9001 250.624C16.2865 250.501 15.7158 250.305 15.1881 250.035C13.9793 249.403 13.3749 248.47 13.3749 247.237C13.3749 245.985 13.9793 245.092 15.1881 244.559C16.403 244.025 17.529 243.758 18.566 243.758C19.6275 243.758 20.643 243.997 21.6125 244.476C22.582 244.954 23.2171 245.734 23.5178 246.814C23.5423 246.899 23.5546 246.961 23.5546 246.998C23.5546 247.335 23.2478 247.504 22.6342 247.504C22.0881 247.504 21.7782 247.357 21.7046 247.062C21.3303 245.546 20.2841 244.789 18.566 244.789C17.8419 244.789 17.1056 244.985 16.357 245.378C15.6146 245.764 15.2433 246.381 15.2433 247.228C15.2433 247.823 15.6729 248.308 16.5319 248.682C17.1701 248.952 17.9647 249.136 18.9158 249.234C19.5171 249.296 20.143 249.394 20.7934 249.529C21.4438 249.664 22.0237 249.894 22.5329 250.219C23.4534 250.802 23.9136 251.673 23.9136 252.833C23.9136 254.201 23.2969 255.18 22.0635 255.769C20.8363 256.358 19.6551 256.662 18.52 256.68ZM29.6661 256.69C27.5982 256.677 26.5643 255.83 26.5643 254.149V248.295H25.5335C24.9137 248.295 24.6039 248.124 24.6039 247.78C24.6039 247.436 24.9137 247.265 25.5335 247.265H26.5643V244.273C26.5643 243.93 26.8773 243.758 27.5031 243.758C28.129 243.758 28.4419 243.93 28.4419 244.273V247.265H29.9882C30.6141 247.265 30.927 247.436 30.927 247.78C30.927 248.124 30.6141 248.295 29.9882 248.295H28.4419V254.149C28.4419 255.156 28.8531 255.659 29.6753 255.659C29.8471 255.659 30.0097 255.643 30.1631 255.613C30.3226 255.576 30.4822 255.557 30.6417 255.557C31.286 255.557 31.6081 255.735 31.6081 256.091C31.6081 256.331 31.3504 256.496 30.835 256.588C30.43 256.656 30.0404 256.69 29.6661 256.69ZM33.6975 256.69C33.0716 256.69 32.7586 256.518 32.7586 256.174V247.78C32.7586 247.436 33.0716 247.265 33.6975 247.265C34.3172 247.265 34.6271 247.436 34.6271 247.78V248.341C35.1364 247.624 35.8788 247.265 36.8544 247.265C37.5969 247.265 38.2381 247.439 38.7781 247.789C38.9315 247.887 39.0082 248.004 39.0082 248.139C39.0082 248.311 38.91 248.461 38.7137 248.59C38.5419 248.707 38.3516 248.765 38.143 248.765C37.9467 248.765 37.7779 248.713 37.6368 248.608C37.3484 248.381 37.0263 248.268 36.6704 248.268C35.9586 248.268 35.4217 248.642 35.0597 249.391C34.7713 249.974 34.6271 250.759 34.6271 251.747V256.174C34.6271 256.518 34.3172 256.69 33.6975 256.69ZM44.1993 256.69C42.8064 256.69 41.6313 256.275 40.6741 255.447C39.7169 254.612 39.2383 253.474 39.2383 252.032C39.2383 250.566 39.723 249.406 40.6925 248.553C41.6682 247.694 42.8647 247.265 44.2821 247.265C45.632 247.265 46.7948 247.62 47.7704 248.332C48.7461 249.038 49.2339 250.096 49.2339 251.508C49.2339 251.9 48.924 252.097 48.3043 252.097H41.0975C41.1098 253.005 41.3859 253.827 41.9259 254.563C42.4658 255.3 43.2267 255.668 44.2085 255.668C44.9141 255.668 45.5676 255.478 46.1689 255.097C46.801 254.692 47.1446 254.214 47.1998 253.661C47.2305 253.342 47.5342 253.183 48.111 253.183C48.743 253.183 49.059 253.352 49.059 253.689C49.059 253.861 49.0069 254.069 48.9025 254.315C48.6755 254.855 48.2429 255.333 47.6048 255.751C46.6476 256.377 45.5124 256.69 44.1993 256.69ZM47.3471 251.075C47.1507 249.216 46.1291 248.286 44.2821 248.286C42.6377 248.286 41.6129 249.216 41.208 251.075H47.3471ZM54.3237 256.69C53.4156 256.69 52.5658 256.49 51.7742 256.091C50.9888 255.686 50.4611 255.03 50.1911 254.122C50.1666 254.048 50.1543 253.993 50.1543 253.956C50.1543 253.618 50.4642 253.45 51.0839 253.45C51.63 253.45 51.9399 253.594 52.0135 253.882C52.3326 255.073 53.0996 255.668 54.3145 255.668C54.8238 255.668 55.3208 255.514 55.8056 255.208C56.2965 254.895 56.5419 254.45 56.5419 253.873C56.5419 253.511 56.275 253.213 55.7412 252.98C55.3791 252.821 54.9036 252.701 54.3145 252.621C53.8236 252.554 53.342 252.477 52.8695 252.391C52.4032 252.305 51.9583 252.121 51.5349 251.839C50.7679 251.33 50.3844 250.673 50.3844 249.869C50.3844 248.924 50.8477 248.256 51.7742 247.863C52.7069 247.464 53.5629 247.265 54.3421 247.265C55.1398 247.265 55.913 247.443 56.6616 247.798C57.4163 248.154 57.9041 248.74 58.125 249.556C58.1434 249.612 58.1526 249.664 58.1526 249.713C58.1526 250.026 57.8427 250.191 57.223 250.21C56.6769 250.21 56.367 250.063 56.2934 249.768C56.0541 248.78 55.4006 248.286 54.3329 248.286C53.8727 248.286 53.4095 248.415 52.9431 248.673C52.4768 248.924 52.2436 249.317 52.2436 249.851C52.2436 250.207 52.5381 250.501 53.1272 250.735C53.526 250.888 54.0016 251.008 54.5538 251.093C55.0447 251.167 55.5141 251.25 55.9621 251.342C56.41 251.428 56.8456 251.606 57.269 251.876C58.0238 252.354 58.4011 253.002 58.4011 253.818C58.4011 254.836 57.9317 255.57 56.9929 256.018C56.0541 256.466 55.1644 256.69 54.3237 256.69ZM63.491 256.69C62.5828 256.69 61.733 256.49 60.9414 256.091C60.156 255.686 59.6283 255.03 59.3583 254.122C59.3338 254.048 59.3215 253.993 59.3215 253.956C59.3215 253.618 59.6314 253.45 60.2511 253.45C60.7972 253.45 61.1071 253.594 61.1807 253.882C61.4998 255.073 62.2668 255.668 63.4818 255.668C63.9911 255.668 64.4881 255.514 64.9728 255.208C65.4637 254.895 65.7091 254.45 65.7091 253.873C65.7091 253.511 65.4422 253.213 64.9084 252.98C64.5464 252.821 64.0708 252.701 63.4818 252.621C62.9909 252.554 62.5092 252.477 62.0367 252.391C61.5704 252.305 61.1255 252.121 60.7021 251.839C59.9351 251.33 59.5516 250.673 59.5516 249.869C59.5516 248.924 60.0149 248.256 60.9414 247.863C61.8741 247.464 62.7301 247.265 63.5094 247.265C64.3071 247.265 65.0802 247.443 65.8288 247.798C66.5835 248.154 67.0713 248.74 67.2922 249.556C67.3106 249.612 67.3198 249.664 67.3198 249.713C67.3198 250.026 67.01 250.191 66.3902 250.21C65.8441 250.21 65.5343 250.063 65.4606 249.768C65.2213 248.78 64.5678 248.286 63.5002 248.286C63.04 248.286 62.5767 248.415 62.1104 248.673C61.644 248.924 61.4108 249.317 61.4108 249.851C61.4108 250.207 61.7054 250.501 62.2944 250.735C62.6933 250.888 63.1688 251.008 63.7211 251.093C64.2119 251.167 64.6814 251.25 65.1293 251.342C65.5772 251.428 66.0129 251.606 66.4363 251.876C67.191 252.354 67.5684 253.002 67.5684 253.818C67.5684 254.836 67.099 255.57 66.1601 256.018C65.2213 256.466 64.3316 256.69 63.491 256.69ZM75.7231 256.69C75.0973 256.69 74.7843 256.518 74.7843 256.174V248.286H73.7811C73.1614 248.286 72.8515 248.114 72.8515 247.771C72.8515 247.427 73.1614 247.255 73.7811 247.255H74.7843V246.298C74.7843 244.617 75.8152 243.77 77.8769 243.758C78.2573 243.758 78.65 243.792 79.055 243.859C79.5704 243.951 79.8282 244.117 79.8282 244.356C79.8282 244.712 79.5029 244.89 78.8525 244.89C78.6991 244.89 78.5427 244.875 78.3831 244.844C78.2297 244.807 78.0671 244.789 77.8953 244.789C77.0669 244.789 76.6528 245.292 76.6528 246.298V247.255H78.2266C78.8525 247.255 79.1655 247.427 79.1655 247.771C79.1655 248.114 78.8525 248.286 78.2266 248.286H76.6528V256.174C76.6528 256.518 76.3429 256.69 75.7231 256.69ZM81.9083 256.69C81.2824 256.69 80.9695 256.518 80.9695 256.174V247.78C80.9695 247.436 81.2824 247.265 81.9083 247.265C82.528 247.265 82.8379 247.436 82.8379 247.78V248.341C83.3472 247.624 84.0896 247.265 85.0653 247.265C85.8077 247.265 86.4489 247.439 86.9889 247.789C87.1423 247.887 87.219 248.004 87.219 248.139C87.219 248.311 87.1208 248.461 86.9245 248.59C86.7527 248.707 86.5624 248.765 86.3538 248.765C86.1575 248.765 85.9887 248.713 85.8476 248.608C85.5592 248.381 85.2371 248.268 84.8812 248.268C84.1694 248.268 83.6325 248.642 83.2705 249.391C82.9821 249.974 82.8379 250.759 82.8379 251.747V256.174C82.8379 256.518 82.528 256.69 81.9083 256.69ZM92.4101 256.69C91.0172 256.69 89.8422 256.275 88.8849 255.447C87.9277 254.612 87.4491 253.474 87.4491 252.032C87.4491 250.566 87.9339 249.406 88.9033 248.553C89.879 247.694 91.0755 247.265 92.4929 247.265C93.8429 247.265 95.0056 247.62 95.9813 248.332C96.9569 249.038 97.4447 250.096 97.4447 251.508C97.4447 251.9 97.1348 252.097 96.5151 252.097H89.3083C89.3206 253.005 89.5967 253.827 90.1367 254.563C90.6767 255.3 91.4375 255.668 92.4193 255.668C93.1249 255.668 93.7784 255.478 94.3798 255.097C95.0118 254.692 95.3554 254.214 95.4106 253.661C95.4413 253.342 95.745 253.183 96.3218 253.183C96.9538 253.183 97.2698 253.352 97.2698 253.689C97.2698 253.861 97.2177 254.069 97.1134 254.315C96.8863 254.855 96.4537 255.333 95.8156 255.751C94.8584 256.377 93.7232 256.69 92.4101 256.69ZM95.5579 251.075C95.3615 249.216 94.3399 248.286 92.4929 248.286C90.8485 248.286 89.8238 249.216 89.4188 251.075H95.5579ZM103.326 256.69C101.933 256.69 100.758 256.275 99.8009 255.447C98.8437 254.612 98.3651 253.474 98.3651 252.032C98.3651 250.566 98.8499 249.406 99.8193 248.553C100.795 247.694 101.992 247.265 103.409 247.265C104.759 247.265 105.922 247.62 106.897 248.332C107.873 249.038 108.361 250.096 108.361 251.508C108.361 251.9 108.051 252.097 107.431 252.097H100.224C100.237 253.005 100.513 253.827 101.053 254.563C101.593 255.3 102.354 255.668 103.335 255.668C104.041 255.668 104.694 255.478 105.296 255.097C105.928 254.692 106.271 254.214 106.327 253.661C106.357 253.342 106.661 253.183 107.238 253.183C107.87 253.183 108.186 253.352 108.186 253.689C108.186 253.861 108.134 254.069 108.029 254.315C107.802 254.855 107.37 255.333 106.732 255.751C105.774 256.377 104.639 256.69 103.326 256.69ZM106.474 251.075C106.278 249.216 105.256 248.286 103.409 248.286C101.764 248.286 100.74 249.216 100.335 251.075H106.474ZM115.282 260.187C114.656 260.187 114.343 260.015 114.343 259.672V247.771C114.343 247.427 114.656 247.255 115.282 247.255C115.902 247.255 116.212 247.427 116.212 247.771V248.332C116.917 247.62 117.865 247.265 119.056 247.265C122.197 247.265 123.768 248.835 123.768 251.977C123.768 255.119 122.197 256.69 119.056 256.69C117.872 256.69 116.924 256.334 116.212 255.622V259.672C116.212 260.015 115.902 260.187 115.282 260.187ZM119.056 255.659C120.025 255.659 120.74 255.251 121.2 254.435C121.667 253.618 121.9 252.799 121.9 251.977C121.9 251.155 121.667 250.336 121.2 249.52C120.74 248.703 120.025 248.295 119.056 248.295C118.092 248.295 117.378 248.703 116.911 249.52C116.445 250.336 116.212 251.155 116.212 251.977C116.212 252.799 116.445 253.618 116.911 254.435C117.378 255.251 118.092 255.659 119.056 255.659ZM126.088 247.265C126.707 247.265 127.017 247.436 127.017 247.78V252.548C127.017 253.266 127.214 253.962 127.606 254.637C127.999 255.312 128.619 255.649 129.466 255.649C130.374 255.649 131.043 255.284 131.472 254.554C131.902 253.818 132.116 253.066 132.116 252.299V247.78C132.116 247.436 132.426 247.265 133.046 247.265C133.672 247.265 133.985 247.436 133.985 247.78V256.165C133.985 256.509 133.672 256.68 133.046 256.68C132.426 256.68 132.116 256.509 132.116 256.165V255.613C131.441 256.331 130.521 256.69 129.355 256.69C128.128 256.69 127.119 256.3 126.327 255.521C125.542 254.735 125.149 253.747 125.149 252.557V247.78C125.149 247.436 125.462 247.265 126.088 247.265ZM136.764 256.69C136.139 256.69 135.826 256.518 135.826 256.174V247.78C135.826 247.436 136.139 247.265 136.764 247.265C137.384 247.265 137.694 247.436 137.694 247.78V248.341C138.203 247.624 138.946 247.265 139.921 247.265C140.664 247.265 141.305 247.439 141.845 247.789C141.998 247.887 142.075 248.004 142.075 248.139C142.075 248.311 141.977 248.461 141.781 248.59C141.609 248.707 141.419 248.765 141.21 248.765C141.014 248.765 140.845 248.713 140.704 248.608C140.415 248.381 140.093 248.268 139.737 248.268C139.026 248.268 138.489 248.642 138.127 249.391C137.838 249.974 137.694 250.759 137.694 251.747V256.174C137.694 256.518 137.384 256.69 136.764 256.69ZM147.22 256.69C143.937 256.69 142.296 255.131 142.296 252.014C142.296 250.529 142.772 249.366 143.723 248.526C144.674 247.685 145.87 247.265 147.312 247.265C148.22 247.265 149.132 247.498 150.046 247.964C150.966 248.43 151.512 249.145 151.684 250.109C151.696 250.182 151.703 250.231 151.703 250.256C151.703 250.593 151.393 250.762 150.773 250.762C150.196 250.762 149.886 250.606 149.843 250.293C149.653 248.955 148.806 248.286 147.303 248.286C146.26 248.286 145.475 248.676 144.947 249.455C144.419 250.228 144.155 251.087 144.155 252.032C144.161 252.953 144.419 253.79 144.928 254.545C145.438 255.294 146.214 255.668 147.257 255.668C148.742 255.668 149.61 254.996 149.862 253.652C149.911 253.345 150.221 253.192 150.791 253.192C151.417 253.192 151.73 253.361 151.73 253.698C151.73 253.674 151.718 253.735 151.693 253.882C151.472 254.833 150.899 255.539 149.972 255.999C149.046 256.459 148.128 256.69 147.22 256.69ZM161.008 256.69C160.388 256.69 160.078 256.518 160.078 256.174V251.406C160.078 250.688 159.882 249.992 159.489 249.317C159.097 248.642 158.477 248.305 157.63 248.305C156.722 248.305 156.053 248.673 155.624 249.409C155.194 250.139 154.979 250.888 154.979 251.655V256.174C154.979 256.518 154.669 256.69 154.05 256.69C153.424 256.69 153.111 256.518 153.111 256.174V244.273C153.111 243.93 153.424 243.758 154.05 243.758C154.669 243.758 154.979 243.93 154.979 244.273V248.341C155.654 247.624 156.575 247.265 157.74 247.265C158.968 247.265 159.974 247.657 160.759 248.443C161.551 249.222 161.947 250.207 161.947 251.397V256.174C161.947 256.518 161.634 256.69 161.008 256.69ZM171.786 256.69C171.51 256.69 171.286 256.637 171.114 256.533C170.684 256.281 170.414 255.953 170.304 255.548C169.911 256.008 169.384 256.315 168.721 256.469C168.064 256.616 167.472 256.69 166.944 256.69C166.104 256.69 165.251 256.49 164.386 256.091C163.527 255.686 163.097 254.993 163.097 254.011C163.097 252.894 163.521 252.186 164.367 251.885C165.214 251.584 166.092 251.434 167 251.434C167.196 251.434 167.435 251.44 167.718 251.452C168.006 251.465 168.276 251.471 168.528 251.471C169.221 251.471 169.715 251.391 170.009 251.232V250.357C170.009 248.977 169.209 248.286 167.607 248.286C167.018 248.286 166.493 248.433 166.033 248.728C165.499 249.072 165.233 249.483 165.233 249.961C165.233 250.299 164.92 250.468 164.294 250.468C163.68 250.468 163.373 250.299 163.373 249.961C163.373 249.243 163.784 248.611 164.607 248.065C165.423 247.531 166.423 247.265 167.607 247.265C168.558 247.265 169.506 247.498 170.451 247.964C171.396 248.424 171.869 249.222 171.869 250.357V254.324C171.869 255.097 172.068 255.597 172.467 255.824C172.639 255.923 172.725 256.039 172.725 256.174C172.725 256.327 172.63 256.453 172.439 256.551C172.274 256.644 172.056 256.69 171.786 256.69ZM166.944 255.668C167.638 255.668 168.322 255.462 168.997 255.051C169.672 254.634 170.009 254.045 170.009 253.284V252.4C169.66 252.462 169.23 252.492 168.721 252.492C168.439 252.492 168.153 252.486 167.865 252.474C167.576 252.456 167.288 252.446 167 252.446C165.644 252.446 164.966 252.968 164.966 254.011C164.966 255.116 165.625 255.668 166.944 255.668ZM177.584 256.69C176.676 256.69 175.826 256.49 175.035 256.091C174.249 255.686 173.722 255.03 173.452 254.122C173.427 254.048 173.415 253.993 173.415 253.956C173.415 253.618 173.725 253.45 174.345 253.45C174.891 253.45 175.201 253.594 175.274 253.882C175.593 255.073 176.36 255.668 177.575 255.668C178.084 255.668 178.581 255.514 179.066 255.208C179.557 254.895 179.803 254.45 179.803 253.873C179.803 253.511 179.536 253.213 179.002 252.98C178.64 252.821 178.164 252.701 177.575 252.621C177.084 252.554 176.603 252.477 176.13 252.391C175.664 252.305 175.219 252.121 174.796 251.839C174.029 251.33 173.645 250.673 173.645 249.869C173.645 248.924 174.108 248.256 175.035 247.863C175.968 247.464 176.823 247.265 177.603 247.265C178.4 247.265 179.174 247.443 179.922 247.798C180.677 248.154 181.165 248.74 181.386 249.556C181.404 249.612 181.413 249.664 181.413 249.713C181.413 250.026 181.103 250.191 180.484 250.21C179.938 250.21 179.628 250.063 179.554 249.768C179.315 248.78 178.661 248.286 177.594 248.286C177.133 248.286 176.67 248.415 176.204 248.673C175.737 248.924 175.504 249.317 175.504 249.851C175.504 250.207 175.799 250.501 176.388 250.735C176.787 250.888 177.262 251.008 177.814 251.093C178.305 251.167 178.775 251.25 179.223 251.342C179.671 251.428 180.106 251.606 180.53 251.876C181.284 252.354 181.662 253.002 181.662 253.818C181.662 254.836 181.192 255.57 180.254 256.018C179.315 256.466 178.425 256.69 177.584 256.69ZM187.543 256.69C186.15 256.69 184.975 256.275 184.018 255.447C183.061 254.612 182.582 253.474 182.582 252.032C182.582 250.566 183.067 249.406 184.036 248.553C185.012 247.694 186.209 247.265 187.626 247.265C188.976 247.265 190.139 247.62 191.114 248.332C192.09 249.038 192.578 250.096 192.578 251.508C192.578 251.9 192.268 252.097 191.648 252.097H184.441C184.454 253.005 184.73 253.827 185.27 254.563C185.81 255.3 186.571 255.668 187.552 255.668C188.258 255.668 188.911 255.478 189.513 255.097C190.145 254.692 190.488 254.214 190.544 253.661C190.574 253.342 190.878 253.183 191.455 253.183C192.087 253.183 192.403 253.352 192.403 253.689C192.403 253.861 192.351 254.069 192.246 254.315C192.019 254.855 191.587 255.333 190.949 255.751C189.991 256.377 188.856 256.69 187.543 256.69ZM190.691 251.075C190.495 249.216 189.473 248.286 187.626 248.286C185.982 248.286 184.957 249.216 184.552 251.075H190.691ZM197.668 256.69C196.759 256.69 195.91 256.49 195.118 256.091C194.333 255.686 193.805 255.03 193.535 254.122C193.51 254.048 193.498 253.993 193.498 253.956C193.498 253.618 193.808 253.45 194.428 253.45C194.974 253.45 195.284 253.594 195.357 253.882C195.676 255.073 196.443 255.668 197.658 255.668C198.168 255.668 198.665 255.514 199.149 255.208C199.64 254.895 199.886 254.45 199.886 253.873C199.886 253.511 199.619 253.213 199.085 252.98C198.723 252.821 198.247 252.701 197.658 252.621C197.168 252.554 196.686 252.477 196.213 252.391C195.747 252.305 195.302 252.121 194.879 251.839C194.112 251.33 193.728 250.673 193.728 249.869C193.728 248.924 194.192 248.256 195.118 247.863C196.051 247.464 196.907 247.265 197.686 247.265C198.484 247.265 199.257 247.443 200.005 247.798C200.76 248.154 201.248 248.74 201.469 249.556C201.487 249.612 201.496 249.664 201.496 249.713C201.496 250.026 201.187 250.191 200.567 250.21C200.021 250.21 199.711 250.063 199.637 249.768C199.398 248.78 198.744 248.286 197.677 248.286C197.217 248.286 196.753 248.415 196.287 248.673C195.821 248.924 195.587 249.317 195.587 249.851C195.587 250.207 195.882 250.501 196.471 250.735C196.87 250.888 197.345 251.008 197.898 251.093C198.389 251.167 198.858 251.25 199.306 251.342C199.754 251.428 200.19 251.606 200.613 251.876C201.368 252.354 201.745 253.002 201.745 253.818C201.745 254.836 201.276 255.57 200.337 256.018C199.398 256.466 198.508 256.69 197.668 256.69ZM217.199 256.69C216.646 256.69 216.327 256.551 216.241 256.275L214.373 250.099L212.422 256.257C212.33 256.545 212.001 256.69 211.437 256.69C210.909 256.69 210.59 256.558 210.48 256.294L207.074 247.9C207.05 247.844 207.037 247.792 207.037 247.743C207.037 247.424 207.363 247.265 208.013 247.265C208.541 247.265 208.86 247.397 208.97 247.66L211.612 254.177L213.655 247.688C213.741 247.412 214.072 247.274 214.649 247.274C215.201 247.274 215.52 247.412 215.606 247.688L217.576 254.158L220.245 247.559C220.325 247.363 220.555 247.265 220.935 247.265C221.432 247.265 221.681 247.384 221.681 247.624C221.681 247.654 221.669 247.694 221.644 247.743L218.202 256.275C218.091 256.551 217.757 256.69 217.199 256.69ZM223.559 246.455C222.927 246.455 222.611 246.142 222.611 245.516C222.611 244.884 222.927 244.568 223.559 244.568C224.184 244.568 224.497 244.884 224.497 245.516C224.497 246.142 224.184 246.455 223.559 246.455ZM223.559 256.69C222.933 256.69 222.62 256.518 222.62 256.174V247.78C222.62 247.436 222.933 247.265 223.559 247.265C224.178 247.265 224.488 247.436 224.488 247.78V256.174C224.488 256.518 224.178 256.69 223.559 256.69ZM230.48 256.69C228.412 256.677 227.378 255.83 227.378 254.149V248.295H226.347C225.728 248.295 225.418 248.124 225.418 247.78C225.418 247.436 225.728 247.265 226.347 247.265H227.378V244.273C227.378 243.93 227.691 243.758 228.317 243.758C228.943 243.758 229.256 243.93 229.256 244.273V247.265H230.802C231.428 247.265 231.741 247.436 231.741 247.78C231.741 248.124 231.428 248.295 230.802 248.295H229.256V254.149C229.256 255.156 229.667 255.659 230.489 255.659C230.661 255.659 230.824 255.643 230.977 255.613C231.137 255.576 231.296 255.557 231.456 255.557C232.1 255.557 232.422 255.735 232.422 256.091C232.422 256.331 232.164 256.496 231.649 256.588C231.244 256.656 230.854 256.69 230.48 256.69ZM241.47 256.69C240.85 256.69 240.54 256.518 240.54 256.174V251.406C240.54 250.688 240.344 249.992 239.951 249.317C239.558 248.642 238.939 248.305 238.092 248.305C237.184 248.305 236.515 248.673 236.085 249.409C235.656 250.139 235.441 250.888 235.441 251.655V256.174C235.441 256.518 235.131 256.69 234.511 256.69C233.886 256.69 233.573 256.518 233.573 256.174V244.273C233.573 243.93 233.886 243.758 234.511 243.758C235.131 243.758 235.441 243.93 235.441 244.273V248.341C236.116 247.624 237.036 247.265 238.202 247.265C239.429 247.265 240.436 247.657 241.221 248.443C242.013 249.222 242.408 250.207 242.408 251.397V256.174C242.408 256.518 242.096 256.69 241.47 256.69ZM28.0922 279.69C27.8161 279.69 27.5921 279.637 27.4203 279.533C26.9908 279.281 26.7208 278.953 26.6103 278.548C26.2176 279.008 25.6899 279.315 25.0272 279.469C24.3707 279.616 23.7786 279.69 23.2509 279.69C22.4102 279.69 21.5573 279.49 20.6921 279.091C19.8331 278.686 19.4036 277.993 19.4036 277.011C19.4036 275.894 19.827 275.186 20.6737 274.885C21.5205 274.584 22.398 274.434 23.3061 274.434C23.5024 274.434 23.7417 274.44 24.024 274.452C24.3124 274.465 24.5824 274.471 24.834 274.471C25.5273 274.471 26.0213 274.391 26.3158 274.232V273.357C26.3158 271.977 25.5151 271.286 23.9136 271.286C23.3245 271.286 22.7999 271.433 22.3397 271.728C21.8058 272.072 21.5389 272.483 21.5389 272.961C21.5389 273.299 21.226 273.468 20.6001 273.468C19.9865 273.468 19.6797 273.299 19.6797 272.961C19.6797 272.243 20.0908 271.611 20.913 271.065C21.7291 270.531 22.7293 270.265 23.9136 270.265C24.8646 270.265 25.8127 270.498 26.7576 270.964C27.7026 271.424 28.175 272.222 28.175 273.357V277.324C28.175 278.097 28.3744 278.597 28.7733 278.824C28.9451 278.923 29.031 279.039 29.031 279.174C29.031 279.327 28.9359 279.453 28.7457 279.551C28.58 279.644 28.3622 279.69 28.0922 279.69ZM23.2509 278.668C23.9442 278.668 24.6284 278.462 25.3034 278.051C25.9783 277.634 26.3158 277.045 26.3158 276.284V275.4C25.9661 275.462 25.5365 275.492 25.0272 275.492C24.745 275.492 24.4597 275.486 24.1713 275.474C23.8829 275.456 23.5945 275.446 23.3061 275.446C21.95 275.446 21.272 275.968 21.272 277.011C21.272 278.116 21.9316 278.668 23.2509 278.668ZM44.2545 279.69C43.7023 279.69 43.3832 279.551 43.2973 279.275L41.4289 273.099L39.4776 279.257C39.3856 279.545 39.0573 279.69 38.4928 279.69C37.9651 279.69 37.646 279.558 37.5355 279.294L34.13 270.9C34.1055 270.844 34.0932 270.792 34.0932 270.743C34.0932 270.424 34.4184 270.265 35.0689 270.265C35.5966 270.265 35.9156 270.397 36.0261 270.66L38.6676 277.177L40.7109 270.688C40.7968 270.412 41.1282 270.274 41.705 270.274C42.2572 270.274 42.5763 270.412 42.6622 270.688L44.6319 277.158L47.301 270.559C47.3808 270.363 47.6109 270.265 47.9913 270.265C48.4884 270.265 48.7369 270.384 48.7369 270.624C48.7369 270.654 48.7246 270.694 48.7001 270.743L45.2577 279.275C45.1473 279.551 44.8129 279.69 44.2545 279.69ZM57.8949 279.69C57.6188 279.69 57.3948 279.637 57.223 279.533C56.7935 279.281 56.5235 278.953 56.4131 278.548C56.0203 279.008 55.4926 279.315 54.83 279.469C54.1734 279.616 53.5813 279.69 53.0536 279.69C52.2129 279.69 51.36 279.49 50.4948 279.091C49.6358 278.686 49.2063 277.993 49.2063 277.011C49.2063 275.894 49.6297 275.186 50.4764 274.885C51.3232 274.584 52.2007 274.434 53.1088 274.434C53.3051 274.434 53.5445 274.44 53.8267 274.452C54.1151 274.465 54.3851 274.471 54.6367 274.471C55.33 274.471 55.824 274.391 56.1185 274.232V273.357C56.1185 271.977 55.3178 271.286 53.7163 271.286C53.1272 271.286 52.6026 271.433 52.1424 271.728C51.6085 272.072 51.3416 272.483 51.3416 272.961C51.3416 273.299 51.0287 273.468 50.4028 273.468C49.7892 273.468 49.4824 273.299 49.4824 272.961C49.4824 272.243 49.8935 271.611 50.7157 271.065C51.5318 270.531 52.532 270.265 53.7163 270.265C54.6673 270.265 55.6154 270.498 56.5603 270.964C57.5053 271.424 57.9777 272.222 57.9777 273.357V277.324C57.9777 278.097 58.1772 278.597 58.576 278.824C58.7478 278.923 58.8337 279.039 58.8337 279.174C58.8337 279.327 58.7386 279.453 58.5484 279.551C58.3827 279.644 58.1649 279.69 57.8949 279.69ZM53.0536 278.668C53.7469 278.668 54.4311 278.462 55.1061 278.051C55.781 277.634 56.1185 277.045 56.1185 276.284V275.4C55.7688 275.462 55.3392 275.492 54.83 275.492C54.5477 275.492 54.2624 275.486 53.974 275.474C53.6856 275.456 53.3972 275.446 53.1088 275.446C51.7527 275.446 51.0747 275.968 51.0747 277.011C51.0747 278.116 51.7343 278.668 53.0536 278.668ZM60.923 279.69C60.2972 279.69 59.9842 279.518 59.9842 279.174V270.78C59.9842 270.436 60.2972 270.265 60.923 270.265C61.5428 270.265 61.8526 270.436 61.8526 270.78V271.341C62.3619 270.624 63.1044 270.265 64.08 270.265C64.8225 270.265 65.4637 270.439 66.0037 270.789C66.1571 270.887 66.2338 271.004 66.2338 271.139C66.2338 271.311 66.1356 271.461 65.9392 271.59C65.7674 271.707 65.5772 271.765 65.3686 271.765C65.1722 271.765 65.0035 271.713 64.8624 271.608C64.574 271.381 64.2518 271.268 63.8959 271.268C63.1842 271.268 62.6473 271.642 62.2852 272.391C61.9968 272.974 61.8526 273.759 61.8526 274.747V279.174C61.8526 279.518 61.5428 279.69 60.923 279.69ZM68.3231 279.69C67.6972 279.69 67.3843 279.518 67.3843 279.174V270.78C67.3843 270.436 67.6972 270.265 68.3231 270.265C68.9428 270.265 69.2527 270.436 69.2527 270.78V271.341C69.762 270.624 70.5045 270.265 71.4801 270.265C72.2225 270.265 72.8638 270.439 73.4037 270.789C73.5571 270.887 73.6338 271.004 73.6338 271.139C73.6338 271.311 73.5357 271.461 73.3393 271.59C73.1675 271.707 72.9773 271.765 72.7686 271.765C72.5723 271.765 72.4036 271.713 72.2624 271.608C71.974 271.381 71.6519 271.268 71.296 271.268C70.5842 271.268 70.0473 271.642 69.6853 272.391C69.3969 272.974 69.2527 273.759 69.2527 274.747V279.174C69.2527 279.518 68.9428 279.69 68.3231 279.69ZM82.7827 279.69C82.5065 279.69 82.2826 279.637 82.1108 279.533C81.6812 279.281 81.4113 278.953 81.3008 278.548C80.9081 279.008 80.3804 279.315 79.7177 279.469C79.0612 279.616 78.469 279.69 77.9413 279.69C77.1007 279.69 76.2478 279.49 75.3826 279.091C74.5236 278.686 74.094 277.993 74.094 277.011C74.094 275.894 74.5174 275.186 75.3642 274.885C76.211 274.584 77.0884 274.434 77.9966 274.434C78.1929 274.434 78.4322 274.44 78.7145 274.452C79.0029 274.465 79.2728 274.471 79.5244 274.471C80.2178 274.471 80.7117 274.391 81.0063 274.232V273.357C81.0063 271.977 80.2055 271.286 78.604 271.286C78.015 271.286 77.4903 271.433 77.0301 271.728C76.4963 272.072 76.2294 272.483 76.2294 272.961C76.2294 273.299 75.9164 273.468 75.2906 273.468C74.677 273.468 74.3702 273.299 74.3702 272.961C74.3702 272.243 74.7813 271.611 75.6035 271.065C76.4196 270.531 77.4198 270.265 78.604 270.265C79.5551 270.265 80.5031 270.498 81.4481 270.964C82.393 271.424 82.8655 272.222 82.8655 273.357V277.324C82.8655 278.097 83.0649 278.597 83.4638 278.824C83.6356 278.923 83.7215 279.039 83.7215 279.174C83.7215 279.327 83.6264 279.453 83.4361 279.551C83.2705 279.644 83.0526 279.69 82.7827 279.69ZM77.9413 278.668C78.6347 278.668 79.3189 278.462 79.9938 278.051C80.6688 277.634 81.0063 277.045 81.0063 276.284V275.4C80.6565 275.462 80.227 275.492 79.7177 275.492C79.4355 275.492 79.1501 275.486 78.8617 275.474C78.5733 275.456 78.2849 275.446 77.9966 275.446C76.6405 275.446 75.9625 275.968 75.9625 277.011C75.9625 278.116 76.6221 278.668 77.9413 278.668ZM92.769 279.69C92.1493 279.69 91.8394 279.518 91.8394 279.174V274.406C91.8394 273.688 91.6431 272.992 91.2504 272.317C90.8577 271.642 90.2379 271.305 89.3912 271.305C88.483 271.305 87.8142 271.673 87.3847 272.409C86.9552 273.139 86.7404 273.888 86.7404 274.655V279.174C86.7404 279.518 86.4305 279.69 85.8108 279.69C85.1849 279.69 84.872 279.518 84.872 279.174V270.789C84.872 270.446 85.1849 270.274 85.8108 270.274C86.4305 270.274 86.7404 270.446 86.7404 270.789V271.341C87.4154 270.624 88.3358 270.265 89.5016 270.265C90.7288 270.265 91.7351 270.657 92.5205 271.443C93.3121 272.222 93.7079 273.207 93.7079 274.397V279.174C93.7079 279.518 93.3949 279.69 92.769 279.69ZM99.9114 279.69C97.8435 279.677 96.8096 278.83 96.8096 277.149V271.295H95.7788C95.159 271.295 94.8492 271.124 94.8492 270.78C94.8492 270.436 95.159 270.265 95.7788 270.265H96.8096V267.273C96.8096 266.93 97.1226 266.758 97.7484 266.758C98.3743 266.758 98.6873 266.93 98.6873 267.273V270.265H100.234C100.859 270.265 101.172 270.436 101.172 270.78C101.172 271.124 100.859 271.295 100.234 271.295H98.6873V277.149C98.6873 278.156 99.0984 278.659 99.9206 278.659C100.092 278.659 100.255 278.643 100.408 278.613C100.568 278.576 100.727 278.557 100.887 278.557C101.531 278.557 101.853 278.735 101.853 279.091C101.853 279.331 101.596 279.496 101.08 279.588C100.675 279.656 100.286 279.69 99.9114 279.69ZM111.84 279.165C111.84 280.552 111.389 281.561 110.487 282.193C109.591 282.831 108.505 283.15 107.229 283.15C106.492 283.15 105.722 283.024 104.918 282.773C104.121 282.521 103.504 282.083 103.068 281.457C103.025 281.395 103.004 281.334 103.004 281.273C103.004 280.935 103.314 280.766 103.934 280.766C104.369 280.766 104.661 280.874 104.808 281.089C105.28 281.776 106.081 282.119 107.21 282.119C109.051 282.119 109.971 281.101 109.971 279.064V278.567C109.37 279.285 108.52 279.644 107.422 279.644C104.477 279.644 103.004 278.263 103.004 275.502V270.734C103.004 270.39 103.317 270.219 103.943 270.219C104.563 270.219 104.872 270.39 104.872 270.734V275.502C104.872 276.244 105.084 276.95 105.507 277.619C105.931 278.287 106.569 278.622 107.422 278.622C108.244 278.622 108.873 278.287 109.309 277.619C109.751 276.95 109.971 276.253 109.971 275.529V270.734C109.971 270.39 110.281 270.219 110.901 270.219C111.527 270.219 111.84 270.39 111.84 270.734V279.165ZM119.001 269.455C118.369 269.455 118.053 269.142 118.053 268.516C118.053 267.884 118.369 267.568 119.001 267.568C119.626 267.568 119.939 267.884 119.939 268.516C119.939 269.142 119.626 269.455 119.001 269.455ZM119.001 279.69C118.375 279.69 118.062 279.518 118.062 279.174V270.78C118.062 270.436 118.375 270.265 119.001 270.265C119.62 270.265 119.93 270.436 119.93 270.78V279.174C119.93 279.518 119.62 279.69 119.001 279.69ZM129.456 279.69C128.837 279.69 128.527 279.518 128.527 279.174V274.406C128.527 273.688 128.33 272.992 127.938 272.317C127.545 271.642 126.925 271.305 126.079 271.305C125.17 271.305 124.502 271.673 124.072 272.409C123.642 273.139 123.428 273.888 123.428 274.655V279.174C123.428 279.518 123.118 279.69 122.498 279.69C121.872 279.69 121.559 279.518 121.559 279.174V270.789C121.559 270.446 121.872 270.274 122.498 270.274C123.118 270.274 123.428 270.446 123.428 270.789V271.341C124.103 270.624 125.023 270.265 126.189 270.265C127.416 270.265 128.422 270.657 129.208 271.443C129.999 272.222 130.395 273.207 130.395 274.397V279.174C130.395 279.518 130.082 279.69 129.456 279.69ZM136.691 279.69C133.408 279.69 131.767 278.131 131.767 275.014C131.767 273.529 132.242 272.366 133.193 271.526C134.144 270.685 135.341 270.265 136.783 270.265C137.691 270.265 138.602 270.498 139.516 270.964C140.437 271.43 140.983 272.145 141.155 273.109C141.167 273.182 141.173 273.231 141.173 273.256C141.173 273.593 140.863 273.762 140.244 273.762C139.667 273.762 139.357 273.606 139.314 273.293C139.124 271.955 138.277 271.286 136.774 271.286C135.73 271.286 134.945 271.676 134.417 272.455C133.89 273.228 133.626 274.087 133.626 275.032C133.632 275.953 133.89 276.79 134.399 277.545C134.908 278.294 135.684 278.668 136.728 278.668C138.213 278.668 139.081 277.996 139.332 276.652C139.381 276.345 139.691 276.192 140.262 276.192C140.888 276.192 141.201 276.361 141.201 276.698C141.201 276.674 141.188 276.735 141.164 276.882C140.943 277.833 140.369 278.539 139.443 278.999C138.516 279.459 137.599 279.69 136.691 279.69ZM143.29 279.69C142.664 279.69 142.351 279.518 142.351 279.174V267.273C142.351 266.93 142.664 266.758 143.29 266.758C143.91 266.758 144.22 266.93 144.22 267.273V279.174C144.22 279.518 143.91 279.69 143.29 279.69ZM146.778 270.265C147.398 270.265 147.708 270.436 147.708 270.78V275.548C147.708 276.266 147.904 276.962 148.297 277.637C148.69 278.312 149.31 278.649 150.156 278.649C151.064 278.649 151.733 278.284 152.163 277.554C152.592 276.818 152.807 276.066 152.807 275.299V270.78C152.807 270.436 153.117 270.265 153.737 270.265C154.363 270.265 154.675 270.436 154.675 270.78V279.165C154.675 279.509 154.363 279.68 153.737 279.68C153.117 279.68 152.807 279.509 152.807 279.165V278.613C152.132 279.331 151.212 279.69 150.046 279.69C148.819 279.69 147.809 279.3 147.018 278.521C146.232 277.735 145.84 276.747 145.84 275.557V270.78C145.84 270.436 146.153 270.265 146.778 270.265ZM164.542 279.69C163.922 279.69 163.613 279.518 163.613 279.174V278.613C162.907 279.324 161.959 279.68 160.769 279.68C157.627 279.68 156.056 278.109 156.056 274.968C156.056 271.826 157.627 270.255 160.769 270.255C161.953 270.255 162.901 270.611 163.613 271.323V267.273C163.613 266.93 163.922 266.758 164.542 266.758C165.168 266.758 165.481 266.93 165.481 267.273V279.174C165.481 279.518 165.168 279.69 164.542 279.69ZM160.769 278.649C161.738 278.649 162.453 278.241 162.913 277.425C163.379 276.609 163.613 275.79 163.613 274.968C163.613 274.146 163.379 273.326 162.913 272.51C162.453 271.694 161.738 271.286 160.769 271.286C159.805 271.286 159.09 271.694 158.624 272.51C158.158 273.326 157.925 274.146 157.925 274.968C157.925 275.79 158.158 276.609 158.624 277.425C159.09 278.241 159.805 278.649 160.769 278.649ZM171.823 279.69C170.43 279.69 169.255 279.275 168.297 278.447C167.34 277.612 166.862 276.474 166.862 275.032C166.862 273.566 167.346 272.406 168.316 271.553C169.292 270.694 170.488 270.265 171.905 270.265C173.255 270.265 174.418 270.62 175.394 271.332C176.369 272.038 176.857 273.096 176.857 274.508C176.857 274.9 176.547 275.097 175.928 275.097H168.721C168.733 276.005 169.009 276.827 169.549 277.563C170.089 278.3 170.85 278.668 171.832 278.668C172.537 278.668 173.191 278.478 173.792 278.097C174.424 277.692 174.768 277.214 174.823 276.661C174.854 276.342 175.158 276.183 175.734 276.183C176.366 276.183 176.682 276.352 176.682 276.689C176.682 276.861 176.63 277.069 176.526 277.315C176.299 277.855 175.866 278.333 175.228 278.751C174.271 279.377 173.136 279.69 171.823 279.69ZM174.97 274.075C174.774 272.216 173.752 271.286 171.905 271.286C170.261 271.286 169.236 272.216 168.831 274.075H174.97ZM186.264 279.69C185.644 279.69 185.334 279.518 185.334 279.174V278.613C184.629 279.324 183.681 279.68 182.49 279.68C179.348 279.68 177.778 278.109 177.778 274.968C177.778 271.826 179.348 270.255 182.49 270.255C183.674 270.255 184.622 270.611 185.334 271.323V267.273C185.334 266.93 185.644 266.758 186.264 266.758C186.89 266.758 187.203 266.93 187.203 267.273V279.174C187.203 279.518 186.89 279.69 186.264 279.69ZM182.49 278.649C183.46 278.649 184.174 278.241 184.635 277.425C185.101 276.609 185.334 275.79 185.334 274.968C185.334 274.146 185.101 273.326 184.635 272.51C184.174 271.694 183.46 271.286 182.49 271.286C181.527 271.286 180.812 271.694 180.346 272.51C179.879 273.326 179.646 274.146 179.646 274.968C179.646 275.79 179.879 276.609 180.346 277.425C180.812 278.241 181.527 278.649 182.49 278.649ZM198.201 279.69C196.766 279.69 195.569 279.263 194.612 278.41C193.661 277.557 193.185 276.413 193.185 274.977C193.185 273.541 193.661 272.397 194.612 271.544C195.569 270.691 196.766 270.265 198.201 270.265C199.637 270.265 200.831 270.691 201.782 271.544C202.739 272.397 203.218 273.541 203.218 274.977C203.218 276.413 202.739 277.557 201.782 278.41C200.831 279.263 199.637 279.69 198.201 279.69ZM198.201 278.668C199.226 278.668 200.005 278.281 200.539 277.508C201.079 276.729 201.349 275.885 201.349 274.977C201.349 274.063 201.079 273.219 200.539 272.446C200.005 271.673 199.226 271.286 198.201 271.286C197.183 271.286 196.404 271.673 195.864 272.446C195.324 273.219 195.054 274.063 195.054 274.977C195.054 275.885 195.324 276.729 195.864 277.508C196.404 278.281 197.183 278.668 198.201 278.668ZM212.495 279.69C211.876 279.69 211.566 279.518 211.566 279.174V274.406C211.566 273.688 211.369 272.992 210.977 272.317C210.584 271.642 209.964 271.305 209.117 271.305C208.209 271.305 207.54 271.673 207.111 272.409C206.681 273.139 206.467 273.888 206.467 274.655V279.174C206.467 279.518 206.157 279.69 205.537 279.69C204.911 279.69 204.598 279.518 204.598 279.174V270.789C204.598 270.446 204.911 270.274 205.537 270.274C206.157 270.274 206.467 270.446 206.467 270.789V271.341C207.142 270.624 208.062 270.265 209.228 270.265C210.455 270.265 211.461 270.657 212.247 271.443C213.038 272.222 213.434 273.207 213.434 274.397V279.174C213.434 279.518 213.121 279.69 212.495 279.69ZM228.336 279.69C228.059 279.69 227.835 279.637 227.664 279.533C227.234 279.281 226.964 278.953 226.854 278.548C226.461 279.008 225.933 279.315 225.271 279.469C224.614 279.616 224.022 279.69 223.494 279.69C222.654 279.69 221.801 279.49 220.935 279.091C220.076 278.686 219.647 277.993 219.647 277.011C219.647 275.894 220.07 275.186 220.917 274.885C221.764 274.584 222.641 274.434 223.549 274.434C223.746 274.434 223.985 274.44 224.267 274.452C224.556 274.465 224.826 274.471 225.077 274.471C225.771 274.471 226.265 274.391 226.559 274.232V273.357C226.559 271.977 225.758 271.286 224.157 271.286C223.568 271.286 223.043 271.433 222.583 271.728C222.049 272.072 221.782 272.483 221.782 272.961C221.782 273.299 221.469 273.468 220.843 273.468C220.23 273.468 219.923 273.299 219.923 272.961C219.923 272.243 220.334 271.611 221.156 271.065C221.972 270.531 222.973 270.265 224.157 270.265C225.108 270.265 226.056 270.498 227.001 270.964C227.946 271.424 228.418 272.222 228.418 273.357V277.324C228.418 278.097 228.618 278.597 229.017 278.824C229.188 278.923 229.274 279.039 229.274 279.174C229.274 279.327 229.179 279.453 228.989 279.551C228.823 279.644 228.605 279.69 228.336 279.69ZM223.494 278.668C224.188 278.668 224.872 278.462 225.547 278.051C226.222 277.634 226.559 277.045 226.559 276.284V275.4C226.209 275.462 225.78 275.492 225.271 275.492C224.988 275.492 224.703 275.486 224.415 275.474C224.126 275.456 223.838 275.446 223.549 275.446C222.193 275.446 221.515 275.968 221.515 277.011C221.515 278.116 222.175 278.668 223.494 278.668ZM231.134 279.69C230.508 279.69 230.195 279.518 230.195 279.174V267.273C230.195 266.93 230.508 266.758 231.134 266.758C231.753 266.758 232.063 266.93 232.063 267.273V279.174C232.063 279.518 231.753 279.69 231.134 279.69ZM235.128 279.69C234.502 279.69 234.189 279.518 234.189 279.174V267.273C234.189 266.93 234.502 266.758 235.128 266.758C235.748 266.758 236.058 266.93 236.058 267.273V279.174C236.058 279.518 235.748 279.69 235.128 279.69ZM82.6722 302.69C81.2364 302.69 80.0399 302.263 79.0826 301.41C78.1315 300.557 77.656 299.413 77.656 297.977C77.656 296.541 78.1315 295.397 79.0826 294.544C80.0399 293.691 81.2364 293.265 82.6722 293.265C84.108 293.265 85.3015 293.691 86.2526 294.544C87.2098 295.397 87.6884 296.541 87.6884 297.977C87.6884 299.413 87.2098 300.557 86.2526 301.41C85.3015 302.263 84.108 302.69 82.6722 302.69ZM82.6722 301.668C83.6969 301.668 84.4762 301.281 85.01 300.508C85.55 299.729 85.82 298.885 85.82 297.977C85.82 297.063 85.55 296.219 85.01 295.446C84.4762 294.673 83.6969 294.286 82.6722 294.286C81.6536 294.286 80.8744 294.673 80.3344 295.446C79.7944 296.219 79.5244 297.063 79.5244 297.977C79.5244 298.885 79.7944 299.729 80.3344 300.508C80.8744 301.281 81.6536 301.668 82.6722 301.668ZM90.0078 293.265C90.6276 293.265 90.9374 293.436 90.9374 293.78V298.548C90.9374 299.266 91.1338 299.962 91.5265 300.637C91.9192 301.312 92.539 301.649 93.3857 301.649C94.2939 301.649 94.9627 301.284 95.3922 300.554C95.8217 299.818 96.0365 299.066 96.0365 298.299V293.78C96.0365 293.436 96.3464 293.265 96.9661 293.265C97.592 293.265 97.9049 293.436 97.9049 293.78V302.165C97.9049 302.509 97.592 302.68 96.9661 302.68C96.3464 302.68 96.0365 302.509 96.0365 302.165V301.613C95.3615 302.331 94.4411 302.69 93.2753 302.69C92.0481 302.69 91.0387 302.3 90.2471 301.521C89.4617 300.735 89.069 299.747 89.069 298.557V293.78C89.069 293.436 89.382 293.265 90.0078 293.265ZM100.685 302.69C100.059 302.69 99.7457 302.518 99.7457 302.174V293.78C99.7457 293.436 100.059 293.265 100.685 293.265C101.304 293.265 101.614 293.436 101.614 293.78V294.341C102.123 293.624 102.866 293.265 103.842 293.265C104.584 293.265 105.225 293.439 105.765 293.789C105.919 293.887 105.995 294.004 105.995 294.139C105.995 294.311 105.897 294.461 105.701 294.59C105.529 294.707 105.339 294.765 105.13 294.765C104.934 294.765 104.765 294.713 104.624 294.608C104.335 294.381 104.013 294.268 103.657 294.268C102.946 294.268 102.409 294.642 102.047 295.391C101.758 295.974 101.614 296.759 101.614 297.747V302.174C101.614 302.518 101.304 302.69 100.685 302.69ZM116.746 302.68C115.531 302.705 114.408 302.435 113.377 301.87C112.352 301.306 111.665 300.404 111.315 299.164C111.297 299.072 111.288 299.026 111.288 299.026C111.288 298.689 111.601 298.52 112.226 298.52C112.766 298.52 113.073 298.667 113.147 298.962C113.625 300.76 114.831 301.659 116.764 301.659C117.549 301.659 118.332 301.426 119.111 300.959C119.89 300.487 120.28 299.803 120.28 298.907C120.28 298.287 119.893 297.799 119.12 297.443C118.543 297.173 117.81 296.992 116.92 296.9C116.338 296.839 115.739 296.747 115.126 296.624C114.512 296.501 113.941 296.305 113.414 296.035C112.205 295.403 111.601 294.47 111.601 293.237C111.601 291.985 112.205 291.092 113.414 290.559C114.629 290.025 115.755 289.758 116.792 289.758C117.853 289.758 118.869 289.997 119.838 290.476C120.808 290.954 121.443 291.734 121.743 292.814C121.768 292.899 121.78 292.961 121.78 292.998C121.78 293.335 121.473 293.504 120.86 293.504C120.314 293.504 120.004 293.357 119.93 293.062C119.556 291.546 118.51 290.789 116.792 290.789C116.068 290.789 115.331 290.985 114.583 291.378C113.84 291.764 113.469 292.381 113.469 293.228C113.469 293.823 113.898 294.308 114.758 294.682C115.396 294.952 116.19 295.136 117.141 295.234C117.743 295.296 118.369 295.394 119.019 295.529C119.669 295.664 120.249 295.894 120.759 296.219C121.679 296.802 122.139 297.673 122.139 298.833C122.139 300.201 121.523 301.18 120.289 301.769C119.062 302.358 117.881 302.662 116.746 302.68ZM131.988 302.69C131.711 302.69 131.487 302.637 131.316 302.533C130.886 302.281 130.616 301.953 130.506 301.548C130.113 302.008 129.585 302.315 128.923 302.469C128.266 302.616 127.674 302.69 127.146 302.69C126.306 302.69 125.453 302.49 124.587 302.091C123.728 301.686 123.299 300.993 123.299 300.011C123.299 298.894 123.722 298.186 124.569 297.885C125.416 297.584 126.293 297.434 127.201 297.434C127.398 297.434 127.637 297.44 127.919 297.452C128.208 297.465 128.478 297.471 128.729 297.471C129.423 297.471 129.917 297.391 130.211 297.232V296.357C130.211 294.977 129.41 294.286 127.809 294.286C127.22 294.286 126.695 294.433 126.235 294.728C125.701 295.072 125.434 295.483 125.434 295.961C125.434 296.299 125.121 296.468 124.495 296.468C123.882 296.468 123.575 296.299 123.575 295.961C123.575 295.243 123.986 294.611 124.808 294.065C125.624 293.531 126.625 293.265 127.809 293.265C128.76 293.265 129.708 293.498 130.653 293.964C131.598 294.424 132.07 295.222 132.07 296.357V300.324C132.07 301.097 132.27 301.597 132.669 301.824C132.84 301.923 132.926 302.039 132.926 302.174C132.926 302.327 132.831 302.453 132.641 302.551C132.475 302.644 132.257 302.69 131.988 302.69ZM127.146 301.668C127.84 301.668 128.524 301.462 129.199 301.051C129.874 300.634 130.211 300.045 130.211 299.284V298.4C129.861 298.462 129.432 298.492 128.923 298.492C128.64 298.492 128.355 298.486 128.067 298.474C127.778 298.456 127.49 298.446 127.201 298.446C125.845 298.446 125.167 298.968 125.167 300.011C125.167 301.116 125.827 301.668 127.146 301.668ZM135.016 293.265C135.635 293.265 135.945 293.436 135.945 293.78V298.548C135.945 299.266 136.142 299.962 136.534 300.637C136.927 301.312 137.547 301.649 138.394 301.649C139.302 301.649 139.97 301.284 140.4 300.554C140.83 299.818 141.044 299.066 141.044 298.299V293.78C141.044 293.436 141.354 293.265 141.974 293.265C142.6 293.265 142.913 293.436 142.913 293.78V302.165C142.913 302.509 142.6 302.68 141.974 302.68C141.354 302.68 141.044 302.509 141.044 302.165V301.613C140.369 302.331 139.449 302.69 138.283 302.69C137.056 302.69 136.046 302.3 135.255 301.521C134.47 300.735 134.077 299.747 134.077 298.557V293.78C134.077 293.436 134.39 293.265 135.016 293.265ZM152.651 302.69C152.031 302.69 151.721 302.518 151.721 302.174V297.406C151.721 296.688 151.525 295.992 151.132 295.317C150.739 294.642 150.119 294.305 149.273 294.305C148.365 294.305 147.696 294.673 147.266 295.409C146.837 296.139 146.622 296.888 146.622 297.655V302.174C146.622 302.518 146.312 302.69 145.692 302.69C145.066 302.69 144.754 302.518 144.754 302.174V293.789C144.754 293.446 145.066 293.274 145.692 293.274C146.312 293.274 146.622 293.446 146.622 293.789V294.341C147.297 293.624 148.217 293.265 149.383 293.265C150.61 293.265 151.617 293.657 152.402 294.443C153.194 295.222 153.589 296.207 153.589 297.397V302.174C153.589 302.518 153.276 302.69 152.651 302.69ZM163.889 302.69C163.613 302.69 163.389 302.637 163.217 302.533C162.787 302.281 162.517 301.953 162.407 301.548C162.014 302.008 161.486 302.315 160.824 302.469C160.167 302.616 159.575 302.69 159.047 302.69C158.207 302.69 157.354 302.49 156.489 302.091C155.63 301.686 155.2 300.993 155.2 300.011C155.2 298.894 155.624 298.186 156.47 297.885C157.317 297.584 158.195 297.434 159.103 297.434C159.299 297.434 159.538 297.44 159.821 297.452C160.109 297.465 160.379 297.471 160.631 297.471C161.324 297.471 161.818 297.391 162.112 297.232V296.357C162.112 294.977 161.312 294.286 159.71 294.286C159.121 294.286 158.596 294.433 158.136 294.728C157.602 295.072 157.335 295.483 157.335 295.961C157.335 296.299 157.023 296.468 156.397 296.468C155.783 296.468 155.476 296.299 155.476 295.961C155.476 295.243 155.887 294.611 156.71 294.065C157.526 293.531 158.526 293.265 159.71 293.265C160.661 293.265 161.609 293.498 162.554 293.964C163.499 294.424 163.972 295.222 163.972 296.357V300.324C163.972 301.097 164.171 301.597 164.57 301.824C164.742 301.923 164.828 302.039 164.828 302.174C164.828 302.327 164.732 302.453 164.542 302.551C164.377 302.644 164.159 302.69 163.889 302.69ZM159.047 301.668C159.741 301.668 160.425 301.462 161.1 301.051C161.775 300.634 162.112 300.045 162.112 299.284V298.4C161.763 298.462 161.333 298.492 160.824 298.492C160.542 298.492 160.256 298.486 159.968 298.474C159.679 298.456 159.391 298.446 159.103 298.446C157.747 298.446 157.069 298.968 157.069 300.011C157.069 301.116 157.728 301.668 159.047 301.668ZM169.687 302.69C168.779 302.69 167.929 302.49 167.138 302.091C166.352 301.686 165.825 301.03 165.555 300.122C165.53 300.048 165.518 299.993 165.518 299.956C165.518 299.618 165.828 299.45 166.447 299.45C166.994 299.45 167.303 299.594 167.377 299.882C167.696 301.073 168.463 301.668 169.678 301.668C170.187 301.668 170.684 301.514 171.169 301.208C171.66 300.895 171.905 300.45 171.905 299.873C171.905 299.511 171.639 299.213 171.105 298.98C170.743 298.821 170.267 298.701 169.678 298.621C169.187 298.554 168.706 298.477 168.233 298.391C167.767 298.305 167.322 298.121 166.898 297.839C166.131 297.33 165.748 296.673 165.748 295.869C165.748 294.924 166.211 294.256 167.138 293.863C168.07 293.464 168.926 293.265 169.706 293.265C170.503 293.265 171.277 293.443 172.025 293.798C172.78 294.154 173.268 294.74 173.489 295.556C173.507 295.612 173.516 295.664 173.516 295.713C173.516 296.026 173.206 296.191 172.587 296.21C172.04 296.21 171.731 296.063 171.657 295.768C171.418 294.78 170.764 294.286 169.697 294.286C169.236 294.286 168.773 294.415 168.307 294.673C167.84 294.924 167.607 295.317 167.607 295.851C167.607 296.207 167.902 296.501 168.491 296.735C168.89 296.888 169.365 297.008 169.917 297.093C170.408 297.167 170.878 297.25 171.326 297.342C171.774 297.428 172.209 297.606 172.633 297.876C173.387 298.354 173.765 299.002 173.765 299.818C173.765 300.836 173.295 301.57 172.356 302.018C171.418 302.466 170.528 302.69 169.687 302.69ZM176.259 300.26C176.989 300.26 177.354 300.631 177.354 301.373C177.354 302.104 176.989 302.469 176.259 302.469C175.517 302.469 175.145 302.104 175.145 301.373C175.145 300.631 175.517 300.26 176.259 300.26Z" fill="#9C9C9C"/>
<path d="M18.9994 215.087C18.8673 215.492 18.3873 215.695 17.5593 215.695C16.7401 215.695 16.2777 215.492 16.172 215.087L12.6575 201.782L9.20905 215.074C9.09454 215.488 8.61889 215.695 7.78211 215.695C6.99817 215.721 6.53574 215.532 6.39481 215.127L0.343523 197.99L0.317098 197.858C0.229015 197.373 0.700258 197.131 1.73083 197.131C2.50595 197.131 2.96839 197.338 3.11813 197.752L8.00672 211.638L11.6137 197.726C11.7106 197.329 12.1862 197.131 13.0406 197.131C13.851 197.131 14.3134 197.343 14.428 197.765L18.0746 211.638L22.9367 197.567C23.0336 197.277 23.3639 197.131 23.9277 197.131C24.6411 197.131 24.9979 197.303 24.9979 197.647C24.9979 197.691 24.9935 197.726 24.9847 197.752L18.9994 215.087ZM36.6644 215.695C36.2681 215.695 35.9466 215.62 35.6999 215.47C35.0834 215.109 34.6958 214.638 34.5372 214.056C33.9735 214.717 33.216 215.157 32.2647 215.378C31.3222 215.589 30.4722 215.695 29.7147 215.695C28.508 215.695 27.2836 215.408 26.0417 214.836C24.8085 214.255 24.1919 213.259 24.1919 211.85C24.1919 210.247 24.7997 209.229 26.0152 208.798C27.2308 208.366 28.4904 208.15 29.794 208.15C30.0758 208.15 30.4194 208.159 30.8246 208.177C31.2385 208.194 31.6261 208.203 31.9872 208.203C32.9826 208.203 33.6916 208.089 34.1144 207.86V206.605C34.1144 204.623 32.965 203.632 30.666 203.632C29.8204 203.632 29.0673 203.843 28.4067 204.266C27.6404 204.759 27.2572 205.349 27.2572 206.036C27.2572 206.521 26.808 206.763 25.9095 206.763C25.0287 206.763 24.5883 206.521 24.5883 206.036C24.5883 205.006 25.1784 204.099 26.3588 203.315C27.5303 202.548 28.966 202.165 30.666 202.165C32.0313 202.165 33.3922 202.5 34.7486 203.169C36.1051 203.83 36.7833 204.975 36.7833 206.605V212.299C36.7833 213.409 37.0696 214.127 37.6422 214.453C37.8888 214.594 38.0121 214.761 38.0121 214.955C38.0121 215.175 37.8756 215.356 37.6025 215.496C37.3647 215.629 37.052 215.695 36.6644 215.695ZM29.7147 214.228C30.71 214.228 31.6922 213.933 32.6611 213.343C33.63 212.744 34.1144 211.898 34.1144 210.806V209.538C33.6124 209.626 32.9958 209.67 32.2647 209.67C31.8595 209.67 31.4499 209.661 31.0359 209.643C30.622 209.617 30.208 209.604 29.794 209.604C27.8474 209.604 26.874 210.352 26.874 211.85C26.874 213.435 27.8209 214.228 29.7147 214.228ZM41.0113 215.695C40.1129 215.695 39.6637 215.448 39.6637 214.955V202.905C39.6637 202.412 40.1129 202.165 41.0113 202.165C41.901 202.165 42.3458 202.412 42.3458 202.905V203.711C43.0769 202.68 44.1427 202.165 45.5432 202.165C46.609 202.165 47.5294 202.416 48.3046 202.918C48.5248 203.059 48.6349 203.227 48.6349 203.42C48.6349 203.667 48.4939 203.883 48.2121 204.068C47.9654 204.235 47.6924 204.319 47.3929 204.319C47.111 204.319 46.8688 204.244 46.6662 204.094C46.2522 203.768 45.7898 203.605 45.2789 203.605C44.2572 203.605 43.4864 204.143 42.9668 205.217C42.5528 206.054 42.3458 207.181 42.3458 208.6V214.955C42.3458 215.448 41.901 215.695 41.0113 215.695ZM51.6341 215.695C50.7356 215.695 50.2864 215.448 50.2864 214.955V202.905C50.2864 202.412 50.7356 202.165 51.6341 202.165C52.5237 202.165 52.9685 202.412 52.9685 202.905V203.711C53.6996 202.68 54.7654 202.165 56.1659 202.165C57.2318 202.165 58.1522 202.416 58.9273 202.918C59.1476 203.059 59.2577 203.227 59.2577 203.42C59.2577 203.667 59.1167 203.883 58.8349 204.068C58.5882 204.235 58.3152 204.319 58.0157 204.319C57.7338 204.319 57.4916 204.244 57.289 204.094C56.875 203.768 56.4126 203.605 55.9017 203.605C54.8799 203.605 54.1092 204.143 53.5895 205.217C53.1755 206.054 52.9685 207.181 52.9685 208.6V214.955C52.9685 215.448 52.5237 215.695 51.6341 215.695ZM72.3908 215.695C71.9944 215.695 71.6729 215.62 71.4263 215.47C70.8097 215.109 70.4221 214.638 70.2636 214.056C69.6999 214.717 68.9424 215.157 67.9911 215.378C67.0486 215.589 66.1986 215.695 65.4411 215.695C64.2343 215.695 63.01 215.408 61.768 214.836C60.5349 214.255 59.9183 213.259 59.9183 211.85C59.9183 210.247 60.526 209.229 61.7416 208.798C62.9571 208.366 64.2167 208.15 65.5203 208.15C65.8022 208.15 66.1457 208.159 66.5509 208.177C66.9649 208.194 67.3525 208.203 67.7136 208.203C68.7089 208.203 69.418 208.089 69.8408 207.86V206.605C69.8408 204.623 68.6913 203.632 66.3924 203.632C65.5468 203.632 64.7937 203.843 64.133 204.266C63.3667 204.759 62.9836 205.349 62.9836 206.036C62.9836 206.521 62.5343 206.763 61.6359 206.763C60.7551 206.763 60.3146 206.521 60.3146 206.036C60.3146 205.006 60.9048 204.099 62.0851 203.315C63.2566 202.548 64.6924 202.165 66.3924 202.165C67.7576 202.165 69.1185 202.5 70.475 203.169C71.8315 203.83 72.5097 204.975 72.5097 206.605V212.299C72.5097 213.409 72.796 214.127 73.3685 214.453C73.6151 214.594 73.7385 214.761 73.7385 214.955C73.7385 215.175 73.6019 215.356 73.3289 215.496C73.091 215.629 72.7784 215.695 72.3908 215.695ZM65.4411 214.228C66.4364 214.228 67.4185 213.933 68.3874 213.343C69.3563 212.744 69.8408 211.898 69.8408 210.806V209.538C69.3387 209.626 68.7221 209.67 67.9911 209.67C67.5859 209.67 67.1763 209.661 66.7623 209.643C66.3483 209.617 65.9343 209.604 65.5203 209.604C63.5737 209.604 62.6004 210.352 62.6004 211.85C62.6004 213.435 63.5473 214.228 65.4411 214.228ZM86.7263 215.695C85.8366 215.695 85.3918 215.448 85.3918 214.955V208.111C85.3918 207.08 85.1099 206.08 84.5462 205.112C83.9825 204.143 83.0928 203.658 81.8773 203.658C80.5737 203.658 79.6136 204.187 78.997 205.244C78.3804 206.292 78.0721 207.366 78.0721 208.467V214.955C78.0721 215.448 77.6273 215.695 76.7377 215.695C75.8392 215.695 75.39 215.448 75.39 214.955V202.918C75.39 202.425 75.8392 202.178 76.7377 202.178C77.6273 202.178 78.0721 202.425 78.0721 202.918V203.711C79.041 202.68 80.3623 202.165 82.0358 202.165C83.7975 202.165 85.2421 202.729 86.3695 203.856C87.5058 204.975 88.0739 206.389 88.0739 208.098V214.955C88.0739 215.448 87.6247 215.695 86.7263 215.695ZM96.9791 215.695C94.0107 215.677 92.5265 214.462 92.5265 212.048V203.645H91.0467C90.1571 203.645 89.7123 203.398 89.7123 202.905C89.7123 202.412 90.1571 202.165 91.0467 202.165H92.5265V197.871C92.5265 197.378 92.9757 197.131 93.8742 197.131C94.7726 197.131 95.2218 197.378 95.2218 197.871V202.165H97.4415C98.34 202.165 98.7892 202.412 98.7892 202.905C98.7892 203.398 98.34 203.645 97.4415 203.645H95.2218V212.048C95.2218 213.493 95.812 214.215 96.9923 214.215C97.2389 214.215 97.4723 214.193 97.6925 214.149C97.9216 214.096 98.1506 214.07 98.3796 214.07C99.3045 214.07 99.7669 214.325 99.7669 214.836C99.7669 215.179 99.397 215.417 98.6571 215.549C98.0757 215.646 97.5164 215.695 96.9791 215.695ZM114.102 214.942C114.102 216.932 113.455 218.381 112.16 219.288C110.874 220.204 109.315 220.663 107.483 220.663C106.426 220.663 105.321 220.482 104.167 220.121C103.022 219.76 102.136 219.13 101.511 218.231C101.449 218.143 101.418 218.055 101.418 217.967C101.418 217.483 101.863 217.241 102.753 217.241C103.378 217.241 103.797 217.395 104.008 217.703C104.686 218.689 105.836 219.183 107.457 219.183C110.099 219.183 111.42 217.721 111.42 214.796V214.083C110.557 215.113 109.337 215.629 107.76 215.629C103.532 215.629 101.418 213.647 101.418 209.683V202.839C101.418 202.346 101.868 202.099 102.766 202.099C103.656 202.099 104.101 202.346 104.101 202.839V209.683C104.101 210.749 104.404 211.762 105.012 212.722C105.62 213.682 106.536 214.162 107.76 214.162C108.941 214.162 109.844 213.682 110.469 212.722C111.103 211.762 111.42 210.762 111.42 209.723V202.839C111.42 202.346 111.865 202.099 112.755 202.099C113.653 202.099 114.102 202.346 114.102 202.839V214.942ZM132.111 214.215C133.547 214.215 134.824 213.818 135.942 213.026C137.361 212.039 138.07 210.995 138.07 209.894V207.675H132.177C131.278 207.675 130.829 207.428 130.829 206.935C130.829 206.442 131.278 206.195 132.177 206.195H139.404C140.294 206.195 140.739 206.442 140.739 206.935V209.894C140.739 210.608 140.43 211.361 139.814 212.154C139.197 212.946 138.607 213.541 138.043 213.937C136.352 215.109 134.375 215.695 132.111 215.695C129.301 215.695 127.029 214.867 125.293 213.211C123.558 211.546 122.69 209.291 122.69 206.446C122.69 203.574 123.58 201.306 125.359 199.642C127.147 197.968 129.455 197.131 132.283 197.131C134 197.131 135.718 197.563 137.435 198.426C139.162 199.289 140.228 200.615 140.633 202.403C140.686 202.597 140.712 202.769 140.712 202.918C140.712 203.403 140.267 203.645 139.378 203.645C138.55 203.645 138.101 203.416 138.03 202.958C137.836 201.593 137.162 200.527 136.009 199.76C134.855 198.994 133.621 198.611 132.309 198.611C130.072 198.611 128.354 199.395 127.156 200.963C125.958 202.531 125.359 204.358 125.359 206.446C125.359 208.489 125.932 210.295 127.077 211.863C128.231 213.431 129.909 214.215 132.111 214.215ZM144.412 202.165C145.301 202.165 145.746 202.412 145.746 202.905V209.749C145.746 210.78 146.028 211.779 146.592 212.748C147.155 213.717 148.045 214.202 149.261 214.202C150.564 214.202 151.524 213.678 152.141 212.629C152.757 211.572 153.066 210.493 153.066 209.392V202.905C153.066 202.412 153.511 202.165 154.4 202.165C155.299 202.165 155.748 202.412 155.748 202.905V214.942C155.748 215.435 155.299 215.681 154.4 215.681C153.511 215.681 153.066 215.435 153.066 214.942V214.149C152.097 215.179 150.776 215.695 149.102 215.695C147.34 215.695 145.891 215.135 144.755 214.017C143.628 212.889 143.064 211.471 143.064 209.762V202.905C143.064 202.412 143.513 202.165 144.412 202.165ZM170.533 215.695C170.136 215.695 169.815 215.62 169.568 215.47C168.951 215.109 168.564 214.638 168.405 214.056C167.842 214.717 167.084 215.157 166.133 215.378C165.19 215.589 164.34 215.695 163.583 215.695C162.376 215.695 161.152 215.408 159.91 214.836C158.677 214.255 158.06 213.259 158.06 211.85C158.06 210.247 158.668 209.229 159.883 208.798C161.099 208.366 162.358 208.15 163.662 208.15C163.944 208.15 164.288 208.159 164.693 208.177C165.107 208.194 165.494 208.203 165.855 208.203C166.851 208.203 167.56 208.089 167.983 207.86V206.605C167.983 204.623 166.833 203.632 164.534 203.632C163.689 203.632 162.935 203.843 162.275 204.266C161.508 204.759 161.125 205.349 161.125 206.036C161.125 206.521 160.676 206.763 159.778 206.763C158.897 206.763 158.456 206.521 158.456 206.036C158.456 205.006 159.047 204.099 160.227 203.315C161.398 202.548 162.834 202.165 164.534 202.165C165.899 202.165 167.26 202.5 168.617 203.169C169.973 203.83 170.651 204.975 170.651 206.605V212.299C170.651 213.409 170.938 214.127 171.51 214.453C171.757 214.594 171.88 214.761 171.88 214.955C171.88 215.175 171.744 215.356 171.471 215.496C171.233 215.629 170.92 215.695 170.533 215.695ZM163.583 214.228C164.578 214.228 165.56 213.933 166.529 213.343C167.498 212.744 167.983 211.898 167.983 210.806V209.538C167.481 209.626 166.864 209.67 166.133 209.67C165.728 209.67 165.318 209.661 164.904 209.643C164.49 209.617 164.076 209.604 163.662 209.604C161.715 209.604 160.742 210.352 160.742 211.85C160.742 213.435 161.689 214.228 163.583 214.228ZM174.879 215.695C173.981 215.695 173.532 215.448 173.532 214.955V202.905C173.532 202.412 173.981 202.165 174.879 202.165C175.769 202.165 176.214 202.412 176.214 202.905V203.711C176.945 202.68 178.011 202.165 179.411 202.165C180.477 202.165 181.398 202.416 182.173 202.918C182.393 203.059 182.503 203.227 182.503 203.42C182.503 203.667 182.362 203.883 182.08 204.068C181.834 204.235 181.561 204.319 181.261 204.319C180.979 204.319 180.737 204.244 180.534 204.094C180.12 203.768 179.658 203.605 179.147 203.605C178.125 203.605 177.355 204.143 176.835 205.217C176.421 206.054 176.214 207.181 176.214 208.6V214.955C176.214 215.448 175.769 215.695 174.879 215.695ZM195.636 215.695C195.24 215.695 194.918 215.62 194.672 215.47C194.055 215.109 193.667 214.638 193.509 214.056C192.945 214.717 192.188 215.157 191.236 215.378C190.294 215.589 189.444 215.695 188.686 215.695C187.48 215.695 186.255 215.408 185.013 214.836C183.78 214.255 183.164 213.259 183.164 211.85C183.164 210.247 183.771 209.229 184.987 208.798C186.202 208.366 187.462 208.15 188.766 208.15C189.048 208.15 189.391 208.159 189.796 208.177C190.21 208.194 190.598 208.203 190.959 208.203C191.954 208.203 192.663 208.089 193.086 207.86V206.605C193.086 204.623 191.937 203.632 189.638 203.632C188.792 203.632 188.039 203.843 187.378 204.266C186.612 204.759 186.229 205.349 186.229 206.036C186.229 206.521 185.78 206.763 184.881 206.763C184 206.763 183.56 206.521 183.56 206.036C183.56 205.006 184.15 204.099 185.33 203.315C186.502 202.548 187.938 202.165 189.638 202.165C191.003 202.165 192.364 202.5 193.72 203.169C195.077 203.83 195.755 204.975 195.755 206.605V212.299C195.755 213.409 196.041 214.127 196.614 214.453C196.86 214.594 196.984 214.761 196.984 214.955C196.984 215.175 196.847 215.356 196.574 215.496C196.336 215.629 196.024 215.695 195.636 215.695ZM188.686 214.228C189.682 214.228 190.664 213.933 191.633 213.343C192.602 212.744 193.086 211.898 193.086 210.806V209.538C192.584 209.626 191.967 209.67 191.236 209.67C190.831 209.67 190.422 209.661 190.008 209.643C189.594 209.617 189.18 209.604 188.766 209.604C186.819 209.604 185.846 210.352 185.846 211.85C185.846 213.435 186.793 214.228 188.686 214.228ZM209.972 215.695C209.082 215.695 208.637 215.448 208.637 214.955V208.111C208.637 207.08 208.355 206.08 207.792 205.112C207.228 204.143 206.338 203.658 205.123 203.658C203.819 203.658 202.859 204.187 202.242 205.244C201.626 206.292 201.317 207.366 201.317 208.467V214.955C201.317 215.448 200.873 215.695 199.983 215.695C199.085 215.695 198.635 215.448 198.635 214.955V202.918C198.635 202.425 199.085 202.178 199.983 202.178C200.873 202.178 201.317 202.425 201.317 202.918V203.711C202.286 202.68 203.608 202.165 205.281 202.165C207.043 202.165 208.487 202.729 209.615 203.856C210.751 204.975 211.319 206.389 211.319 208.098V214.955C211.319 215.448 210.87 215.695 209.972 215.695ZM220.224 215.695C217.256 215.677 215.772 214.462 215.772 212.048V203.645H214.292C213.402 203.645 212.958 203.398 212.958 202.905C212.958 202.412 213.402 202.165 214.292 202.165H215.772V197.871C215.772 197.378 216.221 197.131 217.12 197.131C218.018 197.131 218.467 197.378 218.467 197.871V202.165H220.687C221.585 202.165 222.035 202.412 222.035 202.905C222.035 203.398 221.585 203.645 220.687 203.645H218.467V212.048C218.467 213.493 219.057 214.215 220.238 214.215C220.484 214.215 220.718 214.193 220.938 214.149C221.167 214.096 221.396 214.07 221.625 214.07C222.55 214.07 223.012 214.325 223.012 214.836C223.012 215.179 222.642 215.417 221.902 215.549C221.321 215.646 220.762 215.695 220.224 215.695ZM230.464 215.695C228.465 215.695 226.778 215.1 225.404 213.911C224.03 212.713 223.343 211.079 223.343 209.009C223.343 206.904 224.038 205.239 225.43 204.015C226.831 202.782 228.548 202.165 230.583 202.165C232.521 202.165 234.19 202.676 235.59 203.698C236.991 204.711 237.691 206.23 237.691 208.256C237.691 208.82 237.246 209.102 236.357 209.102H226.011C226.029 210.405 226.425 211.586 227.201 212.643C227.976 213.7 229.068 214.228 230.477 214.228C231.49 214.228 232.428 213.955 233.291 213.409C234.199 212.828 234.692 212.141 234.771 211.348C234.815 210.89 235.251 210.661 236.079 210.661C236.987 210.661 237.44 210.903 237.44 211.387C237.44 211.634 237.365 211.934 237.216 212.286C236.89 213.061 236.269 213.748 235.353 214.347C233.979 215.245 232.349 215.695 230.464 215.695ZM234.983 207.635C234.701 204.966 233.234 203.632 230.583 203.632C228.222 203.632 226.751 204.966 226.17 207.635H234.983ZM246.134 215.695C244.134 215.695 242.448 215.1 241.074 213.911C239.7 212.713 239.012 211.079 239.012 209.009C239.012 206.904 239.708 205.239 241.1 204.015C242.501 202.782 244.218 202.165 246.253 202.165C248.191 202.165 249.86 202.676 251.26 203.698C252.661 204.711 253.361 206.23 253.361 208.256C253.361 208.82 252.916 209.102 252.027 209.102H241.681C241.699 210.405 242.095 211.586 242.87 212.643C243.646 213.7 244.738 214.228 246.147 214.228C247.16 214.228 248.098 213.955 248.961 213.409C249.869 212.828 250.362 212.141 250.441 211.348C250.485 210.89 250.921 210.661 251.749 210.661C252.656 210.661 253.11 210.903 253.11 211.387C253.11 211.634 253.035 211.934 252.886 212.286C252.56 213.061 251.939 213.748 251.023 214.347C249.648 215.245 248.019 215.695 246.134 215.695ZM250.653 207.635C250.371 204.966 248.904 203.632 246.253 203.632C243.892 203.632 242.421 204.966 241.84 207.635H250.653Z" fill="white"/>
<g clip-path="url(#clip0_1_42288)">
<path d="M163.862 125.879C164.593 126.034 164.996 126.12 165.4 126.207C169.945 127.171 174.498 128.1 179.03 129.115C180.956 129.546 181.357 130.277 181.045 132.231C180.837 133.526 180.599 134.812 180.398 136.107C180.096 138.071 180.139 137.969 181.979 138.553C185.88 139.794 189.78 141.055 193.61 142.497C196.287 143.504 196.333 144.593 194.15 146.377C191.569 148.489 189.07 150.704 186.504 152.838C185.659 153.541 185.588 154.247 185.903 155.277C187.022 158.952 188.067 162.655 189.055 166.367C189.714 168.847 188.775 169.766 186.4 168.959C178.553 166.291 170.468 164.812 162.25 163.934C158.784 163.563 158.494 163.155 158.91 159.663C159.05 158.488 159.119 157.302 159.317 156.138C159.497 155.087 159.098 154.691 158.081 154.595C153.749 154.183 149.424 153.661 145.09 153.298C129.147 151.965 113.255 152.676 97.3967 154.597C96.1634 154.747 95.8233 155.176 96.0111 156.366C96.2471 157.866 96.3359 159.388 96.4577 160.906C96.6481 163.309 96.374 163.558 94.024 163.911C89.0981 164.654 84.1519 165.324 79.2743 166.314C75.932 166.992 72.6862 168.149 69.4022 169.106C67.0548 169.791 66.0193 168.875 66.6436 166.482C67.6283 162.723 68.6891 158.982 69.8261 155.267C70.1382 154.247 69.9682 153.625 69.1764 152.975C66.532 150.806 63.9485 148.562 61.2914 146.408C59.4744 144.933 59.5226 143.608 61.7051 142.791C65.697 141.299 69.7398 139.936 73.7926 138.612C74.8001 138.282 75.1427 137.911 74.9017 136.835C74.5591 135.315 74.389 133.752 74.1606 132.206C73.9246 130.602 74.3002 129.846 75.8863 129.486C81.4035 128.24 86.9435 127.087 92.4759 125.902C92.9987 125.791 93.5266 125.712 94.2803 125.575C93.9301 125.115 93.7448 124.808 93.4987 124.56C84.0936 115.144 78.5891 103.58 74.9651 90.9795C70.9275 76.9455 69.5976 62.5282 68.9708 48.0221C68.7551 43.0024 68.7373 37.9674 68.8338 32.9425C68.9251 28.141 69.618 27.471 74.285 26.3772C81.3172 24.7277 88.4281 23.3471 95.3589 21.3372C107.411 17.8426 117.438 10.9398 126.074 1.93566C126.482 1.50931 126.863 1.04489 127.322 0.679447C128.754 -0.462564 130.294 -0.142801 131.939 1.36719C135.263 4.42017 138.499 7.5975 142.047 10.3739C151.119 17.467 161.58 21.5046 172.79 23.7836C177.302 24.7023 181.789 25.7479 186.301 26.6792C188.166 27.065 189.159 28.2146 189.514 29.9885C189.669 30.7702 189.73 31.5823 189.74 32.3817C189.993 50.1387 188.905 67.784 185.09 85.1756C182.56 96.72 178.294 107.569 171.295 117.187C169.389 119.806 167.118 122.164 165.009 124.636C164.717 124.978 164.397 125.298 163.857 125.877L163.862 125.879ZM123.622 126.288C119.737 126.511 112.811 126.796 105.906 127.334C96.6658 128.054 87.5399 129.562 78.5485 131.838C77.7465 132.041 77.173 132.224 77.3557 133.323C78.4495 139.992 79.4875 146.672 80.5102 153.354C80.6549 154.305 81.0178 154.496 81.9491 154.288C90.5396 152.369 99.2341 151.136 108.002 150.402C129.911 148.57 151.652 149.615 173.191 154.153C174.285 154.384 174.589 154.046 174.739 153.047C175.655 146.905 176.609 140.769 177.558 134.63C177.854 132.715 177.042 131.54 175.122 131.107C159.169 127.488 142.976 126.283 123.622 126.285V126.288ZM160.499 69.4513C159.114 70.8065 157.862 71.9231 156.751 73.1641C156.317 73.6463 156.035 74.3899 155.959 75.0446C155.756 76.8033 155.959 78.6432 155.53 80.3334C154.781 83.295 154.721 86.2592 154.766 89.264C154.812 92.2306 154.117 95.0704 152.835 97.7047C151.432 100.588 149.83 103.379 148.211 106.148C146.28 109.455 143.605 112.048 139.943 113.297C136.796 114.368 133.581 115.429 130.309 115.878C127.558 116.256 124.597 116.155 121.887 115.553C115.215 114.076 110.352 109.739 106.355 104.445C105.193 102.905 104.429 100.971 103.85 99.1056C103.114 96.7352 102.64 94.266 102.262 91.8094C101.833 89.0254 101.056 86.65 98.4854 84.9522C96.78 83.828 96.9983 81.8739 98.5793 80.5212C99.5082 79.7269 100.577 79.0823 101.452 78.2372C102.013 77.6967 102.482 76.9658 102.744 76.2298C103.635 73.7326 104.064 71.0045 105.317 68.7205C107.424 64.8731 110.367 61.777 114.555 59.8559C118.6 57.9982 122.227 55.2625 126.787 54.5215C131.855 53.6967 136.852 53.1028 141.57 55.8995C141.831 56.0543 142.412 56.0695 142.592 55.8919C143.516 54.9909 144.356 54.0037 145.25 53.0216C145.024 52.7831 144.932 52.6333 144.798 52.5547C144.508 52.3846 144.206 52.2273 143.894 52.1029C140.098 50.5752 136.083 50.263 132.071 50.2732C125.972 50.2909 120.13 51.6614 114.392 53.7525C109.134 55.6711 105.183 58.9575 102.866 63.9621C101.026 67.9363 99.6503 72.1236 98.0489 76.212C96.1481 81.0669 95.7142 85.9623 96.9552 91.1064C99.1986 100.413 103.137 108.772 109.753 115.781C111.197 117.312 112.834 118.517 114.809 119.281C121.102 121.72 127.571 123.113 134.365 122.816C136.773 122.712 139.093 122.286 141.212 121.177C151.264 115.918 157.38 107.924 158.005 96.3292C158.253 91.7282 159.301 87.3124 160.499 82.9169C161.552 79.0544 161.816 75.1893 161.08 71.2608C160.984 70.7456 160.758 70.2558 160.494 69.4488L160.499 69.4513ZM178.246 79.9832C178.36 79.9781 178.477 79.9705 178.591 79.9655C178.67 79.7345 178.787 79.5086 178.822 79.2726C179.576 74.2173 180.33 69.162 181.055 64.1042C181.119 63.6575 181.063 63.1677 180.949 62.7262C179.845 58.5236 178.685 54.3337 177.601 50.1234C176.919 47.4765 175.467 45.3651 173.376 43.6647C171.902 42.4669 170.417 41.2767 168.897 40.1347C163.476 36.0615 157.654 32.7344 150.96 31.2904C144.92 29.9885 138.793 29.3236 132.599 29.2475C124.224 29.1409 115.989 30.3819 107.804 31.8792C96.61 33.9297 88.4484 40.0839 84.1875 50.7782C82.3628 55.3539 81.406 60.2746 79.5814 64.8503C77.9775 68.8727 78.1957 72.7302 79.1931 76.7247C79.2235 76.8465 79.2286 76.9785 79.2717 77.0952C79.3758 77.3845 79.4951 77.6662 79.7083 78.2068C80.4417 76.8135 81.071 75.6791 81.6421 74.5168C82.5912 72.5881 83.789 70.7202 84.3677 68.6798C85.365 65.1599 86.0147 61.5385 86.7227 57.9424C87.5272 53.8616 89.093 50.093 92.1283 47.2583C94.8259 44.7382 97.8916 42.5938 100.879 40.4011C104.185 37.975 108.002 36.7797 112.022 36.1554C114.768 35.729 117.544 35.4169 120.247 34.7951C125.564 33.5719 130.825 32.3258 136.377 32.6278C144.016 33.0466 151.307 34.4424 157.743 38.8455C158.949 39.6702 159.905 39.858 161.266 39.0434C163.072 37.9623 164.778 39.084 164.839 41.1853C164.857 41.7741 164.831 42.373 164.74 42.9542C164.58 43.9566 164.874 44.7078 165.593 45.4539C167.438 47.3699 169.341 49.2631 170.937 51.3771C172.267 53.1384 173.437 55.1026 174.264 57.1455C176.718 63.2109 177.449 69.6417 177.865 76.1181C177.949 77.4099 178.119 78.694 178.251 79.9807L178.246 79.9832ZM118.179 123.41C118.207 123.286 118.237 123.161 118.265 123.034C117.45 122.755 116.643 122.458 115.821 122.2C112.268 121.085 109.317 119.129 106.84 116.309C100.186 108.739 96.3106 99.8567 94.2676 90.104C93.6154 86.9926 93.2576 83.8026 94.2854 80.7014C96.1456 75.0979 97.9373 69.4615 100.097 63.9697C102.193 58.6428 105.827 54.5418 111.263 52.306C113.722 51.2959 116.161 50.1793 118.704 49.4458C128 46.7659 137.283 45.9386 146.409 50.2224C146.762 50.3874 147.379 50.5625 147.577 50.3899C148.863 49.2784 150.069 48.0704 151.487 46.7152C150.503 46.2406 149.845 45.8802 149.155 45.5985C145.288 44.0175 141.214 43.3399 137.098 42.8171C129.716 41.8781 122.526 42.9516 115.41 44.827C114.108 45.1697 112.72 45.4031 111.57 46.0452C109.67 47.106 107.901 48.413 106.134 49.6971C105.01 50.5143 104.081 51.6233 102.906 52.3466C98.5946 55.0011 96.8156 59.2265 95.2624 63.754C93.3769 69.2509 91.3415 74.7147 89.0448 80.0492C86.9841 84.8304 86.6339 89.637 87.5907 94.6543C88.4561 99.1893 90.7604 103.105 92.9987 107.018C96.3156 112.82 101.158 117.436 105.442 122.484C106.556 123.796 107.954 124.25 109.738 124.032C112.535 123.692 115.364 123.603 118.181 123.41H118.179ZM77.2745 62.0207C77.3785 62.0283 77.4826 62.0359 77.5866 62.0435C77.7186 61.6704 77.8633 61.3025 77.9825 60.9269C79.0636 57.5034 79.9773 54.0164 81.2487 50.6665C84.8473 41.1752 91.3872 34.4804 100.957 31.0062C103.947 29.92 107.142 29.3135 110.291 28.7704C117.664 27.4989 125.064 26.4356 132.586 26.5523C141.468 26.6919 150.211 27.5319 158.54 30.9478C164.321 33.3207 169.272 36.9624 174.142 40.7691C177.442 43.3475 179.621 46.5807 180.515 50.6767C180.731 51.6664 180.969 52.6536 181.22 53.6358C181.294 53.92 181.449 54.1839 181.568 54.458C181.845 54.0469 181.926 53.684 181.941 53.3211C182.103 49.692 182.22 46.0579 182.428 42.4314C182.502 41.1371 182.134 40.1347 181.134 39.3149C178.101 36.8203 175.117 34.2673 172.041 31.8284C171.313 31.2523 170.338 30.8894 169.417 30.6737C163.111 29.184 156.845 27.5192 151.071 24.5322C148.328 23.1136 145.557 22.5223 142.549 22.6543C134.022 23.0273 125.488 23.2811 116.971 23.8242C113.327 24.0577 109.642 24.6033 106.114 25.5347C101.305 26.8061 96.6303 28.575 91.9024 30.1484C91.3466 30.3337 90.7655 30.5418 90.301 30.8818C84.7712 34.9169 80.0077 39.6499 77.0359 45.9285C76.602 46.8471 76.3152 47.946 76.3457 48.951C76.4573 52.5394 76.7238 56.1203 76.9573 59.7036C77.008 60.4777 77.1654 61.2466 77.2745 62.0156V62.0207ZM92.1892 111.076C92.009 110.762 91.8161 110.452 91.6537 110.127C89.6869 106.204 87.4536 102.384 85.8193 98.3264C83.152 91.7129 83.8271 85.1197 86.7278 78.6433C88.4002 74.9127 89.8417 71.073 91.2781 67.2409C92.4734 64.0509 93.4428 60.7771 94.6356 57.5846C95.6406 54.892 97.5972 52.9023 99.8203 51.1538C101.612 49.7478 103.325 48.2302 105.19 46.9309C107.081 45.6163 109.005 44.2408 111.114 43.3729C115.588 41.5254 120.354 40.731 125.155 40.2006C134.662 39.1551 143.866 40.1118 152.609 44.256C152.962 44.4235 153.541 44.6088 153.779 44.4438C154.936 43.6444 156.012 42.7308 157.329 41.6852C156.04 40.8935 155.058 40.2539 154.046 39.6702C147.303 35.7823 139.882 35.191 132.34 35.3052C130.743 35.3306 129.132 35.5311 127.566 35.8483C122.775 36.8228 118.06 38.1729 113.146 38.5232C108.528 38.8531 104.315 40.3148 100.706 43.3348C99.5742 44.2814 98.2875 45.0402 97.1277 45.9564C94.3818 48.1262 91.8186 50.5396 90.6716 53.9225C89.73 56.6989 89.1184 59.6072 88.5728 62.4978C87.951 65.7842 87.3496 69.0478 85.8015 72.0653C84.1824 75.2198 82.548 78.3743 81.0964 81.6074C80.6853 82.5236 80.5838 83.8128 80.8756 84.767C82.477 90.0126 84.0885 95.2633 86.0096 100.397C87.4536 104.26 89.6311 107.795 92.1993 111.066L92.1892 111.076ZM166.874 63.7007C165.948 64.5255 165.24 65.1828 164.504 65.8045C162.829 67.2231 162.814 67.2181 163.481 69.3194C164.747 73.3012 164.727 77.387 163.697 81.3257C162.268 86.7744 161.278 92.2459 160.641 97.8443C159.365 109.069 153.556 117.413 143.674 122.908C143.415 123.052 143.189 123.255 142.686 123.618C146.183 123.913 149.333 124.222 152.487 124.4C153.023 124.43 153.69 124.014 154.127 123.616C160.542 117.771 164.742 110.599 166.415 102.095C167.481 96.6743 168.364 91.1952 168.884 85.7009C169.318 81.1379 169.26 76.509 169.123 71.9181C169.039 69.1087 168.181 66.3806 166.872 63.6956L166.874 63.7007ZM153.137 77.5241C153.01 77.4759 152.886 77.4251 152.759 77.3769C151.876 78.2651 150.886 79.0772 150.147 80.072C149.582 80.8359 149.153 81.7977 148.978 82.7317C148.716 84.1351 148.759 85.5918 148.627 87.0205C148.3 90.5709 147.414 93.969 145.168 96.8012C142.993 99.5471 140.735 102.245 138.286 104.745C137.027 106.029 135.367 107.023 133.723 107.8C132.218 108.513 130.518 108.957 128.86 109.155C127.262 109.346 125.422 109.508 124.008 108.917C117.161 106.064 111.289 102.09 108.883 94.4766C108.226 92.3981 106.096 91.6165 104.536 90.3197C104.84 92.5961 105.312 94.7659 105.705 96.951C106.238 99.9126 107.525 102.471 109.639 104.602C110.68 105.651 111.74 106.681 112.819 107.691C117.829 112.381 123.759 114.246 130.525 113.236C132.895 112.883 135.238 112.264 137.555 111.619C141.415 110.546 144.239 108.105 146.211 104.658C147.343 102.679 148.422 100.669 149.533 98.6767C151.584 95.0045 152.406 91.081 152.213 86.8759C152.129 85.0461 152.442 83.1935 152.622 81.3562C152.749 80.072 152.959 78.7981 153.132 77.519L153.137 77.5241ZM164.854 48.852C164.27 50.9127 164.956 54.727 165.966 56.2751C169.432 61.5968 171.663 67.3475 172.049 73.7631C172.419 79.8741 171.671 85.8912 170.861 91.9236C170.062 97.8773 169.211 103.803 167.031 109.447C166.971 109.607 167.024 109.813 167.024 110.026C167.176 109.975 167.283 109.972 167.323 109.919C167.506 109.688 167.684 109.452 167.841 109.203C170.894 104.404 173.203 99.2527 175.043 93.8828C175.231 93.3321 175.277 92.7281 175.361 92.1444C176.396 84.8304 175.523 77.5622 174.685 70.3142C174.137 65.5761 173.234 60.8888 171.252 56.473C169.838 53.3287 167.237 51.2705 164.854 48.8495V48.852ZM185.535 165.106C185.464 164.7 185.428 164.248 185.306 163.825C184.41 160.741 183.517 157.658 182.573 154.59C182.208 153.399 182.403 152.465 183.383 151.653C184.228 150.953 184.981 150.148 185.804 149.417C187.501 147.91 189.217 146.423 191.245 144.646C187.25 143.355 183.535 142.154 179.731 140.923C179.576 141.611 179.484 141.931 179.434 142.258C178.748 146.727 178.007 151.189 177.421 155.671C177.221 157.206 176.546 157.977 175.097 158.396C172.785 159.066 170.516 159.886 168.234 160.655C167.917 160.761 167.623 160.944 167.242 161.129C173.417 162.472 179.413 163.776 185.535 165.106ZM88.1261 161.16C87.7531 160.985 87.5044 160.838 87.2354 160.744C84.8422 159.919 82.4567 159.071 80.0483 158.297C78.7058 157.866 77.9978 157.145 77.7998 155.64C77.2288 151.25 76.4802 146.882 75.8026 142.505C75.7011 141.842 75.6097 141.185 74.6504 141.512C71.4985 142.588 68.3414 143.659 65.1895 144.733C65.0296 144.786 64.8773 144.86 64.7428 144.915C67.3872 147.316 69.8311 149.57 72.3207 151.77C73.3028 152.638 73.5414 153.567 73.1531 154.813C72.2243 157.792 71.3741 160.797 70.5087 163.797C70.3742 164.259 70.3336 164.748 70.2473 165.238C76.2442 163.87 82.1014 162.535 88.1261 161.16ZM105.87 74.5752C107.484 73.6108 109.251 72.8545 110.129 71.1237C111.494 68.4362 113.654 66.6268 116.291 65.3376C118.907 64.056 121.506 62.716 124.211 61.6476C127.843 60.2112 131.591 59.4651 135.441 60.9522C137.804 61.8658 137.233 62.0257 138.989 60.0513C140.501 58.3535 140.448 57.9196 138.179 57.3816C133.132 56.1837 128.091 56.3461 123.27 58.3941C120.554 59.5463 117.999 61.069 115.326 62.3277C112.535 63.6423 110.281 65.5583 108.543 68.0759C107.198 70.0223 106.188 72.1287 105.87 74.5752ZM156.926 47.5958C156.672 47.6973 156.484 47.7176 156.375 47.8217C154.467 49.6083 152.541 51.3822 150.691 53.2297C150.424 53.4962 150.457 54.1332 150.475 54.5951C150.533 55.9756 150.873 57.379 150.711 58.7291C150.158 63.353 149.11 67.8678 147.143 72.1313C146.597 73.3139 146.15 74.5574 145.795 75.8111C145.554 76.6562 145.554 77.5723 145.447 78.4555C145.569 78.5011 145.691 78.5494 145.813 78.595C146.983 77.3515 148.12 76.075 149.333 74.8746C149.983 74.2326 150.206 73.5499 150.259 72.6413C150.35 71.0501 150.528 69.4437 150.894 67.8957C151.822 63.9595 153.68 60.4066 155.566 56.8562C156.482 55.1305 157.116 53.2246 157.644 51.334C157.992 50.0828 157.73 48.7606 156.923 47.5958H156.926ZM114.633 21.0961C123.884 20.6545 132.786 20.2281 141.689 19.8018C140.336 18.472 138.968 17.3503 137.481 16.424C136.71 15.9443 135.725 15.5611 134.837 15.5637C131.842 15.5713 128.845 15.9063 125.856 15.858C123.023 15.8124 120.559 16.424 118.45 18.406C117.661 19.147 116.638 19.6368 115.73 20.251C115.438 20.4489 115.169 20.6824 114.636 21.0961H114.633ZM146.204 84.9345C146.051 84.8456 145.899 84.7568 145.747 84.6655C144.859 85.9014 143.671 87.0205 143.148 88.396C142.019 91.3653 140.499 94.035 137.862 95.7887C133.944 98.395 131.19 102.07 128.236 105.582C128.008 105.854 127.85 106.183 127.449 106.815C128.452 106.625 129.099 106.534 129.731 106.376C130.589 106.161 131.421 105.823 132.289 105.661C133.979 105.343 135.372 104.567 136.484 103.262C138.646 100.727 140.831 98.2148 142.973 95.6643C145.59 92.5479 146.196 88.8249 146.204 84.9345ZM132.766 93.5655C133.611 92.5783 134.416 91.8144 134.987 90.9059C135.342 90.3374 135.512 89.5431 135.479 88.863C135.383 86.9317 135.022 85.0131 134.974 83.0819C134.878 79.3259 135.849 75.7349 136.882 72.1592C137.197 71.0704 137.372 69.9437 137.611 68.8346C137.453 68.7661 137.294 68.6976 137.136 68.6316C136.474 69.4666 135.842 70.3294 135.144 71.1339C133.769 72.7226 132.692 74.3696 132.83 76.6485C132.888 77.6104 132.38 78.6052 132.134 79.5873C131.769 81.0592 131.309 82.5185 131.063 84.0107C130.53 87.2642 131.015 90.3755 132.764 93.5681L132.766 93.5655ZM152.127 71.375C152.259 71.4181 152.391 71.4638 152.523 71.507C154.307 69.7812 156.099 68.0632 157.865 66.3172C158.088 66.0964 158.197 65.7385 158.304 65.4264C159.114 63.0738 159.954 60.7289 160.684 58.351C160.948 57.4958 161.06 56.5492 161.03 55.6533C160.915 52.3669 160.712 49.0829 160.542 45.799C160.525 45.4488 160.497 45.1011 160.469 44.69C158.484 45.7077 158.411 45.9082 159.048 47.6592C159.784 49.6869 159.768 51.7451 158.984 53.7347C158.337 55.3792 157.573 56.9882 156.741 58.5489C155.071 61.6882 153.472 64.8503 152.647 68.3347C152.411 69.3321 152.297 70.3599 152.127 71.3725V71.375ZM148.876 55.6584C148.729 55.6152 148.584 55.5746 148.437 55.5315C147.14 56.9501 145.821 58.3485 144.572 59.8052C144.402 60.0031 144.488 60.5386 144.615 60.8533C145.513 63.0865 145.427 65.3147 144.633 67.5353C144.009 69.2838 143.346 71.0197 142.666 72.7479C141.506 75.6918 140.879 78.727 141.001 81.8993C141.019 82.3383 141.11 82.7723 141.209 83.5361C142.359 82.3155 143.808 81.6582 143.734 80.0644C143.582 76.7577 144.46 73.7377 145.805 70.771C147.579 66.8552 148.561 62.7084 148.995 58.4424C149.089 57.5262 148.922 56.5847 148.876 55.6558V55.6584ZM142.955 61.5588C141.534 63.2616 140.346 64.6701 139.187 66.0989C139.042 66.2765 138.941 66.5938 138.991 66.8044C139.692 69.6011 138.57 72.1363 137.89 74.7325C136.865 78.6407 136.228 82.5819 136.758 86.6348C136.819 87.0941 136.971 87.5408 137.118 88.1423C138.712 86.7262 139.854 85.574 139.463 83.29C138.935 80.1913 139.423 77.0571 140.468 74.06C141.288 71.7074 142.153 69.3727 142.963 67.0176C143.534 65.3579 143.719 63.6753 142.958 61.5639L142.955 61.5588ZM135.824 63.8047C135.207 63.5611 134.842 63.3555 134.449 63.2693C131.84 62.7008 129.203 62.6018 126.726 63.6677C123.087 65.231 119.514 66.9465 115.948 68.6722C115.131 69.0681 114.456 69.7559 113.687 70.332C114.537 71.0324 115.116 71.5907 115.781 72.0145C116.037 72.1795 116.664 72.1922 116.826 72.0094C119.245 69.3194 122.574 68.2002 125.749 66.8704C127.893 65.972 130.155 65.3629 132.487 66.5278C132.812 66.6902 133.517 66.5151 133.801 66.2436C134.494 65.5837 135.04 64.7742 135.822 63.8073L135.824 63.8047ZM118.93 82.955C118.732 83.3001 118.615 83.4295 118.582 83.5767C118.511 83.9041 118.468 84.2416 118.44 84.5766C118.219 87.2642 119.136 89.7208 119.948 92.2129C120.717 94.568 121.724 96.9332 121.935 99.3543C122.115 101.417 123.503 102.225 124.429 103.592C126.122 101.95 126.13 101.925 125.292 99.9912C125.092 99.5268 124.876 99.0675 124.681 98.6005C123.259 95.2024 121.854 91.7459 121.897 88.023C121.925 85.5664 120.085 84.6528 118.927 82.955H118.93ZM119.745 98.7858C119.93 98.6665 120.118 98.5498 120.303 98.4305C120.143 97.7935 120.021 97.1413 119.816 96.5195C119.141 94.4766 118.397 92.4565 117.752 90.406C116.854 87.5509 116.428 84.6553 117.278 81.6912C117.354 81.4247 117.412 81.0339 117.278 80.8435C116.39 79.6 115.448 78.3971 114.524 77.1815L114.182 77.316C114.078 77.7906 113.865 78.2677 113.89 78.7346C113.991 80.6202 114.052 82.521 114.339 84.3838C114.834 87.589 115.481 90.7714 116.083 93.9589C116.159 94.3599 116.232 94.8294 116.478 95.1212C117.534 96.3723 118.653 97.5676 119.75 98.7807L119.745 98.7858ZM131.254 77.1079C131.106 77.047 130.962 76.9835 130.814 76.9226C129.69 78.7422 127.904 80.1735 127.518 82.4195C127.254 83.9498 127.216 85.5308 127.196 87.0916C127.155 90.1877 127.914 93.1189 129.299 95.8775C129.452 96.182 130.028 96.5728 130.249 96.4916C131.152 96.1642 131.492 94.9232 131.142 93.9589C130.609 92.4946 130.015 91.0379 129.67 89.5279C128.942 86.3531 129.416 83.2341 130.411 80.171C130.738 79.166 130.974 78.1306 131.254 77.1079ZM112.943 75.3086C110.746 75.6461 109.459 77.1815 109.695 79.1305C110.068 82.2266 110.553 85.3151 110.804 88.4214C110.979 90.5684 112.54 91.4109 114.149 92.7915C114.09 92.086 114.093 91.7282 114.027 91.3805C113.606 89.1421 113.189 86.9013 112.73 84.6705C112.144 81.8231 111.908 78.9909 112.842 76.1664C112.928 75.9075 112.91 75.6131 112.943 75.3137V75.3086ZM131.576 69.1087C131.538 68.9641 131.5 68.822 131.462 68.6773C130.688 68.6113 129.886 68.3855 129.147 68.52C128.084 68.7128 127.026 69.0707 126.043 69.5249C123.711 70.601 121.321 71.611 119.148 72.9586C117.306 74.1006 117.473 75.103 119.491 76.4684C120.478 74.5092 122.163 73.4154 124.257 72.923C125.488 72.6337 126.718 72.2328 127.967 72.1617C130.061 72.045 130.655 70.4335 131.581 69.1113L131.576 69.1087ZM84.492 31.836C84.0251 31.8919 83.619 31.9147 83.2256 31.9934C81.3248 32.3817 79.4316 32.8283 77.5232 33.1684C76.4573 33.3587 75.9904 33.9069 75.9853 34.955C75.9701 36.9802 75.9219 39.0053 75.9117 41.0305C75.9117 41.3325 76.031 41.6345 76.097 41.9466C78.9139 38.5561 81.6573 35.2519 84.4945 31.836H84.492ZM126.838 100.283C128.744 99.1081 128.952 98.5193 128.165 96.9916C126.406 93.5833 125.589 89.972 125.79 86.1374C125.818 85.6222 125.792 85.1045 125.792 84.5157C123.506 85.8938 122.874 87.7134 123.607 90.0405C123.734 90.4415 123.757 90.8729 123.886 91.2714C124.853 94.2533 125.833 97.2276 126.835 100.283H126.838ZM109.362 88.4036C108.944 84.937 108.568 81.8358 108.187 78.6864C105.99 79.4427 105.652 79.968 106.091 81.8587C106.414 83.2494 106.868 84.6096 107.147 86.008C107.37 87.1246 108.081 87.6956 109.362 88.4011V88.4036ZM122.709 81.4196C124.427 78.9884 125.858 76.9607 127.289 74.933C127.208 74.8213 127.13 74.7097 127.048 74.598C126.028 74.8975 125.018 75.2451 123.983 75.4888C122.46 75.8441 121.341 76.8211 121.252 78.26C121.194 79.1813 122.09 80.1609 122.709 81.4196ZM161.963 159.645C164.669 158.665 167.123 157.774 169.577 156.886C169.577 156.752 169.572 156.615 169.572 156.48C167.364 156.102 165.159 155.709 162.943 155.369C162.765 155.341 162.38 155.653 162.352 155.843C162.187 157.033 162.098 158.231 161.963 159.645ZM85.8269 156.539C85.8269 156.671 85.8294 156.802 85.832 156.934C88.2581 157.8 90.6842 158.665 93.3388 159.614C93.2347 158.267 93.1891 157.143 93.0292 156.036C92.9962 155.81 92.5038 155.45 92.2729 155.483C90.1183 155.792 87.9739 156.176 85.8269 156.539ZM132.695 13.036L132.827 12.6629C131.713 11.625 130.604 10.5794 129.469 9.56429C129.365 9.47293 129.005 9.49831 128.901 9.6049C127.774 10.7571 126.675 11.9371 125.64 13.036H132.695ZM177.736 32.5263C177.67 32.6583 177.604 32.7903 177.535 32.9197C179.071 34.2038 180.604 35.4854 182.139 36.7695C182.258 36.7137 182.378 36.6604 182.497 36.6046C182.497 35.7417 182.555 34.8713 182.464 34.0186C182.433 33.7419 182.055 33.341 181.774 33.2775C180.439 32.973 179.083 32.7674 177.733 32.5263H177.736ZM104.47 81.1608C103.617 81.8333 102.965 82.3484 102.158 82.988C103.307 83.8559 104.241 84.5614 105.178 85.2669C105.279 85.1933 105.378 85.1197 105.48 85.0436C105.165 83.8305 104.85 82.6175 104.472 81.1608H104.47ZM113.626 98.5142C113.601 98.5396 113.578 98.565 113.552 98.5904C114.697 99.7121 115.844 100.834 116.989 101.956C116.971 101.973 116.95 101.991 116.933 102.009C115.831 100.844 114.727 99.6791 113.626 98.5142ZM160.926 63.1094C162.486 62.3201 162.608 61.9674 161.672 61.107C161.433 61.7491 161.21 62.348 160.926 63.1094Z" fill="#E37422"/>
<path d="M125.511 138.115C126.067 139.191 126.501 140.254 127.138 141.175C127.528 141.741 128.209 142.388 128.807 142.442C129.229 142.477 129.927 141.652 130.163 141.076C131.178 138.574 132.074 136.021 133 133.483C133.223 132.874 133.381 132.306 134.249 132.326C135.175 132.349 135.322 132.973 135.51 133.638C136.045 135.549 136.568 137.462 137.131 139.366C137.54 140.741 137.596 142.299 139.113 143.104C138.428 143.65 136.215 143.865 135.72 143.431C135.588 143.315 135.649 142.678 135.794 142.601C136.774 142.079 136.309 141.289 136.05 140.734C135.863 140.333 135.238 140.069 134.754 139.891C134.378 139.754 133.903 139.767 133.5 139.85C132.901 139.972 132.063 140.041 131.797 140.444C131.31 141.178 131.023 142.162 132.132 142.807C132.173 142.83 132.15 142.964 132.173 143.236C131.845 143.287 131.508 143.375 131.168 143.383C129.955 143.408 128.731 143.502 127.533 143.365C127.013 143.307 126.407 142.85 126.089 142.398C125.64 141.754 125.463 140.926 125.092 140.218C124.843 139.744 124.547 139.163 124.115 138.95C123.597 138.693 122.882 138.653 122.316 138.782C122.108 138.83 121.991 139.635 121.978 140.099C121.945 141.168 121.783 142.34 123.227 142.741C123.303 142.761 123.311 143.035 123.445 143.563C122.207 143.563 121.1 143.584 119.999 143.543C119.816 143.535 119.572 143.297 119.489 143.106C119.44 142.995 119.61 142.657 119.748 142.612C120.687 142.294 120.547 141.528 120.532 140.822C120.491 138.795 120.483 136.767 120.352 134.744C120.321 134.275 119.852 133.833 119.575 133.384C119.453 133.186 119.308 133.003 119.177 132.813C119.395 132.661 119.613 132.379 119.834 132.377C121.435 132.349 123.047 132.29 124.64 132.41C125.902 132.503 126.884 133.146 127.16 134.519C127.437 135.889 127.117 137.028 125.889 137.823C125.716 137.934 125.567 138.077 125.513 138.117L125.511 138.115ZM121.864 135.49C122.161 136.117 121.115 137.63 123.072 137.566C124.851 137.508 125.76 136.828 125.77 135.445C125.78 134.11 124.892 133.508 123.156 133.417C121.544 133.333 121.826 134.374 121.867 135.49H121.864ZM134.053 133.798C133.482 135.518 132.992 136.998 132.431 138.688C133.53 138.736 134.452 138.777 135.53 138.825C135.124 137.226 134.776 135.848 134.416 134.473C134.378 134.326 134.271 134.196 134.051 133.795L134.053 133.798Z" fill="#E37422"/>
<path d="M91.2784 139.612C91.1388 141.749 91.0043 143.886 90.8596 146.023C90.819 146.629 90.9738 147.319 90.0501 147.492C89.1821 147.654 88.9537 147.071 88.6873 146.489C87.7026 144.337 86.7636 142.165 85.718 140.043C85.3881 139.371 84.8197 138.797 84.2994 138.237C83.8375 137.737 83.934 137.386 84.5126 137.201C85.0709 137.023 85.6673 136.935 86.2535 136.881C86.6418 136.846 87.0402 136.942 87.4361 136.98C87.2509 137.3 87.0352 137.607 86.888 137.942C86.7966 138.15 86.7078 138.445 86.7839 138.632C87.6671 140.764 88.5807 142.886 89.8014 144.985C89.8369 144.518 89.88 144.053 89.9105 143.586C90.0348 141.731 90.111 139.871 90.3089 138.026C90.3546 137.594 90.8139 137.209 91.083 136.803C91.4433 137.082 91.9458 137.285 92.1387 137.65C92.9838 139.257 93.735 140.911 94.5242 142.548C94.7196 142.954 94.9226 143.355 95.1231 143.759C95.2373 143.744 95.3515 143.726 95.4657 143.711C95.4657 142.736 95.4657 141.762 95.4657 140.787C95.4657 139.688 95.4607 138.589 95.4708 137.49C95.4759 136.871 95.4784 136.298 94.6359 136.196C94.4633 136.176 94.2577 135.884 94.1968 135.678C94.1664 135.574 94.4024 135.285 94.5547 135.25C95.4759 135.047 96.4073 134.892 97.4503 134.699C96.1433 138.264 96.8971 141.726 96.623 145.117C96.5874 145.553 96.2575 146.134 95.8895 146.34C95.1866 146.733 94.8719 146.119 94.5927 145.556C93.6081 143.558 92.6056 141.571 91.6108 139.582C91.4991 139.592 91.3875 139.599 91.2758 139.609L91.2784 139.612Z" fill="#E37422"/>
<path d="M147.321 141.358C147.511 139.307 147.732 137.259 147.866 135.206C147.887 134.887 147.549 134.519 147.323 134.211C147.146 133.97 146.884 133.788 146.661 133.58C146.709 133.425 146.755 133.267 146.803 133.113C148.046 133.237 149.29 133.361 150.533 133.488C150.561 133.597 150.589 133.709 150.615 133.818C148.13 135.526 149.326 138.234 148.727 140.454C148.468 141.419 148.549 142.47 148.389 143.467C148.333 143.812 148.019 144.117 147.821 144.439C147.399 144.17 146.778 144 146.592 143.617C145.453 141.264 144.415 138.861 143.341 136.475C143.176 136.107 142.999 135.747 142.555 135.422C142.372 137.663 142.174 139.904 142.037 142.15C142.022 142.396 142.354 142.675 142.552 142.921C142.735 143.15 142.951 143.355 143.151 143.568L142.986 143.995C141.745 143.875 140.504 143.759 139.266 143.639C139.207 143.49 139.146 143.34 139.088 143.193C141.07 142.619 140.71 141.041 140.847 139.68C140.984 138.295 141.111 136.909 141.23 135.521C141.298 134.737 141.507 133.909 140.547 133.427C140.479 133.392 140.565 132.691 140.72 132.62C141.517 132.268 143.08 132.968 143.466 133.79C144.524 136.044 145.57 138.302 146.625 140.556C146.762 140.85 146.927 141.13 147.077 141.416C147.158 141.396 147.239 141.376 147.318 141.355L147.321 141.358Z" fill="#E37422"/>
<path d="M115.212 138.538C115.882 139.581 116.443 140.515 117.073 141.401C117.375 141.825 117.816 142.145 118.174 142.53C118.359 142.728 118.501 142.969 118.661 143.19C118.402 143.358 118.083 143.716 117.892 143.657C117.309 143.482 116.611 143.277 116.253 142.84C115.644 142.102 115.327 141.13 114.756 140.353C114.433 139.914 113.895 139.495 113.38 139.366C112.144 139.056 111.814 139.422 111.863 140.701C111.908 141.909 111.695 143.233 113.565 143.416C112.406 144.436 110.084 144.573 109.208 143.705C110.873 143.294 110.436 142.041 110.365 140.939C110.251 139.168 110.096 137.402 109.969 135.63C109.924 134.978 109.896 134.361 109.035 134.211C108.85 134.178 108.723 133.8 108.568 133.58C108.797 133.43 109.015 133.163 109.254 133.146C110.769 133.029 112.289 132.874 113.807 132.91C115.431 132.945 116.39 133.673 116.697 134.914C117.045 136.313 116.753 137.513 115.466 138.343C115.362 138.412 115.266 138.493 115.21 138.536L115.212 138.538ZM111.444 135.96C111.554 137.488 111.956 138.231 112.652 138.188C114.464 138.079 115.464 137.224 115.347 135.881C115.228 134.483 114.327 133.96 112.472 134.034C110.83 134.1 111.53 135.242 111.444 135.96Z" fill="#E37422"/>
<path d="M108.987 144.373C108.025 144.535 106.942 144.728 105.853 144.865C105.825 144.868 105.576 144.061 105.673 143.995C106.69 143.312 106.01 142.561 105.647 142.035C105.406 141.685 104.696 141.596 104.178 141.523C103.777 141.467 103.315 141.543 102.935 141.693C102.407 141.901 101.661 142.127 101.491 142.543C101.237 143.17 100.788 144.144 102.013 144.533C102.039 144.54 101.975 145.294 101.798 145.38C101.399 145.576 100.902 145.626 100.442 145.634C99.9729 145.642 99.5034 145.525 99.0339 145.462C99.2395 145.139 99.4984 144.837 99.6405 144.49C99.8283 144.028 99.9704 143.535 100.059 143.043C100.519 140.467 100.917 137.879 101.435 135.315C101.526 134.859 102.006 134.333 102.44 134.13C103.16 133.795 103.574 134.351 103.876 134.975C104.813 136.914 105.724 138.866 106.731 140.767C107.335 141.911 108.099 142.969 108.985 144.373H108.987ZM104.927 140.315C104.137 138.673 103.452 137.244 102.767 135.815C102.666 135.841 102.567 135.866 102.465 135.891C102.234 137.432 102.006 138.972 101.742 140.734C102.874 140.584 103.787 140.465 104.927 140.315Z" fill="#E37422"/>
<path d="M156.934 145.66C155.338 145.449 154.046 145.289 152.762 145.086C152.65 145.068 152.475 144.7 152.528 144.589C152.617 144.398 152.858 144.162 153.046 144.152C153.896 144.104 154.031 143.538 154.13 142.866C154.442 140.739 154.817 138.62 155.076 136.488C155.124 136.082 154.858 135.354 154.563 135.247C153.891 135.006 153.033 134.813 152.655 135.826C152.566 136.062 152.551 136.359 152.394 136.529C152.226 136.711 151.904 136.909 151.706 136.864C151.523 136.821 151.272 136.45 151.295 136.247C151.366 135.58 151.467 134.892 151.719 134.28C151.825 134.021 152.358 133.747 152.655 133.788C154.952 134.1 157.243 134.46 159.522 134.877C159.888 134.943 160.456 135.361 160.469 135.638C160.502 136.412 160.304 137.196 160.154 137.968C160.142 138.026 159.69 138.11 159.611 138.023C159.434 137.831 159.274 137.546 159.261 137.29C159.225 136.577 159.17 135.978 158.284 135.767C156.888 135.435 156.695 135.524 156.477 136.952C156.183 138.869 155.901 140.787 155.589 142.701C155.447 143.571 155.307 144.391 156.426 144.741C156.561 144.784 156.617 145.068 156.931 145.655L156.934 145.66Z" fill="#E37422"/>
<path d="M161.466 135.222C162.598 135.46 163.702 135.691 164.804 135.925C164.634 136.359 164.461 136.793 164.291 137.226C164.167 137.206 164.04 137.186 163.915 137.163C164.276 138.526 164.636 139.891 165.08 141.576C166.007 140.338 166.831 139.399 167.443 138.335C167.654 137.968 167.336 137.295 167.215 136.442C168.303 136.671 169.364 136.894 170.458 137.122C169.001 138.744 167.694 140.163 166.433 141.624C166.027 142.097 165.59 142.632 165.431 143.208C165.085 144.464 164.223 145.845 166.035 146.885C165.956 147.01 165.875 147.134 165.796 147.258C164.649 147.063 163.497 146.878 162.36 146.634C162.304 146.621 162.243 145.972 162.393 145.819C162.682 145.523 163.362 145.439 163.446 145.142C163.718 144.183 164.101 143.091 163.882 142.188C163.342 139.972 163.02 137.622 161.428 135.79C161.39 135.747 161.436 135.63 161.466 135.214V135.222Z" fill="#E37422"/>
</g>
<defs>
<clipPath id="clip0_1_42288">
<rect width="135.709" height="169.327" fill="white" transform="translate(60)"/>
</clipPath>
</defs>
</svg>
