<svg width="167" height="165" viewBox="0 0 167 165" fill="none" xmlns="http://www.w3.org/2000/svg">
<g clip-path="url(#clip0_1_42264)">
<path d="M98.5542 164.719C89.6859 164.442 80.7816 164.573 71.9619 163.772C63.4552 162.998 54.9358 163.182 46.4419 162.566C38.7897 162.012 31.1332 161.485 23.481 160.925C22.5356 160.855 21.6029 160.639 20.6617 160.504C18.1258 160.136 16.2857 158.738 14.9173 156.64C14.784 156.437 14.6656 156.206 14.6127 155.971C13.9634 153.029 13.0412 150.161 13.056 147.069C13.1258 133.618 13.0793 120.164 13.0899 106.712C13.0962 96.5727 13.1364 86.4353 13.1279 76.2959C13.1279 75.1051 12.9651 73.9059 12.7811 72.7257C12.5569 71.2747 11.8547 71.0146 10.6893 71.8754C10.1542 72.2709 9.62543 72.6791 9.10513 73.0958C7.51463 74.3733 5.65763 74.3902 3.77736 74.1935C2.07687 74.0137 0.380613 71.9833 0.0675878 70.0628C-0.336384 67.5798 1.06377 66.1881 2.81713 64.8154C7.55058 61.1099 12.1994 57.2965 16.9033 53.5508C20.0927 51.0106 23.3414 48.5424 26.5267 45.998C30.2068 43.0581 33.8616 40.0864 37.4995 37.0958C41.057 34.1707 44.5954 31.2223 48.1127 28.2507C50.6635 26.0955 53.1169 23.8218 55.6994 21.7047C59.885 18.272 64.1278 14.9069 68.3705 11.5461C71.7863 8.8389 75.2127 6.14646 78.6856 3.51535C80.0477 2.48321 81.5197 1.58221 82.9939 0.708699C85.0159 -0.490526 87.0273 -0.0717487 88.7024 1.31148C92.3868 4.35079 95.957 7.52758 99.5567 10.6684C101.674 12.5148 103.772 14.3866 105.86 16.269C109.174 19.2576 112.42 22.3265 115.794 25.2473C119.719 28.6504 123.713 31.9795 127.75 35.2494C130.584 37.5442 133.526 39.71 136.454 41.8884C138.679 43.5445 140.99 45.0843 143.207 46.753C145.817 48.7158 148.456 50.6595 150.923 52.7936C155.757 56.975 160.518 61.2474 165.239 65.5599C167.115 67.2752 167.635 69.8831 165.618 72.4803C164.4 74.0476 160.975 74.5679 159.448 73.3052C157.75 71.8987 156.003 70.5535 154.277 69.1809C154.112 69.0497 153.968 68.889 153.797 68.7663C152.555 67.8844 152.145 68.0874 151.925 69.5933C151.204 74.5383 151.352 79.4896 151.639 84.4578C151.95 89.8342 152.143 95.2191 152.378 100.602C152.392 100.915 152.439 101.285 152.301 101.539C151.502 103.03 151.642 104.508 152.225 106.018C152.335 106.302 152.316 106.644 152.316 106.96C152.333 112.7 152.545 118.449 152.304 124.178C152.029 130.714 151.307 137.23 150.865 143.761C150.662 146.779 150.631 149.812 150.582 152.839C150.548 154.998 150.074 157.092 149.078 158.937C148.492 160.022 147.318 160.959 146.193 161.551C143.96 162.727 141.411 162.564 138.958 162.754C128.427 163.575 117.884 164.197 107.321 164.408C104.4 164.465 101.475 164.417 98.5521 164.417L98.5458 164.725L98.5542 164.719ZM23.443 100.308C23.443 100.308 23.4514 100.308 23.4578 100.308C23.4578 104.18 23.462 108.053 23.4578 111.926C23.4557 113.823 23.8765 115.534 24.8622 117.234C27.1083 121.116 29.1536 125.115 31.2432 129.085C32.6476 131.754 33.9822 134.461 36.0443 136.712C37.9965 138.844 40.1116 140.804 42.6729 142.179C44.4918 143.154 46.3678 144.045 48.2798 144.823C50.1263 145.576 52.0256 146.234 53.946 146.767C56.2789 147.416 58.671 147.856 61.0187 148.452C64.7961 149.411 68.5271 150.589 72.3405 151.371C76.7207 152.27 81.1877 151.741 85.6165 151.627C86.581 151.602 86.7671 151.052 86.7312 149.292C86.7121 148.419 86.3505 147.968 85.4664 147.979C83.565 148.002 81.6487 147.883 79.7642 148.08C75.3713 148.539 71.2132 147.492 67.1227 146.189C63.0808 144.903 59.1088 143.393 55.1304 141.913C52.6981 141.007 50.5979 139.489 48.7494 137.725C46.8014 135.868 45.084 133.77 43.282 131.763C41.6619 129.961 40.0143 128.18 38.4682 126.316C35.9788 123.319 33.7538 120.132 31.8904 116.701C31.4061 115.809 30.8519 114.952 30.3972 114.045C29.547 112.353 28.8088 110.6 27.9078 108.937C26.5753 106.48 25.9302 103.796 25.503 101.105C24.676 95.879 25.5432 90.8008 27.5313 85.9193C28.7221 82.9963 30.0376 80.1262 31.2199 77.199C32.1125 74.9888 33.0791 72.7785 33.6565 70.4774C34.5363 66.9664 35.5135 63.5337 37.0786 60.2406C38.354 57.5524 39.9487 55.1751 42.1631 53.2314C44.2232 51.4251 46.4588 49.8156 48.4469 47.9375C51.7654 44.8008 55.5788 42.4997 59.9316 41.3047C64.0241 40.1816 68.2309 39.4773 72.3976 38.6334C73.6708 38.3754 74.9716 38.1343 76.266 38.1025C80.3395 38.0031 84.4448 37.6859 88.4824 38.0623C92.3043 38.4177 96.215 38.6271 99.8951 39.9913C102.294 40.8817 104.783 41.586 107.069 42.7049C110.606 44.4371 113.808 46.6832 116.708 49.4159C121.714 54.1324 126.485 58.9103 129.21 65.4711C130.589 68.7917 131.726 72.1779 132.048 75.6402C132.507 80.5598 132.213 85.5512 132.215 90.5131C132.215 91.1772 132.088 91.8435 131.993 92.5055C131.352 96.9957 130.654 101.48 130.077 105.978C129.527 110.255 128.44 114.392 127.092 118.468C126.61 119.927 125.893 121.308 125.405 122.765C125.02 123.914 124.575 125.126 124.586 126.306C124.62 130.458 124.838 134.609 124.992 138.761C125.007 139.146 125.02 139.544 125.117 139.912C125.297 140.597 125.79 140.735 126.278 140.225C128.402 138.002 130.127 135.506 131.293 132.653C131.902 131.162 132.443 129.646 132.974 128.125C133.528 126.534 134.258 124.961 134.514 123.317C135.115 119.428 135.61 115.511 135.906 111.585C136.251 107.023 136.354 102.444 136.525 97.8692C136.631 95.0562 136.893 92.2263 136.686 89.4323C136.223 83.2268 135.582 77.0319 134.857 70.8496C134.571 68.4216 133.981 66.0104 133.317 63.65C132.845 61.9749 132.133 60.34 131.316 58.7982C130.487 57.233 129.561 55.6616 128.391 54.346C126.2 51.8799 123.835 49.5618 121.481 47.2437C116.934 42.7662 112.086 38.7307 106.221 35.9833C102.583 34.2807 98.7403 33.4072 94.8677 32.9693C90.6186 32.4892 86.2891 32.6838 81.9956 32.6923C80.3861 32.6944 78.7554 32.8826 77.1754 33.1956C74.4195 33.7392 71.6954 34.4414 68.9606 35.0844C67.5584 35.4143 66.173 35.8479 64.756 36.0848C61.7759 36.5839 58.7873 37.0514 55.7882 37.3961C54.4663 37.5484 53.5167 38.1808 52.5628 38.9845C49.3923 41.6537 46.2134 44.3186 42.9986 46.9349C40.0545 49.3313 37.0469 51.6472 34.0985 54.0351C33.5634 54.4687 32.9416 55.0059 32.7512 55.6171C31.901 58.3603 30.8329 61.1057 30.5072 63.9271C29.8558 69.5425 28.2187 74.7519 25.4713 79.6672C24.3038 81.7548 23.407 83.9586 23.4387 86.4565C23.4958 91.0673 23.4557 95.6801 23.4557 100.291L23.443 100.308ZM124.007 115.384C124.186 115.416 124.364 115.447 124.544 115.479C124.8 114.908 125.153 114.36 125.29 113.762C125.709 111.945 126.113 110.119 126.397 108.277C126.968 104.559 127.34 100.807 128.002 97.1078C129.169 90.5787 129.326 84.0178 128.947 77.4253C128.882 76.2726 128.715 75.1093 128.435 73.9905C127.714 71.1055 127.101 68.1805 125.578 65.5557C124.506 63.705 123.774 61.5985 122.446 59.9657C118.63 55.2724 114.425 50.9408 109.305 47.6033C106.579 45.8266 103.622 44.547 100.555 43.5107C98.0508 42.6647 95.4367 42.3516 92.8457 41.8736C88.1927 41.0171 83.5332 40.9473 78.8505 41.0932C76.9576 41.1524 75.0414 41.2772 73.1886 41.6452C69.261 42.4235 65.3841 43.4557 61.4586 44.2404C57.9286 44.9468 54.9887 46.7023 52.273 48.9357C50.158 50.6764 48.1254 52.5207 45.9533 54.1874C43.1064 56.3722 41.0083 59.1366 39.7774 62.4339C38.098 66.9368 36.8079 71.5835 35.1603 76.0991C33.8764 79.6186 32.25 83.0111 30.8731 86.4967C30.192 88.2183 29.6464 90.0055 29.1895 91.8012C28.3012 95.2868 28.6946 98.8146 29.2276 102.292C29.5004 104.077 30.0651 105.856 30.7652 107.524C31.7128 109.781 32.8549 111.966 34.0351 114.115C34.7584 115.435 35.7059 116.634 36.552 117.888C36.6767 117.848 36.8036 117.81 36.9284 117.77C36.9284 117.444 36.9475 117.116 36.9263 116.792C36.7402 113.916 36.4674 111.044 36.3743 108.163C36.2453 104.187 36.2199 100.206 36.2072 96.2258C36.1966 92.9771 35.8519 89.7348 37.2245 86.5665C38.2355 84.2315 38.6987 81.6638 39.5215 79.24C40.6255 75.9871 41.8395 72.7701 43.0155 69.5425C43.3751 68.5548 43.6733 67.5269 44.164 66.6048C45.1178 64.8133 46.0463 62.9796 47.2392 61.3489C49.3437 58.4703 51.8035 55.8963 55.0014 54.1853C56.6723 53.2927 58.3791 52.4509 60.1304 51.7339C62.7594 50.6574 65.3841 49.4835 68.1189 48.7708C71.2343 47.9607 74.4661 47.5885 77.6534 47.0682C82.8966 46.2137 88.1165 46.6748 93.3216 47.4573C94.009 47.561 94.69 47.7852 95.3372 48.0474C97.6448 48.9844 99.9882 49.8558 102.215 50.9556C103.804 51.7403 105.335 52.7238 106.699 53.8532C108.914 55.6869 110.944 57.7449 113.101 59.6526C115.756 62.0003 118.203 64.532 119.793 67.7257C121.587 71.3276 123.106 75.0691 122.964 79.1934C122.862 82.1714 122.848 85.2213 122.169 88.0914C121.098 92.6091 119.88 97.0866 119.208 101.687C119.009 103.043 118.966 104.422 118.859 105.79C118.793 106.621 119.07 107.158 119.939 107.474C120.612 107.717 121.213 108.205 121.786 108.66C122.951 109.587 123.199 110.961 123.45 112.319C123.639 113.341 123.823 114.362 124.011 115.384H124.007ZM93.6389 140.195C93.6664 140.195 93.6917 140.195 93.7192 140.195C93.7192 144.208 93.715 148.218 93.7214 152.23C93.7235 153.666 94.1063 154.083 95.5234 154.051C102.49 153.897 109.455 153.725 116.42 153.545C117.687 153.512 118.015 153.194 118.127 151.9C118.224 150.779 118.249 149.652 118.304 148.526C118.62 141.961 119.098 135.415 118.211 128.831C117.765 125.504 118.013 122.086 117.915 118.713C117.879 117.448 117.767 116.185 117.657 114.925C117.564 113.863 116.991 113.167 115.94 112.909C115.051 112.694 114.163 112.328 113.271 112.311C107.329 112.194 101.388 112.135 95.4451 112.106C94.4003 112.099 93.8631 112.768 93.8419 113.941C93.7573 118.611 93.6833 123.281 93.6473 127.953C93.6156 132.035 93.641 136.115 93.641 140.197L93.6389 140.195ZM85.166 54.3946C86.6677 54.5639 88.2138 54.5596 89.6605 54.9382C92.4693 55.6742 94.9883 57.1209 97.3486 58.7707C100.312 60.8413 103.169 63.06 106.08 65.2067C110.316 68.3348 112.446 72.6093 112.771 77.7848C112.983 81.1562 113.015 84.5381 112.31 87.8841C112.008 89.3223 111.627 90.8071 111.701 92.2496C111.925 96.5833 111.462 100.809 110.227 104.957C110.018 105.659 110.284 106.073 110.986 106.152C112.105 106.276 113.228 106.365 114.351 106.439C115.081 106.488 115.432 106.082 115.527 105.375C115.893 102.664 116.198 99.9398 116.678 97.2474C117.114 94.794 117.793 92.3828 118.281 89.9378C118.804 87.3279 119.48 84.7137 119.637 82.0741C119.893 77.7806 119.072 73.6542 117.029 69.7583C115.853 67.5184 114.519 65.4457 112.697 63.7283C111.145 62.2605 109.406 60.9936 107.81 59.5701C106.553 58.4492 105.487 57.0977 104.161 56.0761C100.42 53.187 96.1135 51.4378 91.4752 50.7568C87.6935 50.2005 83.8611 49.7923 80.0117 50.3549C76.6763 50.8414 73.2584 50.7124 70.0055 51.8164C67.2136 52.764 64.3901 53.6184 61.5834 54.5258C58.119 55.6446 55.1135 57.5016 52.4274 59.972C48.6394 63.4533 46.7147 67.9986 44.9338 72.6368C44.3184 74.24 43.8361 75.8961 43.2799 77.5226C42.601 79.5149 41.9051 81.4988 41.2283 83.4912C40.947 84.3161 41.2769 84.7158 42.1335 84.6672C43.1889 84.6079 44.2422 84.5339 45.2955 84.4535C46.977 84.3245 47.0573 84.0348 47.3873 82.4379C47.9245 79.8343 48.5146 77.2074 49.46 74.735C50.2235 72.7362 51.3953 70.8454 52.6516 69.0984C54.4198 66.6386 56.5263 64.4728 59.2907 63.0451C61.1604 62.0786 62.9455 60.9513 64.8173 59.9868C67.4336 58.6395 69.9843 57.0088 72.7635 56.1692C76.7567 54.9615 80.9127 54.2064 85.166 54.3968V54.3946ZM83.3894 57.7977C81.9977 57.8929 80.5912 57.9733 79.1868 58.0917C75.4136 58.4111 71.9302 59.6294 68.6328 61.4652C66.3338 62.7469 64.0199 64.0117 61.6638 65.1856C57.9138 67.051 55.2002 69.9232 53.1529 73.5209C51.5031 76.4206 50.7629 79.5847 50.2701 82.8292C50.2257 83.1189 50.3589 83.5695 50.5725 83.745C51.7041 84.6735 53.8614 83.781 54.2083 82.3575C54.7053 80.3165 55.2298 78.2755 55.8855 76.281C57.1757 72.364 60.2446 70.0565 63.6942 68.2714C66.964 66.5794 70.3121 65.0037 73.7343 63.6564C75.8324 62.8294 78.1124 62.3112 80.3565 62.0426C84.6119 61.5329 88.3513 63.1107 91.8115 65.4584C92.9451 66.2283 94.0238 67.0976 95.223 67.7426C100.855 70.7756 103.586 75.8263 104.354 81.8288C104.853 85.731 104.506 89.7644 104.301 93.728C104.193 95.8155 103.759 97.9348 103.129 99.9293C102.566 101.716 101.564 103.37 100.69 105.05C100.31 105.779 100.434 106.135 101.24 106.15C102.471 106.173 103.706 106.186 104.935 106.114C106.113 106.044 106.771 105.388 107.021 104.238C107.118 103.791 107.188 103.326 107.368 102.914C108.615 100.06 108.783 97.0909 108.554 94.0241C108.434 92.3955 108.522 90.7056 108.816 89.0982C109.571 84.9802 109.899 80.8474 109.366 76.6998C108.888 72.9774 107.014 69.9952 104.007 67.7363C101.651 65.9681 99.341 64.1365 96.9299 62.4487C95.24 61.2664 93.4485 60.2152 91.638 59.219C89.0725 57.8062 86.2109 57.9014 83.3852 57.7956L83.3894 57.7977ZM130.622 50.9218C130.534 51.0254 130.445 51.1312 130.356 51.2348C130.451 51.4082 130.536 51.5901 130.646 51.753C131.54 53.0897 132.617 54.3418 133.302 55.7779C134.523 58.335 135.772 60.9322 136.523 63.6458C137.494 67.1568 138.162 70.7777 138.638 74.3944C139.121 78.0513 139.068 81.7759 139.514 85.4413C139.954 89.0622 140.039 92.6705 139.844 96.2956C139.584 101.143 139.275 105.991 138.962 110.836C138.799 113.36 138.653 115.887 138.368 118.4C137.943 122.141 137.196 125.83 135.859 129.362C134.992 131.655 134.15 133.979 133.027 136.149C131.422 139.246 129.277 141.978 126.788 144.455C126.003 145.235 125.271 146.304 125.049 147.353C124.743 148.806 124.91 150.364 124.937 151.877C124.95 152.666 125.464 153.213 126.234 153.059C127.249 152.854 128.364 152.623 129.18 152.044C132.437 149.724 135.113 146.817 137.367 143.505C139.687 140.096 141.255 136.473 141.255 132.26C141.255 130.149 141.422 128.038 141.544 125.932C142.194 114.895 142.204 103.861 141.688 92.8122C141.346 85.4666 141.331 78.1021 141.272 70.746C141.259 69.2972 141.762 67.8484 141.94 66.389C142.041 65.5409 142.141 64.6272 141.936 63.8214C141.511 62.1632 140.942 60.5325 140.309 58.9377C140.011 58.1869 139.556 57.4065 138.956 56.8862C137.606 55.7144 136.145 54.6654 134.685 53.6269C133.359 52.6836 131.976 51.8207 130.618 50.9218H130.622ZM97.613 88.9501C97.649 88.9501 97.6849 88.9501 97.7209 88.9501C97.7209 90.1113 97.668 91.2766 97.7315 92.4357C97.9705 96.8159 95.8998 100.181 92.8605 102.966C90.1744 105.428 87.2705 107.694 83.8505 109.092C81.7206 109.963 79.5633 110.991 77.1374 110.416C76.1877 110.191 75.2656 109.847 74.3265 109.563C72.791 109.1 72.4483 109.39 72.4653 111.018C72.4758 112.108 72.4378 113.199 72.3658 114.284C72.2897 115.449 72.8608 116.443 74.0262 116.613C75.6547 116.847 77.351 117.182 78.9436 116.953C81.3949 116.604 83.8018 115.877 86.1918 115.183C87.1711 114.897 87.8691 114.168 87.7654 112.964C87.7168 112.406 87.776 111.839 87.776 111.274C87.7718 109.204 88.7574 107.772 90.6863 107.112C91.7713 106.742 92.9473 106.644 94.0767 106.397C94.616 106.279 95.2442 106.226 95.6566 105.911C97.5665 104.447 98.9772 102.507 99.8317 100.312C100.654 98.1992 101.27 95.9678 101.217 93.6307C101.202 92.9666 101.236 92.2771 101.395 91.6362C102.666 86.4946 101.727 81.5602 99.8994 76.759C99.2331 75.0078 98.2116 73.3644 96.564 72.2498C94.5018 70.8539 92.4968 69.3649 90.3944 68.0324C89.0704 67.1927 87.6766 66.3806 86.2066 65.873C81.8095 64.3544 77.5392 65.4013 73.472 67.1039C70.217 68.466 67.1311 70.232 63.9945 71.867C63.0343 72.3682 62.0635 72.9224 61.2556 73.633C58.4806 76.078 57.7002 79.5065 56.9071 82.9032C56.8478 83.1528 57.0065 83.5568 57.201 83.7408C58.0872 84.5762 60.3842 83.8465 60.6782 82.6833C61.7589 78.4109 64.4324 75.3462 68.1738 73.2248C70.2106 72.07 72.3912 71.1627 74.5359 70.2109C77.8628 68.7346 81.1898 68.4998 84.6013 70.0967C87.2219 71.3213 89.7176 72.7066 91.9807 74.5129C95.3415 77.1947 97.704 80.3948 97.6151 84.9379C97.5898 86.2746 97.6109 87.6134 97.6109 88.9501H97.613ZM38.7558 120.363C38.6754 120.462 38.5951 120.559 38.5168 120.659C38.8298 121.183 39.0879 121.754 39.4686 122.224C40.395 123.37 41.3763 124.474 42.3408 125.591C44.5679 128.165 46.8501 130.695 49.0137 133.319C51.2557 136.037 54.0369 138.068 57.2116 139.411C60.6612 140.87 64.2716 141.955 67.8333 143.137C69.3287 143.634 70.8621 144.066 72.4103 144.351C76.7334 145.147 81.0925 145.047 85.4537 144.688C86.3166 144.616 86.8729 144.22 86.9342 143.349C87.0125 142.194 87.0442 141.031 87.0252 139.872C87.0146 139.119 86.5239 138.742 85.7879 138.7C85.4368 138.679 85.0836 138.704 84.7325 138.685C81.3611 138.508 77.9474 138.603 74.6311 138.078C69.8405 137.321 65.2001 135.838 60.7268 133.931C58.322 132.905 56.1203 131.481 54.3521 129.544C52.3174 127.315 50.4224 124.956 48.4829 122.641C47.7955 121.82 47.0277 121.312 45.8835 121.285C44.1978 121.245 42.5142 121.067 40.837 120.879C40.1327 120.798 39.4496 120.54 38.7558 120.363ZM62.0635 152.443C62.0635 152.285 62.0614 152.126 62.0593 151.968C61.6067 151.841 61.1604 151.682 60.7014 151.595C59.8385 151.435 58.9248 151.439 58.1063 151.16C53.6647 149.643 48.9587 148.966 44.7287 146.76C41.7274 145.197 38.7833 143.56 36.3299 141.227C32.8316 137.9 30.3486 133.831 28.206 129.536C27.2204 127.558 26.1798 125.606 25.0906 123.685C24.8643 123.286 24.308 123.074 23.904 122.776C23.7539 123.197 23.4747 123.618 23.4726 124.041C23.4514 127.382 23.4345 130.728 23.5276 134.068C23.5572 135.098 23.7348 136.221 24.198 137.12C25.2217 139.112 26.3469 141.079 27.6582 142.888C29.2191 145.041 30.9831 147.054 32.7343 149.064C34.2043 150.749 35.8984 151.754 38.3751 151.705C42.4466 151.627 46.5265 152.008 50.6021 152.2C53.9397 152.357 57.2751 152.534 60.6126 152.67C61.0927 152.689 61.5792 152.522 62.0614 152.441L62.0635 152.443ZM94.6795 89.0432C94.6414 89.0432 94.6012 89.0432 94.5631 89.0432C94.5631 87.2496 94.7239 85.4349 94.5103 83.6667C94.3538 82.3829 93.9984 80.9087 93.2032 79.9654C91.7523 78.2459 90.0306 76.6871 88.1948 75.38C86.5641 74.2189 84.6119 73.5146 82.8247 72.5649C80.974 71.5814 79.0092 71.5941 77.1987 72.3323C74.1594 73.5738 71.2132 75.048 68.2711 76.5158C65.7268 77.7848 64.4789 80.1685 63.4087 82.6388C63.2818 82.9307 63.4129 83.5356 63.6477 83.7471C64.5846 84.5931 66.3972 83.8846 66.9915 82.8059C67.7889 81.3592 68.6222 79.7053 69.9082 78.8127C71.4881 77.715 73.5355 77.2709 75.4052 76.6216C76.1264 76.372 76.9153 76.243 77.6788 76.2112C78.9584 76.1584 80.274 76.059 81.5197 76.2832C83.5628 76.6533 85.1766 77.9815 86.9025 79.0602C89.3073 80.564 90.7793 82.6959 90.9972 85.4603C91.215 88.2204 91.1135 91.0102 91.0437 93.7851C90.9887 95.9826 89.7007 97.6704 88.1482 98.986C85.7752 100.999 82.8987 102.095 79.815 102.518C77.7909 102.797 75.7562 103.005 73.8887 101.738C73.6031 101.543 72.7698 101.7 72.5308 101.983C71.9175 102.706 72.406 105.337 73.1801 105.898C75.991 107.935 79.0515 108.208 82.1563 106.799C85.202 105.418 88.0361 103.62 90.5107 101.357C93.0763 99.0113 94.9312 96.2576 94.69 92.5287C94.6139 91.3718 94.6774 90.2064 94.6774 89.0453L94.6795 89.0432ZM81.4076 135.775L81.452 135.415C82.8585 135.415 84.265 135.415 85.6737 135.415C86.6656 135.415 87.1478 134.931 87.1669 133.922C87.1986 132.165 87.2768 130.407 87.3213 128.647C87.3572 127.158 86.8475 126.784 85.3839 127.158C84.3666 127.418 83.3429 127.82 82.315 127.85C79.4703 127.932 76.6107 128.011 73.7787 127.799C70.7415 127.573 67.9116 126.416 65.2022 125.071C63.5462 124.25 62.0106 123.19 60.399 122.279C59.8068 121.945 59.149 121.507 58.5187 121.498C56.8013 121.475 55.0797 121.653 53.3601 121.761C52.5374 121.814 52.2857 122.205 52.6643 122.943C52.9012 123.404 53.2755 123.793 53.5843 124.218C56.8351 128.658 61.0927 131.623 66.4459 132.962C68.4848 133.472 70.5215 134.011 72.5879 134.387C75.5151 134.92 78.4698 135.318 81.4119 135.773L81.4076 135.775ZM59.608 33.0793C59.6756 33.2126 59.7433 33.3458 59.811 33.4791C60.2404 33.4791 60.676 33.5277 61.0991 33.4685C62.0381 33.3374 62.9772 33.1766 63.9036 32.982C66.4437 32.4448 68.9754 31.8695 71.5156 31.3344C74.5401 30.6978 77.5435 29.8285 80.6039 29.5134C87.8035 28.7689 94.929 29.7545 102.017 30.9791C102.391 31.0447 102.748 31.2202 103.11 31.3492C104.466 31.8272 105.815 32.3264 107.184 32.7684C107.391 32.8361 107.681 32.6457 107.93 32.5759C107.835 32.3369 107.803 32.0303 107.634 31.8674C106.771 31.0447 105.91 30.2071 104.973 29.4711C103.848 28.5891 102.755 27.4745 101.456 27.0515C99.4362 26.3958 97.2662 26.1018 95.1363 25.8967C87.2642 25.1437 79.3793 25.4144 71.5114 25.9538C69.7707 26.0722 67.9539 26.6094 66.3909 27.392C64.885 28.1449 63.635 29.4309 62.3194 30.5392C61.374 31.3365 60.5068 32.2291 59.6058 33.0793H59.608ZM72.7296 87.1037C73.0807 86.4861 73.5841 85.5428 74.1361 84.627C75.5955 82.2074 78.5692 81.3085 81.2088 82.2793C83.9414 83.2839 85.183 85.2826 85.3733 88.028C85.5129 90.0351 85.8027 92.0317 84.2989 93.8443C81.9618 96.6594 78.3683 96.9661 75.2994 94.7305C74.7474 94.3286 74.3561 93.7089 73.8717 93.2098C73.307 92.6239 72.5943 92.6133 72.5647 93.1781C72.4822 94.7009 72.0549 96.3718 73.2245 97.6366C74.4661 98.9796 76.0481 99.9885 77.9686 99.6966C79.8954 99.4047 81.8031 98.9035 83.6728 98.3388C87.592 97.1522 88.474 94.0072 88.474 90.5808C88.474 88.7999 88.0933 87.0212 87.9452 85.2361C87.831 83.8423 87.2938 82.7467 86.0882 81.9874C85.3204 81.5031 84.6034 80.9341 83.8336 80.4498C82.315 79.4938 80.8027 78.7133 78.8548 78.7831C76.8984 78.855 75.1535 79.5149 73.3324 80.0204C71.7292 80.4646 70.6146 81.5158 69.8616 82.8821C69.5867 83.3833 69.6121 84.4155 69.9547 84.8152C70.714 85.7014 71.7609 86.338 72.7254 87.1058L72.7296 87.1037ZM47.6982 115.839C47.6982 115.877 47.6982 115.915 47.6982 115.955C49.0687 115.955 50.4414 115.974 51.8119 115.949C52.9244 115.927 53.4595 115.451 53.4046 114.434C53.248 111.594 53.0767 108.751 52.7975 105.919C52.7531 105.475 52.1313 104.752 51.7464 104.732C48.8699 104.587 45.9871 104.544 43.1064 104.565C42.1822 104.572 41.6873 105.185 41.7169 106.192C41.7909 108.757 41.8057 111.323 41.8713 113.888C41.9072 115.293 42.3831 115.781 43.7959 115.83C45.0946 115.875 46.3974 115.839 47.6982 115.839ZM47.0637 89.4789C47.0637 89.4979 47.0637 89.5169 47.0637 89.5339C45.6212 89.5339 44.1788 89.5381 42.7363 89.5339C41.8374 89.5296 41.351 89.9082 41.389 90.8684C41.4969 93.5376 41.5582 96.211 41.6936 98.8781C41.7528 100.035 42.1906 100.439 43.3687 100.46C45.8666 100.507 48.3644 100.521 50.8623 100.494C52.2096 100.479 52.4824 100.111 52.4866 98.747C52.4909 96.1433 52.493 93.5418 52.5543 90.9382C52.5797 89.8807 52.3492 89.5064 51.2853 89.4852C49.8788 89.4577 48.4702 89.4789 47.0637 89.4789ZM56.1435 110.191C56.1604 110.191 56.1795 110.191 56.1964 110.191C56.1964 111.492 56.1964 112.793 56.1964 114.094C56.1964 115.394 56.5496 115.832 57.8694 115.828C60.2615 115.82 62.6536 115.731 65.0436 115.657C65.879 115.631 66.3486 115.155 66.3909 114.326C66.5326 111.551 66.6616 108.774 66.78 105.997C66.8202 105.048 66.3063 104.523 65.3841 104.51C62.7805 104.474 60.1769 104.464 57.5733 104.487C56.7209 104.493 56.1689 104.974 56.152 105.866C56.1224 107.307 56.1435 108.749 56.1435 110.191ZM56.207 94.8934C56.1647 94.8934 56.1224 94.8934 56.0801 94.8934C56.0801 96.2301 56.116 97.5668 56.0695 98.9013C56.0335 99.9335 56.4967 100.422 57.495 100.414C60.0965 100.392 62.698 100.369 65.2995 100.31C66.1603 100.291 66.632 99.8341 66.6426 98.9013C66.6743 96.4056 66.761 93.9099 66.8012 91.4141C66.8223 90.088 66.3211 89.536 64.9971 89.4852C62.5732 89.3922 60.1473 89.3414 57.7235 89.3012C56.7146 89.2843 56.2324 89.7686 56.2154 90.7796C56.1922 92.1502 56.2091 93.5207 56.2091 94.8912L56.207 94.8934ZM65.7141 121.388C65.6802 121.528 65.6464 121.668 65.6125 121.807C65.7902 121.915 65.9636 122.036 66.1476 122.129C68.599 123.377 71.1391 124.483 73.8844 124.698C76.5346 124.906 79.2207 124.825 81.8814 124.684C83.3725 124.605 84.853 124.193 86.3166 123.842C87.1901 123.632 87.6512 123.021 87.5899 122.044C87.5349 121.135 87.5941 120.217 87.5751 119.303C87.5518 118.248 87.114 117.932 86.0776 118.216C84.6246 118.611 83.1568 118.96 81.7333 119.445C78.8125 120.439 75.9635 120.346 73.0786 119.256C72.4737 119.028 71.634 119.151 70.9868 119.366C69.6798 119.804 68.4382 120.43 67.1565 120.948C66.6912 121.137 66.1942 121.242 65.7119 121.386L65.7141 121.388ZM95.5107 22.2842C95.5339 22.4195 95.5593 22.5549 95.5826 22.6903C95.957 22.4957 96.3313 22.3011 96.7057 22.1065C96.4857 21.7448 96.3229 21.3282 96.0331 21.0342C95.3436 20.3341 94.5928 19.6954 93.8715 19.0291C93.0001 18.2233 92.0886 17.6015 90.792 17.6903C88.2667 17.8616 85.7265 17.8574 83.2054 18.0795C80.0519 18.3587 76.6213 17.8955 74.3519 20.9496C74.3117 21.0025 74.2102 21.0173 74.1827 21.0723C74.024 21.3895 73.8781 21.7131 73.7279 22.0346C74.0304 22.17 74.3307 22.4195 74.6332 22.4195C75.6167 22.4238 76.598 22.2948 77.5815 22.2905C83.5565 22.2757 89.5336 22.2842 95.5086 22.2842H95.5107ZM28.0347 60.156C27.9776 60.0376 27.8888 59.5384 27.6371 59.4348C27.3664 59.3248 26.8757 59.4961 26.5986 59.7013C24.9637 60.9132 23.3457 62.1505 21.7573 63.4259C20.9937 64.0392 20.8542 64.7393 21.3004 65.746C21.9878 67.3027 22.4552 68.963 22.929 70.6064C23.1807 71.4799 23.1934 72.4211 23.4366 73.2988C23.5487 73.707 23.9548 74.0349 24.2255 74.3987C24.5174 74.0497 24.9594 73.7451 25.0737 73.3475C25.6764 71.2599 26.2538 69.1639 26.7255 67.0447C27.2141 64.8514 27.5715 62.6306 28.0347 60.1581V60.156ZM83.749 89.7517C83.6517 89.2631 83.4127 88.3431 83.2921 87.4104C82.9072 84.4134 80.3543 83.1232 77.7105 84.5128C75.7118 85.5618 74.9018 87.2665 74.9504 89.3372C75.0012 91.5051 76.1243 93.0998 78.2033 93.9522C80.2761 94.8024 83.9309 93.0046 83.749 89.7517ZM30.0271 150.946C29.2424 149.954 28.6565 149.227 28.0855 148.488C26.956 147.025 25.8478 145.542 24.6929 144.098C24.5068 143.865 24.124 143.793 23.8321 143.647C23.7285 143.962 23.5276 144.282 23.536 144.592C23.5804 146.134 23.646 147.678 23.7708 149.216C23.885 150.591 24.2995 150.948 25.7018 151.041C26.6472 151.105 27.5927 151.17 28.5381 151.183C28.9315 151.189 29.327 151.062 30.025 150.944L30.0271 150.946ZM140.415 148.66C140.415 147.957 140.451 147.253 140.398 146.555C140.377 146.278 140.163 146.016 140.036 145.745C139.753 145.902 139.393 145.995 139.195 146.225C137.731 147.919 136.291 149.635 134.865 151.365C134.664 151.61 134.588 151.957 134.453 152.255C134.764 152.384 135.079 152.632 135.388 152.625C136.648 152.592 137.923 152.564 139.161 152.35C139.565 152.281 140.079 151.71 140.187 151.278C140.396 150.441 140.354 149.54 140.415 148.662V148.66ZM84.999 14.7039C84.999 14.7166 84.999 14.7293 84.999 14.7398C85.735 14.687 86.4816 14.6954 87.1965 14.5495C87.4334 14.5008 87.8098 13.9869 87.7506 13.805C87.114 11.8253 85.1766 11.3241 83.6665 12.7073C83.3302 13.0161 83.0066 13.3376 82.6851 13.6612C82.1542 14.1963 82.3636 14.5897 83.0024 14.6827C83.6538 14.7779 84.3306 14.7039 84.9968 14.7039H84.999Z" fill="#E37422"/>
<path d="M115.631 133.205C115.629 134.776 114.286 135.992 112.56 135.988C111.094 135.984 110.115 134.855 110.111 133.171C110.109 131.477 111.158 130.426 112.86 130.417C114.671 130.407 115.633 131.377 115.629 133.207L115.631 133.205Z" fill="#E37422"/>
<path d="M76.5749 89.2141C76.5664 87.2619 77.827 85.8872 79.6121 85.9041C81.3401 85.921 82.5562 87.2302 82.5583 89.0703C82.5583 90.7285 81.2005 92.3232 79.7517 92.3613C77.8608 92.412 76.5833 91.1473 76.577 89.2141H76.5749ZM79.8384 87.7251C79.7009 87.7251 79.5613 87.7209 79.4238 87.7209C79.1552 88.1672 78.6666 88.6198 78.6793 89.0576C78.692 89.4764 79.225 89.8804 79.5296 90.2907C79.868 89.8952 80.4285 89.5271 80.4813 89.0957C80.5342 88.6727 80.0731 88.1841 79.8384 87.7251Z" fill="#E37422"/>
</g>
<defs>
<clipPath id="clip0_1_42264">
<rect width="166.91" height="164.719" fill="white"/>
</clipPath>
</defs>
</svg>
