<svg width="64" height="64" viewBox="0 0 64 64" fill="none" xmlns="http://www.w3.org/2000/svg">
<g clip-path="url(#clip0_1_43040)">
<path d="M0 17.295C0.103058 16.8379 0.191156 16.3775 0.312499 15.927C0.646607 14.6837 1.24335 13.5799 2.15259 12.6641C3.80318 11.0018 5.45543 9.33959 7.13428 7.70562C8.53721 6.33927 10.1712 5.63615 12.0994 6.44565C12.8241 6.74984 13.5139 7.24352 14.0807 7.79538C16.5309 10.1823 18.9328 12.6192 21.343 15.046C22.1708 15.8788 22.8357 16.8096 23.0235 18.0181C23.233 19.3645 22.8324 20.5497 21.9431 21.5088C20.4354 23.1344 18.8463 24.682 17.2839 26.2561C16.2716 27.2767 16.2782 27.2983 16.8816 28.6131C18.494 32.1304 20.9341 35.0509 23.5255 37.8584C26.1236 40.6709 28.9926 43.1776 32.2406 45.2205C33.3576 45.9236 34.5644 46.4871 35.7313 47.1104C36.2698 47.398 36.6721 47.1619 37.0527 46.7763C38.5255 45.2886 40.0065 43.8092 41.4876 42.3282C42.2455 41.5702 43.0933 40.9452 44.1588 40.7075C45.4985 40.41 46.6987 40.7773 47.7741 41.5852C48.0883 41.8212 48.3808 42.0888 48.6601 42.3647C51.0404 44.7334 53.434 47.0905 55.7794 49.4941C56.3479 50.0758 56.8715 50.7607 57.2156 51.4921C57.9702 53.0978 57.6494 54.6819 56.5041 55.9468C54.6973 57.9415 52.8123 59.8763 50.8426 61.7114C48.8579 63.5615 46.3679 63.8773 43.7565 63.6496C38.6003 63.1991 34.0258 61.0997 29.5993 58.6247C19.8786 53.1875 12.1742 45.6211 6.28322 36.2045C3.55883 31.8512 1.42287 27.2218 0.334108 22.1637C0.20113 21.5387 0.111369 20.907 0 20.2804C0 19.2847 0 18.289 0 17.295Z" fill="#E47A14"/>
<path d="M33.346 -0.000290896C34.468 0.252368 35.5933 0.486742 36.7086 0.76101C42.2123 2.11739 47.1275 4.65395 51.4144 8.3441C57.0892 13.2277 60.9722 19.2832 62.9453 26.5289C63.2278 27.5645 63.4356 28.6216 63.675 29.6688C63.6883 29.7253 63.6683 29.7885 63.6617 29.9082C62.0659 30.1825 60.4652 30.4567 58.8013 30.741C57.5796 24.0073 54.5693 18.2477 49.6774 13.5086C44.8004 8.78293 38.9709 5.95714 32.1791 4.9332C32.4051 3.261 32.6262 1.63036 32.8473 -0.00195312C33.0135 -0.00195312 33.1797 -0.00195312 33.3443 -0.00195312L33.346 -0.000290896Z" fill="#E47A14"/>
<path d="M31.5275 17.5893C31.7569 15.9653 31.9813 14.3713 32.204 12.7805C41.2998 13.8045 49.3001 21.3909 50.7595 30.7509C49.1671 31.0268 47.5713 31.3027 45.954 31.582C44.1488 23.8327 39.3633 19.1801 31.5258 17.591L31.5275 17.5893Z" fill="#E47A14"/>
</g>
<defs>
<clipPath id="clip0_1_43040">
<rect width="63.68" height="63.7116" fill="white"/>
</clipPath>
</defs>
</svg>
