<svg width="63" height="63" viewBox="0 0 63 63" fill="none" xmlns="http://www.w3.org/2000/svg">
<g clip-path="url(#clip0_1_43032)">
<path d="M29.408 62.9138H13.6983V47.2093C11.3736 49.0359 8.88799 49.7103 6.12163 48.9948C4.19408 48.4966 2.64657 47.4027 1.49107 45.7731C-0.772002 42.5805 -0.422784 38.1947 2.28879 35.3564C4.89252 32.6312 9.684 31.6794 13.6487 34.8429V13.6981H29.4148C27.5506 11.3631 26.9189 8.84496 27.6499 6.06149C28.1378 4.20413 29.1871 2.69598 30.7552 1.57301C34.042 -0.784214 38.4277 -0.460673 41.3156 2.34848C43.9502 4.91112 44.979 9.58106 41.7898 13.6501H62.8627V34.8994C60.7263 33.155 58.3486 32.5028 55.7089 33.0489C53.7368 33.4563 52.1243 34.5005 50.9003 36.1079C48.49 39.2714 48.7536 43.7959 51.4772 46.6855C54.1528 49.5237 59.0059 50.3574 62.8559 47.2333V62.8916H41.735C43.5445 60.5994 44.2206 58.0761 43.4589 55.2619C42.9436 53.3583 41.8463 51.8399 40.232 50.7083C37.0343 48.4675 32.6571 48.8544 29.8308 51.6071C27.2408 54.1286 26.1503 58.7797 29.4131 62.9138H29.408Z" fill="#E47A14"/>
</g>
<defs>
<clipPath id="clip0_1_43032">
<rect width="62.8593" height="62.914" fill="white"/>
</clipPath>
</defs>
</svg>
