<svg width="63" height="59" viewBox="0 0 63 59" fill="none" xmlns="http://www.w3.org/2000/svg">
<g clip-path="url(#clip0_1_43035)">
<path d="M10.4775 29.3532C9.8006 29.3532 9.21463 29.3532 8.62866 29.3532C6.7308 29.3479 5.22302 28.3282 4.5181 26.572C3.79919 24.7826 4.18926 22.8935 5.57635 21.5904C8.04093 19.2727 10.5143 16.9673 12.9858 14.6566C17.4655 10.4691 21.9469 6.2851 26.4212 2.09233C29.3266 -0.631132 33.4127 -0.71859 36.2831 1.95415C43.2938 8.48381 50.2887 15.0275 57.2749 21.5816C59.7307 23.8853 58.8299 28.1393 55.6569 29.1275C54.889 29.3672 54.0232 29.2902 53.2011 29.3497C52.9632 29.3672 52.7236 29.3532 52.386 29.3532V30.0686C52.386 32.381 52.3755 34.6952 52.3947 37.0076C52.3982 37.4116 52.288 37.6233 51.9049 37.7912C50.9691 38.2023 50.0631 38.6798 49.1395 39.1188C47.1489 40.0616 45.1461 40.0896 43.1433 39.1608C42.1358 38.6938 41.1318 38.2197 40.1523 37.6967C39.9738 37.6023 39.8339 37.2629 39.8304 37.0356C39.8042 35.1814 39.8391 33.3256 39.8094 31.4714C39.7604 28.4926 37.8608 26.0875 35.0202 25.3616C34.7473 25.2916 34.4639 25.2164 34.1858 25.2164C32.2897 25.2164 30.3744 25.0677 28.5028 25.2846C25.2615 25.6624 23.0926 28.26 23.0523 31.5222C23.0296 33.3553 23.0348 35.1884 23.0576 37.0198C23.0628 37.4291 22.9404 37.6355 22.5626 37.8017C21.6478 38.204 20.7557 38.664 19.8531 39.0978C17.8188 40.0756 15.7775 40.0809 13.738 39.1223C12.7532 38.6588 11.7667 38.197 10.8081 37.6827C10.6297 37.5865 10.495 37.2455 10.4933 37.0163C10.4705 34.7249 10.4793 32.4335 10.4793 30.1438C10.4793 29.9077 10.4793 29.6698 10.4793 29.3497L10.4775 29.3532Z" fill="#E47A14"/>
<path d="M46.0959 48.2351C43.3375 48.2771 40.8432 47.371 38.3978 46.2061C36.8901 45.4889 35.356 44.7665 33.7555 44.3222C31.1703 43.6051 28.6847 44.1823 26.2743 45.293C24.3048 46.2008 22.3299 47.1804 20.2554 47.7664C16.3792 48.8613 12.6693 48.0427 9.13767 46.2253C7.53193 45.3997 5.93669 44.5269 4.12104 44.2365C3.43537 44.1263 2.7392 44.0634 2.04478 44.0249C0.871081 43.9619 -0.00525459 43.0751 -7.07573e-06 41.9101C0.00524044 40.7487 0.89382 39.8618 2.07276 39.8339C4.71052 39.7709 7.13487 40.551 9.47876 41.6757C10.7924 42.3054 12.0938 42.9911 13.4651 43.4686C16.0871 44.3817 18.7039 44.1666 21.2332 43.0436C22.7847 42.3544 24.282 41.5376 25.8563 40.9113C29.9843 39.2689 34.0704 39.498 38.09 41.3556C39.708 42.1025 41.3085 42.9107 42.9824 43.5071C45.4435 44.3852 47.9238 44.1613 50.3132 43.138C52.1533 42.3492 53.9427 41.4431 55.7951 40.6875C57.3606 40.0508 59.0258 39.8094 60.7225 39.8356C61.9435 39.8549 62.8583 40.7382 62.8635 41.9119C62.8688 43.0996 61.9819 44.0126 60.754 44.0161C58.3419 44.0214 56.2167 44.9379 54.1334 46.0154C52.0904 47.0719 49.9791 47.9255 47.6632 48.1442C47.1437 48.1932 46.6189 48.2071 46.0977 48.2369L46.0959 48.2351Z" fill="#E47A14"/>
<path d="M45.9385 58.6864C43.32 58.7442 40.8467 57.8433 38.4188 56.6924C36.911 55.977 35.3788 55.2458 33.78 54.8015C31.1982 54.0844 28.7074 54.6476 26.297 55.7601C24.3275 56.6696 22.3544 57.6527 20.2799 58.2387C16.4055 59.3319 12.692 58.5308 9.1604 56.7116C7.53542 55.8755 5.91918 54.9992 4.08255 54.7018C3.41786 54.5934 2.74268 54.5356 2.06925 54.5024C0.860573 54.4429 -0.0175117 53.5439 0.0017292 52.3457C0.0209701 51.1982 0.925293 50.3324 2.11648 50.3096C4.707 50.2607 7.09113 51.0146 9.40004 52.1165C10.7924 52.7812 12.1847 53.4687 13.6365 53.9794C16.1029 54.8453 18.5797 54.6406 20.9691 53.6208C22.629 52.9124 24.2225 52.0413 25.8982 51.3731C30.0053 49.7377 34.0756 49.9721 38.069 51.8227C39.2532 52.3719 40.4146 52.9754 41.6076 53.5036C44.5986 54.8278 47.6037 54.833 50.5966 53.4984C52.3457 52.7183 54.0634 51.8629 55.8353 51.1475C57.4026 50.5143 59.0678 50.2782 60.7645 50.3096C61.9417 50.3324 62.8495 51.2175 62.8635 52.3632C62.8775 53.5579 61.9959 54.4727 60.7785 54.4919C58.9838 54.5234 57.2959 54.9659 55.6814 55.7356C54.3065 56.3915 52.937 57.0597 51.5359 57.6527C49.7919 58.3908 47.9536 58.7179 45.9385 58.6847V58.6864Z" fill="#E47A14"/>
</g>
<defs>
<clipPath id="clip0_1_43035">
<rect width="62.8635" height="58.7355" fill="white"/>
</clipPath>
</defs>
</svg>
